<svg width="375" height="816" viewBox="0 0 375 816" fill="none" xmlns="http://www.w3.org/2000/svg">
<rect width="375" height="816" fill="#FDFDFD"/>
<mask id="path-1-inside-1_1428_1633" fill="white">
<path d="M301.778 158.647L305.721 154.702V154.558L302.49 151.328L305.721 148.095V147.951L302.49 144.72L305.721 141.488V141.344L302.49 138.113L305.721 134.881V134.737L300.598 129.615V129.617L296.378 125.396L291.254 120.273H291.11L287.86 123.522L284.615 120.278H284.471L281.226 123.522L277.977 120.273H277.832L274.585 123.52L271.338 120.273H271.193L267.944 123.522L264.699 120.278H264.555L250.109 134.723L249.795 135.037L249.512 134.742L249.51 134.744V134.74L235.043 120.273H234.899L228.332 126.839L221.766 120.273H221.621L218.374 123.52L215.127 120.273H214.982L211.733 123.522L208.488 120.278H208.344L205.099 123.522L201.849 120.273H201.705L198.455 123.522L195.21 120.278H195.066L184.364 130.98L173.656 120.273H173.512L170.262 123.522L167.017 120.278H166.873L163.628 123.522L160.378 120.273H160.234L156.987 123.52L153.739 120.273H153.595L150.345 123.522L147.101 120.278H146.956L132.491 134.743L132.195 134.995L131.912 134.74L117.444 120.273H117.3L110.734 126.839C109.942 126.048 109.29 125.395 109.29 125.395L104.167 120.272H104.022L100.775 123.52L97.528 120.272H97.3836L94.1338 123.522L90.8892 120.277H90.7448L87.5001 123.522L84.2503 120.272H84.106L80.8562 123.522L77.6115 120.277H77.4671L63 134.744V134.889L77.4671 149.356H77.5274L79.5092 151.337L76.2777 154.569V154.714L81.4009 159.835V159.834L85.6215 164.054L90.7448 169.178H90.8892L96.6613 163.405L97.4588 162.608L98.2573 163.406L98.496 163.645L104.022 169.172H104.086L117.3 182.386H117.444L126.788 173.042C126.788 173.042 127.387 172.443 128.175 171.655L135.194 178.674L140.317 183.798H140.461L143.707 180.552L146.959 183.803H147.103L150.351 180.554L153.595 183.798H153.739L156.987 180.551L160.234 183.798H160.378L163.623 180.553L166.873 183.803H167.017L170.267 180.553L173.512 183.798H173.656L176.882 180.571L180.109 183.798H180.253L194.72 169.33V169.186L201.537 162.37L208.344 169.177H208.488L214.26 163.405L215.058 162.607L215.856 163.405L216.344 163.893L221.622 169.171H221.685L234.899 182.385H235.043L244.387 173.041C244.387 173.041 244.986 172.443 245.774 171.655L252.793 178.674L257.916 183.797H258.061L261.306 180.551L264.558 183.802H264.703L267.951 180.553L271.194 183.797H271.339L274.586 180.55L277.833 183.797H277.978L281.222 180.552L284.472 183.802H284.616L287.866 180.552L291.111 183.797H291.255L294.482 180.571L297.708 183.797H297.852L312.32 169.33V169.186L301.779 158.645L301.778 158.647Z"/>
</mask>
<path d="M301.778 158.647L305.721 154.702V154.558L302.49 151.328L305.721 148.095V147.951L302.49 144.72L305.721 141.488V141.344L302.49 138.113L305.721 134.881V134.737L300.598 129.615V129.617L296.378 125.396L291.254 120.273H291.11L287.86 123.522L284.615 120.278H284.471L281.226 123.522L277.977 120.273H277.832L274.585 123.52L271.338 120.273H271.193L267.944 123.522L264.699 120.278H264.555L250.109 134.723L249.795 135.037L249.512 134.742L249.51 134.744V134.74L235.043 120.273H234.899L228.332 126.839L221.766 120.273H221.621L218.374 123.52L215.127 120.273H214.982L211.733 123.522L208.488 120.278H208.344L205.099 123.522L201.849 120.273H201.705L198.455 123.522L195.21 120.278H195.066L184.364 130.98L173.656 120.273H173.512L170.262 123.522L167.017 120.278H166.873L163.628 123.522L160.378 120.273H160.234L156.987 123.52L153.739 120.273H153.595L150.345 123.522L147.101 120.278H146.956L132.491 134.743L132.195 134.995L131.912 134.74L117.444 120.273H117.3L110.734 126.839C109.942 126.048 109.29 125.395 109.29 125.395L104.167 120.272H104.022L100.775 123.52L97.528 120.272H97.3836L94.1338 123.522L90.8892 120.277H90.7448L87.5001 123.522L84.2503 120.272H84.106L80.8562 123.522L77.6115 120.277H77.4671L63 134.744V134.889L77.4671 149.356H77.5274L79.5092 151.337L76.2777 154.569V154.714L81.4009 159.835V159.834L85.6215 164.054L90.7448 169.178H90.8892L96.6613 163.405L97.4588 162.608L98.2573 163.406L98.496 163.645L104.022 169.172H104.086L117.3 182.386H117.444L126.788 173.042C126.788 173.042 127.387 172.443 128.175 171.655L135.194 178.674L140.317 183.798H140.461L143.707 180.552L146.959 183.803H147.103L150.351 180.554L153.595 183.798H153.739L156.987 180.551L160.234 183.798H160.378L163.623 180.553L166.873 183.803H167.017L170.267 180.553L173.512 183.798H173.656L176.882 180.571L180.109 183.798H180.253L194.72 169.33V169.186L201.537 162.37L208.344 169.177H208.488L214.26 163.405L215.058 162.607L215.856 163.405L216.344 163.893L221.622 169.171H221.685L234.899 182.385H235.043L244.387 173.041C244.387 173.041 244.986 172.443 245.774 171.655L252.793 178.674L257.916 183.797H258.061L261.306 180.551L264.558 183.802H264.703L267.951 180.553L271.194 183.797H271.339L274.586 180.55L277.833 183.797H277.978L281.222 180.552L284.472 183.802H284.616L287.866 180.552L291.111 183.797H291.255L294.482 180.571L297.708 183.797H297.852L312.32 169.33V169.186L301.779 158.645L301.778 158.647Z" fill="white" stroke="black" stroke-dasharray="1 1" mask="url(#path-1-inside-1_1428_1633)"/>
<path d="M90.8171 158.526C90.3377 156.622 88.8371 155.12 86.9337 154.639C88.5806 154.229 89.9514 153.055 90.6012 151.421L90.6353 151.335L90.6012 151.248C89.9523 149.616 88.5829 148.443 86.9379 148.031C88.5829 147.619 89.9518 146.446 90.6012 144.814L90.6353 144.727L90.6012 144.641C89.9523 143.009 88.5829 141.836 86.9379 141.424C88.5829 141.012 89.9518 139.839 90.6012 138.207L90.6353 138.12L90.6012 138.034C90.0551 136.66 88.9525 135.563 87.5761 135.023L87.4906 134.989L87.4051 135.023C85.7676 135.67 84.5908 137.041 84.1787 138.689C83.7662 137.041 82.5898 135.67 80.9518 135.023L80.8663 134.989L80.7808 135.023C79.1335 135.669 77.951 137.044 77.5385 138.699C77.0573 136.796 75.5557 135.296 73.6523 134.816C75.5557 134.337 77.0577 132.836 77.5389 130.934C77.9501 132.584 79.1274 133.956 80.7668 134.604L80.8523 134.638L80.9378 134.604C82.5832 133.959 83.7652 132.587 84.1787 130.934C84.5922 132.587 85.7742 133.96 87.4196 134.604L87.5051 134.638L87.5906 134.604C89.2281 133.957 90.405 132.586 90.8171 130.938C91.2296 132.587 92.406 133.957 94.0435 134.604L94.129 134.638L94.2145 134.604C95.86 133.959 97.042 132.587 97.4554 130.933C97.8684 132.584 99.0476 133.955 100.689 134.602L100.775 134.635L100.86 134.602C102.503 133.954 103.684 132.581 104.095 130.928C104.576 132.829 106.076 134.329 107.977 134.809C106.33 135.22 104.959 136.394 104.31 138.028L104.276 138.114L104.31 138.201C104.959 139.833 106.328 141.006 107.973 141.418C106.328 141.829 104.959 143.003 104.31 144.635L104.276 144.721L104.31 144.808C104.959 146.44 106.328 147.613 107.973 148.025C106.328 148.437 104.959 149.61 104.31 151.242L104.276 151.328L104.31 151.415C104.959 153.049 106.331 154.223 107.977 154.633C106.074 155.114 104.573 156.616 104.094 158.52C103.614 156.616 102.113 155.115 100.21 154.633C101.857 154.223 103.229 153.049 103.878 151.415L103.912 151.328L103.878 151.242C103.229 149.61 101.86 148.437 100.215 148.025C101.86 147.613 103.229 146.44 103.878 144.808L103.912 144.721L103.878 144.635C103.229 143.003 101.86 141.829 100.215 141.418C101.86 141.006 103.229 139.833 103.878 138.201L103.912 138.114L103.878 138.028C103.333 136.657 102.233 135.56 100.86 135.02L100.774 134.986L100.689 135.02C99.0472 135.666 97.868 137.038 97.455 138.689C97.0424 137.04 95.866 135.67 94.2285 135.022L94.143 134.989L94.0575 135.022C92.6812 135.562 91.5786 136.66 91.0324 138.034L90.9983 138.12L91.0324 138.206C91.6814 139.839 93.0507 141.012 94.6957 141.423C93.0507 141.835 91.6818 143.008 91.0324 144.641L90.9983 144.727L91.0324 144.813C91.6814 146.446 93.0507 147.619 94.6957 148.031C93.0507 148.442 91.6818 149.615 91.0324 151.248L90.9983 151.334L91.0324 151.421C91.6818 153.054 93.0531 154.228 94.6999 154.639C92.797 155.12 91.2959 156.622 90.8166 158.526L90.8171 158.526Z" fill="black"/>
<path d="M104.098 131.688C104.666 133.107 105.8 134.241 107.219 134.809C105.819 135.364 104.678 136.474 104.095 137.939C103.528 136.517 102.389 135.378 100.967 134.811C102.433 134.228 103.543 133.088 104.098 131.688ZM77.5366 131.693C78.0907 133.093 79.2012 134.233 80.6668 134.817C79.2003 135.4 78.0902 136.539 77.5361 137.941C76.9671 136.519 75.8304 135.384 74.4083 134.817C75.8309 134.25 76.9676 133.114 77.5366 131.693ZM97.4559 131.695C98.0109 133.092 99.1201 134.229 100.583 134.812C99.1196 135.394 98.0105 136.531 97.4554 137.929C96.9004 136.531 95.7913 135.394 94.328 134.812C95.7918 134.229 96.9009 133.093 97.4559 131.695ZM84.1782 131.695C84.7333 133.093 85.8419 134.229 87.3061 134.811C85.8424 135.394 84.7337 136.531 84.1782 137.929C83.6232 136.531 82.5141 135.394 81.0504 134.811C82.5141 134.229 83.6232 133.092 84.1782 131.695ZM90.8171 131.699C91.3721 133.097 92.4812 134.234 93.9449 134.817C92.5228 135.384 91.3838 136.522 90.8171 137.945C90.2504 136.522 89.1113 135.384 87.6892 134.817C89.1529 134.234 90.2616 133.097 90.8171 131.699ZM104.095 138.291C104.677 139.754 105.815 140.864 107.213 141.419C105.815 141.974 104.677 143.083 104.095 144.547C103.512 143.083 102.374 141.974 100.977 141.419C102.375 140.864 103.512 139.754 104.095 138.291ZM90.8171 138.296C91.3997 139.759 92.5378 140.869 93.9351 141.424C92.5373 141.979 91.3997 143.089 90.8171 144.552C90.2345 143.089 89.0964 141.979 87.699 141.424C89.0969 140.869 90.2345 139.759 90.8171 138.296ZM104.095 144.898C104.677 146.361 105.815 147.471 107.213 148.026C105.815 148.581 104.677 149.69 104.095 151.154C103.512 149.69 102.374 148.581 100.977 148.026C102.375 147.471 103.512 146.361 104.095 144.898ZM90.8171 144.903C91.4001 146.366 92.5373 147.476 93.9351 148.031C92.5373 148.586 91.3997 149.696 90.8171 151.159C90.2345 149.696 89.0964 148.586 87.699 148.031C89.0969 147.476 90.2345 146.366 90.8171 144.903ZM104.095 151.505C104.678 152.971 105.819 154.081 107.219 154.635C105.798 155.204 104.662 156.341 104.095 157.764C103.528 156.341 102.392 155.204 100.97 154.635C102.371 154.081 103.511 152.971 104.095 151.505ZM90.8171 151.51C91.4006 152.976 92.541 154.086 93.9417 154.64C92.52 155.209 91.3847 156.346 90.8171 157.769C90.2499 156.346 89.1142 155.209 87.6925 154.64C89.0931 154.086 90.2336 152.975 90.8171 151.51ZM104.167 129.616H104.022C104.022 131.783 102.676 133.636 100.775 134.385C98.8738 133.636 97.5279 131.783 97.5279 129.616H97.3835C97.3835 131.786 96.0342 133.64 94.1295 134.388C92.2317 133.637 90.889 131.786 90.889 129.622H90.7447C90.7447 131.786 89.4019 133.637 87.5042 134.388C85.599 133.64 84.2502 131.786 84.2502 129.616H84.1058C84.1058 131.786 82.7566 133.64 80.8518 134.388C78.9541 133.637 77.6114 131.786 77.6114 129.622H77.467C77.467 132.451 75.1731 134.745 72.3438 134.745V134.889C75.1731 134.889 77.467 137.183 77.467 140.013H77.6114C77.6114 137.843 78.9606 135.988 80.8654 135.241C82.7631 135.991 84.1058 137.842 84.1058 140.007H84.2502C84.2502 137.842 85.5929 135.991 87.4907 135.241C88.8091 135.758 89.8612 136.805 90.384 138.121C89.6313 140.014 87.7827 141.352 85.6214 141.352V141.497C87.7827 141.497 89.6313 142.835 90.384 144.728C89.6313 146.621 87.7827 147.96 85.6214 147.96V148.104C87.7827 148.104 89.6313 149.443 90.384 151.336C89.6313 153.229 87.7827 154.568 85.6214 154.568V154.712C88.4507 154.712 90.7447 157.006 90.7447 159.835H90.889C90.889 157.006 93.1829 154.712 96.0123 154.712V154.568C93.851 154.568 92.0023 153.229 91.2497 151.336C92.0023 149.443 93.851 148.104 96.0123 148.104V147.96C93.851 147.96 92.0023 146.621 91.2497 144.728C92.0023 142.835 93.851 141.497 96.0123 141.497V141.352C93.851 141.352 92.0023 140.014 91.2497 138.121C91.7725 136.806 92.8246 135.758 94.143 135.241C96.0408 135.991 97.3835 137.842 97.3835 140.007H97.5279C97.5279 137.84 98.8738 135.987 100.775 135.238C102.09 135.756 103.14 136.802 103.662 138.115C102.909 140.008 101.06 141.347 98.8991 141.347V141.491C101.06 141.491 102.909 142.83 103.662 144.723C102.909 146.616 101.06 147.954 98.8991 147.954V148.099C101.06 148.099 102.909 149.437 103.662 151.33C102.909 153.223 101.06 154.562 98.8991 154.562V154.706C101.728 154.706 104.022 157 104.022 159.83H104.167C104.167 157 106.461 154.706 109.29 154.706V154.562C107.129 154.562 105.28 153.223 104.527 151.33C105.28 149.437 107.129 148.099 109.29 148.099V147.954C107.129 147.954 105.28 146.616 104.527 144.723C105.28 142.83 107.129 141.491 109.29 141.491V141.347C107.129 141.347 105.28 140.008 104.527 138.115C105.28 136.222 107.129 134.884 109.29 134.884V134.739C106.461 134.739 104.167 132.445 104.167 129.616Z" fill="black"/>
<path d="M117.372 171.735C116.892 169.831 115.391 168.329 113.488 167.848C115.135 167.438 116.506 166.264 117.156 164.63L117.19 164.544L117.156 164.457C116.507 162.824 115.137 161.652 113.492 161.24C115.137 160.828 116.506 159.655 117.156 158.022L117.19 157.936L117.156 157.85C116.507 156.217 115.137 155.044 113.492 154.632C115.137 154.221 116.507 153.048 117.156 151.415L117.19 151.329L117.156 151.243C116.507 149.61 115.137 148.437 113.492 148.025C115.137 147.613 116.506 146.44 117.156 144.808L117.19 144.721L117.156 144.635C116.507 143.002 115.137 141.829 113.492 141.417C115.137 141.006 116.506 139.833 117.156 138.2L117.19 138.114L117.156 138.027C116.506 136.394 115.135 135.22 113.488 134.809C115.391 134.328 116.892 132.826 117.372 130.922C117.851 132.826 119.352 134.328 121.255 134.809C119.608 135.22 118.237 136.393 117.587 138.027L117.553 138.114L117.587 138.2C118.236 139.833 119.606 141.006 121.251 141.418C119.606 141.829 118.237 143.003 117.587 144.635L117.553 144.721L117.587 144.808C118.225 146.412 119.591 147.606 121.257 148.025C119.592 148.444 118.225 149.64 117.587 151.243L117.553 151.329L117.587 151.415C118.236 153.048 119.606 154.221 121.251 154.632C119.606 155.044 118.237 156.217 117.587 157.85L117.553 157.936L117.587 158.022C118.236 159.655 119.606 160.828 121.251 161.24C119.606 161.651 118.237 162.824 117.587 164.457L117.553 164.544L117.587 164.63C118.237 166.264 119.608 167.438 121.255 167.848C119.352 168.329 117.851 169.831 117.372 171.735ZM125.473 151.926C124.996 150.049 123.512 148.515 121.589 148.031C123.542 147.542 125.006 146.035 125.476 144.149C125.958 146.051 127.46 147.552 129.363 148.031C127.456 148.511 125.951 150.017 125.474 151.926H125.473Z" fill="black"/>
<path d="M117.372 131.681C117.939 133.103 119.075 134.24 120.497 134.809C119.096 135.364 117.955 136.474 117.372 137.939C116.788 136.474 115.648 135.363 114.247 134.809C115.669 134.24 116.804 133.103 117.372 131.681ZM117.372 138.291C117.955 139.754 119.093 140.864 120.49 141.419C119.092 141.974 117.955 143.083 117.372 144.547C116.789 143.083 115.651 141.974 114.254 141.419C115.652 140.864 116.789 139.754 117.372 138.291ZM117.372 144.898C117.946 146.339 119.083 147.463 120.499 148.026C119.084 148.589 117.946 149.714 117.372 151.154C116.789 149.69 115.651 148.581 114.254 148.026C115.652 147.471 116.789 146.361 117.372 144.898ZM125.478 144.908C126.047 146.329 127.184 147.464 128.606 148.031C127.184 148.598 126.048 149.733 125.479 151.153C124.921 149.74 123.802 148.603 122.353 148.031C123.801 147.459 124.92 146.321 125.478 144.908ZM117.372 151.505C117.955 152.968 119.093 154.078 120.49 154.633C119.092 155.188 117.955 156.298 117.372 157.761C116.789 156.298 115.651 155.188 114.254 154.633C115.652 154.078 116.789 152.968 117.372 151.505ZM117.372 158.112C117.955 159.575 119.093 160.685 120.49 161.24C119.092 161.795 117.955 162.905 117.372 164.368C116.789 162.905 115.651 161.795 114.254 161.24C115.652 160.685 116.789 159.575 117.372 158.112ZM117.372 164.72C117.955 166.185 119.096 167.296 120.497 167.85C119.075 168.419 117.94 169.556 117.372 170.978C116.805 169.556 115.67 168.419 114.247 167.85C115.648 167.295 116.788 166.185 117.372 164.72ZM117.444 129.616H117.3C117.3 132.445 115.006 134.739 112.177 134.739V134.884C114.338 134.884 116.187 136.222 116.939 138.115C116.187 140.008 114.338 141.347 112.177 141.347V141.491C114.338 141.491 116.187 142.83 116.939 144.723C116.187 146.616 114.338 147.954 112.177 147.954V148.099C114.338 148.099 116.187 149.437 116.939 151.33C116.187 153.223 114.338 154.562 112.177 154.562V154.706C114.338 154.706 116.187 156.045 116.939 157.938C116.187 159.831 114.338 161.169 112.177 161.169V161.314C114.338 161.314 116.187 162.652 116.939 164.545C116.187 166.438 114.338 167.777 112.177 167.777V167.921C115.006 167.921 117.3 170.215 117.3 173.045H117.444C117.444 170.215 119.738 167.921 122.568 167.921V167.777C120.406 167.777 118.558 166.438 117.805 164.545C118.558 162.652 120.406 161.314 122.568 161.314V161.169C120.406 161.169 118.558 159.831 117.805 157.938C118.558 156.045 120.406 154.706 122.568 154.706V154.562C120.406 154.562 118.558 153.223 117.805 151.33C118.419 149.785 119.763 148.61 121.411 148.23C123.696 148.745 125.403 150.787 125.403 153.228H125.547C125.547 150.398 127.841 148.104 130.671 148.104V147.96C127.841 147.96 125.547 145.666 125.547 142.837H125.403C125.403 145.268 123.709 147.305 121.436 147.829C119.776 147.455 118.422 146.275 117.805 144.723C118.557 142.83 120.406 141.491 122.567 141.491V141.347C120.406 141.347 118.557 140.008 117.805 138.115C118.557 136.222 120.406 134.884 122.567 134.884V134.739C119.738 134.739 117.444 132.445 117.444 129.616H117.444Z" fill="black"/>
<path d="M180.181 173.143C179.771 171.498 178.599 170.128 176.968 169.477L176.882 169.443L176.796 169.477C175.166 170.127 173.995 171.495 173.584 173.138C173.171 171.49 171.995 170.119 170.357 169.471L170.271 169.437L170.186 169.471C168.54 170.116 167.358 171.489 166.945 173.142C166.531 171.489 165.349 170.116 163.704 169.471L163.618 169.437L163.533 169.471C161.895 170.119 160.719 171.489 160.306 173.137C159.893 171.487 158.714 170.115 157.073 169.468L156.987 169.435L156.902 169.468C155.26 170.114 154.081 171.487 153.668 173.137C153.255 171.489 152.079 170.119 150.441 169.471L150.356 169.437L150.27 169.471C148.625 170.116 147.443 171.489 147.029 173.142C146.616 171.489 145.434 170.116 143.788 169.471L143.703 169.437L143.617 169.471C141.978 170.119 140.801 171.492 140.39 173.142C139.908 171.239 138.407 169.738 136.503 169.259C138.406 168.78 139.908 167.279 140.389 165.377C140.802 167.032 141.984 168.407 143.631 169.052L143.717 169.086L143.802 169.052C145.44 168.405 146.617 167.034 147.029 165.386C147.441 167.035 148.618 168.405 150.255 169.052L150.341 169.086L150.426 169.052C152.072 168.407 153.254 167.035 153.667 165.381C154.08 167.032 155.259 168.403 156.901 169.05L156.987 169.083L157.072 169.05C158.445 168.509 159.545 167.413 160.09 166.041L160.124 165.955L160.09 165.868C159.441 164.236 158.071 163.063 156.427 162.651C158.309 162.18 159.817 160.714 160.306 158.765C160.795 160.714 162.303 162.18 164.185 162.651C162.54 163.063 161.171 164.236 160.522 165.868L160.488 165.955L160.522 166.041C161.068 167.415 162.171 168.513 163.547 169.052L163.632 169.086L163.718 169.052C165.355 168.405 166.532 167.034 166.944 165.386C167.357 167.035 168.533 168.405 170.171 169.052L170.256 169.086L170.342 169.052C171.988 168.407 173.17 167.034 173.583 165.38C173.995 167.023 175.166 168.391 176.795 169.041L176.881 169.075L176.968 169.041C178.599 168.39 179.77 167.02 180.18 165.375C180.661 167.278 182.163 168.779 184.067 169.258C182.163 169.738 180.661 171.239 180.18 173.142L180.181 173.143ZM147.027 158.521C146.546 156.619 145.047 155.12 143.145 154.639C144.792 154.229 146.163 153.055 146.813 151.421L146.847 151.335L146.813 151.248C146.164 149.616 144.794 148.443 143.149 148.031C144.794 147.619 146.164 146.446 146.813 144.814L146.847 144.727L146.813 144.641C146.164 143.008 144.794 141.836 143.149 141.424C144.794 141.012 146.163 139.839 146.813 138.206L146.847 138.12L146.813 138.034C146.163 136.4 144.792 135.226 143.145 134.815C145.047 134.334 146.547 132.835 147.027 130.933C147.438 132.583 148.615 133.956 150.255 134.604L150.34 134.638L150.426 134.604C152.071 133.959 153.253 132.587 153.667 130.933C154.08 132.584 155.259 133.955 156.901 134.602L156.986 134.635L157.072 134.602C158.713 133.955 159.893 132.584 160.306 130.933C160.719 132.587 161.901 133.959 163.546 134.604L163.632 134.638L163.717 134.604C165.355 133.957 166.532 132.586 166.944 130.938C167.356 132.587 168.533 133.957 170.17 134.604L170.256 134.638L170.341 134.604C171.989 133.959 173.171 132.584 173.584 130.928C174.064 132.829 175.564 134.329 177.466 134.809C175.819 135.22 174.448 136.394 173.798 138.028L173.764 138.114L173.798 138.201C174.447 139.834 175.816 141.006 177.461 141.418C175.816 141.829 174.448 143.003 173.798 144.635L173.764 144.722L173.798 144.808C174.447 146.441 175.816 147.614 177.461 148.025C175.816 148.437 174.448 149.61 173.798 151.243L173.764 151.329L173.798 151.416C174.448 153.05 175.819 154.224 177.466 154.634C175.564 155.115 174.064 156.615 173.583 158.516C173.172 156.866 171.995 155.494 170.355 154.845L170.27 154.811L170.184 154.845C168.539 155.49 167.357 156.863 166.943 158.516C166.53 156.863 165.348 155.49 163.703 154.845L163.617 154.811L163.532 154.845C161.926 155.48 160.724 156.85 160.305 158.52C159.885 156.847 158.681 155.476 157.071 154.842L156.986 154.809L156.9 154.842C155.258 155.488 154.079 156.861 153.666 158.511C153.254 156.863 152.077 155.493 150.44 154.845L150.354 154.811L150.269 154.845C148.621 155.491 147.439 156.866 147.026 158.521L147.027 158.521ZM166.944 150.76C167.357 152.408 168.533 153.778 170.171 154.426L170.256 154.46L170.342 154.426C171.718 153.886 172.821 152.789 173.367 151.415L173.401 151.328L173.367 151.242C172.718 149.609 171.349 148.437 169.704 148.024C171.349 147.613 172.717 146.44 173.367 144.807L173.401 144.721L173.367 144.635C172.718 143.002 171.349 141.829 169.704 141.417C171.349 141.005 172.717 139.832 173.367 138.2L173.401 138.113L173.367 138.027C172.823 136.659 171.726 135.563 170.356 135.022L170.271 134.988L170.185 135.022C168.54 135.667 167.358 137.039 166.944 138.692C166.531 137.039 165.349 135.666 163.703 135.022L163.618 134.988L163.532 135.022C161.895 135.669 160.719 137.039 160.306 138.688C159.893 137.037 158.714 135.665 157.072 135.019L156.987 134.985L156.901 135.019C155.259 135.665 154.08 137.037 153.667 138.688C153.255 137.039 152.078 135.669 150.441 135.022L150.355 134.988L150.27 135.022C148.893 135.561 147.791 136.659 147.245 138.033L147.211 138.119L147.245 138.205C147.894 139.838 149.263 141.011 150.908 141.423C149.263 141.834 147.894 143.007 147.245 144.64L147.211 144.727L147.245 144.813C147.894 146.445 149.263 147.618 150.908 148.03C149.263 148.442 147.894 149.615 147.245 151.247L147.211 151.334L147.245 151.42C147.789 152.788 148.886 153.884 150.256 154.425L150.341 154.459L150.427 154.425C152.072 153.78 153.254 152.408 153.668 150.754C154.081 152.405 155.26 153.777 156.902 154.423L156.987 154.456L157.073 154.423C158.714 153.777 159.893 152.405 160.306 150.754C160.72 152.408 161.902 153.78 163.547 154.425L163.633 154.459L163.718 154.425C165.356 153.778 166.533 152.407 166.945 150.759L166.944 150.76Z" fill="black"/>
<path d="M173.586 131.688C174.154 133.107 175.288 134.241 176.708 134.809C175.307 135.364 174.167 136.474 173.583 137.939C173.017 136.517 171.877 135.378 170.455 134.811C171.922 134.228 173.032 133.089 173.586 131.688M147.026 131.693C147.58 133.093 148.69 134.233 150.156 134.817C148.734 135.384 147.595 136.522 147.028 137.945C146.444 136.479 145.304 135.369 143.903 134.815C145.323 134.246 146.457 133.113 147.025 131.693M153.667 131.695C154.222 133.092 155.331 134.229 156.795 134.812C155.331 135.394 154.222 136.531 153.667 137.929C153.112 136.531 152.003 135.394 150.539 134.812C152.003 134.229 153.112 133.093 153.667 131.695ZM160.306 131.695C160.861 133.093 161.969 134.229 163.433 134.812C161.97 135.394 160.861 136.531 160.306 137.929C159.751 136.531 158.642 135.394 157.178 134.812C158.641 134.229 159.751 133.093 160.306 131.695ZM166.944 131.699C167.499 133.097 168.609 134.234 170.072 134.817C168.609 135.399 167.499 136.536 166.944 137.933C166.389 136.535 165.281 135.399 163.817 134.817C165.28 134.234 166.389 133.097 166.944 131.699ZM173.583 138.291C174.166 139.754 175.304 140.864 176.701 141.419C175.303 141.974 174.166 143.083 173.583 144.547C173.001 143.083 171.863 141.974 170.465 141.419C171.863 140.864 173.001 139.754 173.583 138.291ZM147.028 138.296C147.611 139.759 148.749 140.869 150.146 141.424C148.749 141.979 147.611 143.089 147.028 144.552C146.446 143.089 145.308 141.979 143.91 141.424C145.308 140.869 146.446 139.759 147.028 138.296ZM173.583 144.898C174.166 146.361 175.304 147.471 176.701 148.026C175.303 148.581 174.166 149.69 173.583 151.154C173.001 149.69 171.863 148.581 170.465 148.026C171.863 147.471 173.001 146.361 173.583 144.898ZM147.028 144.903C147.611 146.366 148.749 147.476 150.146 148.031C148.749 148.586 147.611 149.696 147.028 151.159C146.446 149.696 145.308 148.586 143.91 148.031C145.308 147.476 146.446 146.366 147.028 144.903ZM173.583 151.505C174.167 152.971 175.307 154.081 176.708 154.635C175.288 155.203 174.154 156.337 173.586 157.757C173.032 156.356 171.921 155.216 170.456 154.633C171.878 154.066 173.017 152.928 173.584 151.505M147.028 151.511C147.595 152.933 148.734 154.072 150.156 154.639C148.69 155.222 147.58 156.361 147.026 157.762C146.457 156.343 145.324 155.209 143.904 154.641C145.304 154.087 146.445 152.977 147.028 151.511M153.667 151.516C154.222 152.914 155.331 154.05 156.795 154.633C155.331 155.216 154.222 156.352 153.667 157.75C153.112 156.352 152.003 155.216 150.539 154.633C152.003 154.05 153.112 152.914 153.667 151.516ZM160.306 151.516C160.861 152.914 161.969 154.05 163.433 154.633C161.995 155.206 160.869 156.345 160.306 157.761C159.743 156.345 158.617 155.206 157.178 154.633C158.641 154.05 159.751 152.914 160.306 151.516ZM166.944 151.521C167.499 152.919 168.609 154.055 170.072 154.639C168.609 155.221 167.499 156.357 166.944 157.755C166.389 156.357 165.281 155.221 163.817 154.639C165.28 154.056 166.389 152.919 166.944 151.521ZM160.306 159.528C160.877 160.974 162.015 162.092 163.424 162.652C162.026 163.207 160.889 164.316 160.306 165.78C159.722 164.316 158.585 163.207 157.187 162.652C158.597 162.092 159.734 160.973 160.306 159.528ZM160.306 166.132C160.872 167.555 162.011 168.693 163.433 169.259C161.97 169.842 160.861 170.979 160.306 172.376C159.751 170.979 158.642 169.842 157.178 169.259C158.6 168.693 159.739 167.554 160.306 166.132ZM180.183 166.134C180.752 167.556 181.889 168.692 183.311 169.259C181.889 169.826 180.752 170.962 180.183 172.384C179.629 170.984 178.519 169.844 177.055 169.26L177.052 169.259L177.055 169.258C178.519 168.674 179.629 167.534 180.183 166.134ZM140.387 166.136C140.941 167.537 142.051 168.675 143.517 169.259C142.051 169.843 140.941 170.983 140.387 172.384C139.818 170.962 138.681 169.827 137.259 169.259C138.681 168.692 139.818 167.557 140.387 166.136M173.584 166.142C174.139 167.538 175.247 168.675 176.709 169.258L176.712 169.259L176.709 169.26C175.247 169.843 174.139 170.98 173.584 172.377C173.029 170.979 171.92 169.842 170.456 169.259C171.92 168.676 173.029 167.54 173.584 166.141M153.667 166.143C154.222 167.54 155.331 168.676 156.795 169.259C155.331 169.842 154.222 170.979 153.667 172.376C153.112 170.979 152.003 169.842 150.539 169.259C152.003 168.677 153.112 167.541 153.667 166.143ZM166.944 166.147C167.499 167.545 168.609 168.682 170.072 169.265C168.609 169.848 167.499 170.984 166.944 172.381C166.389 170.983 165.281 169.848 163.817 169.265C165.28 168.682 166.389 167.545 166.944 166.147ZM147.028 166.147C147.583 167.545 148.693 168.682 150.156 169.265C148.693 169.848 147.583 170.984 147.028 172.381C146.473 170.983 145.365 169.848 143.9 169.265C145.364 168.682 146.473 167.545 147.028 166.147ZM173.656 129.616H173.511C173.511 131.786 172.162 133.64 170.257 134.388C168.36 133.637 167.017 131.786 167.017 129.622H166.872C166.872 131.786 165.53 133.637 163.632 134.388C161.727 133.64 160.378 131.786 160.378 129.616H160.234C160.234 131.783 158.888 133.636 156.987 134.385C155.085 133.636 153.739 131.783 153.739 129.616H153.595C153.595 131.786 152.246 133.64 150.341 134.388C148.443 133.637 147.1 131.786 147.1 129.622H146.956C146.956 132.451 144.662 134.745 141.833 134.745V134.889C143.994 134.889 145.843 136.228 146.595 138.121C145.843 140.014 143.994 141.352 141.833 141.352V141.497C143.994 141.497 145.843 142.835 146.595 144.728C145.843 146.621 143.994 147.96 141.833 147.96V148.104C143.994 148.104 145.843 149.443 146.595 151.336C145.843 153.229 143.994 154.568 141.833 154.568V154.712C144.662 154.712 146.956 157.006 146.956 159.835H147.1C147.1 157.665 148.45 155.811 150.354 155.064C152.252 155.814 153.595 157.665 153.595 159.83H153.739C153.739 157.662 155.085 155.809 156.987 155.061C158.53 155.669 159.707 157.003 160.096 158.644C159.561 160.901 157.532 162.581 155.111 162.581V162.726C157.272 162.726 159.121 164.064 159.873 165.957C159.352 167.271 158.302 168.317 156.987 168.834C155.086 168.086 153.74 166.233 153.74 164.066H153.595C153.595 166.235 152.246 168.09 150.341 168.837C148.443 168.087 147.101 166.236 147.101 164.071H146.956C146.956 166.236 145.614 168.087 143.716 168.837C141.811 168.09 140.462 166.236 140.462 164.066H140.318C140.318 166.895 138.024 169.189 135.194 169.189V169.333C138.024 169.333 140.318 171.627 140.318 174.456H140.462C140.462 172.292 141.805 170.441 143.702 169.691C145.608 170.438 146.956 172.292 146.956 174.462H147.101C147.101 172.292 148.45 170.438 150.355 169.691C152.253 170.441 153.595 172.292 153.595 174.456H153.74C153.74 172.289 155.086 170.436 156.987 169.688C158.889 170.436 160.234 172.289 160.234 174.456H160.378C160.378 172.292 161.721 170.441 163.619 169.691C165.524 170.438 166.873 172.292 166.873 174.462H167.017C167.017 172.292 168.367 170.438 170.271 169.691C172.169 170.441 173.512 172.292 173.512 174.456H173.656C173.656 172.297 174.992 170.45 176.883 169.696C178.773 170.45 180.109 172.297 180.109 174.456H180.253C180.253 171.627 182.547 169.333 185.377 169.333V169.189C182.547 169.189 180.253 166.895 180.253 164.066H180.109C180.109 166.225 178.773 168.072 176.883 168.826C174.992 168.072 173.656 166.225 173.656 164.066H173.512C173.512 166.235 172.162 168.09 170.258 168.837C168.36 168.087 167.017 166.236 167.017 164.071H166.873C166.873 166.236 165.53 168.087 163.632 168.837C162.314 168.32 161.262 167.273 160.739 165.957C161.492 164.064 163.34 162.726 165.502 162.726V162.581C163.08 162.581 161.052 160.902 160.517 158.644C160.905 157.006 162.079 155.672 163.619 155.064C165.524 155.811 166.873 157.665 166.873 159.835H167.017C167.017 157.665 168.367 155.811 170.271 155.064C172.169 155.814 173.512 157.665 173.512 159.83H173.656C173.656 157 175.95 154.706 178.779 154.706V154.562C176.618 154.562 174.769 153.223 174.017 151.33C174.769 149.437 176.618 148.099 178.779 148.099V147.954C176.618 147.954 174.769 146.616 174.017 144.723C174.769 142.83 176.618 141.491 178.779 141.491V141.347C176.618 141.347 174.769 140.008 174.017 138.115C174.769 136.222 176.618 134.884 178.779 134.884V134.739C175.95 134.739 173.656 132.445 173.656 129.616H173.656ZM153.595 140.007H153.739C153.739 137.84 155.085 135.987 156.987 135.238C158.888 135.987 160.234 137.84 160.234 140.007H160.378C160.378 137.842 161.721 135.991 163.618 135.241C165.524 135.988 166.872 137.842 166.872 140.013H167.017C167.017 137.843 168.366 135.988 170.271 135.241C171.583 135.76 172.629 136.805 173.151 138.115C172.398 140.008 170.549 141.347 168.388 141.347V141.491C170.549 141.491 172.398 142.83 173.151 144.723C172.398 146.616 170.549 147.954 168.388 147.954V148.099C170.549 148.099 172.398 149.437 173.151 151.33C172.628 152.645 171.576 153.693 170.257 154.21C168.36 153.46 167.017 151.609 167.017 149.444H166.872C166.872 151.609 165.53 153.46 163.632 154.21C161.727 153.463 160.378 151.609 160.378 149.439H160.234C160.234 151.606 158.888 153.459 156.987 154.207C155.085 153.459 153.739 151.606 153.739 149.439H153.595C153.595 151.608 152.246 153.463 150.341 154.21C149.029 153.692 147.982 152.646 147.461 151.336C148.214 149.443 150.062 148.104 152.224 148.104V147.96C150.062 147.96 148.214 146.621 147.461 144.728C148.214 142.835 150.062 141.497 152.224 141.497V141.352C150.062 141.352 148.214 140.014 147.461 138.121C147.984 136.806 149.036 135.758 150.354 135.241C152.252 135.991 153.595 137.842 153.595 140.007Z" fill="black"/>
<path d="M208.416 158.526C207.936 156.622 206.436 155.121 204.532 154.639C206.179 154.229 207.55 153.055 208.2 151.421L208.234 151.335L208.2 151.248C207.551 149.616 206.182 148.443 204.537 148.031C206.182 147.619 207.551 146.446 208.2 144.814L208.234 144.727L208.2 144.641C207.551 143.009 206.182 141.836 204.537 141.424C206.182 141.012 207.55 139.839 208.2 138.207L208.234 138.12L208.2 138.034C207.654 136.66 206.551 135.563 205.175 135.023L205.089 134.989L205.004 135.023C203.366 135.67 202.189 137.041 201.777 138.689C201.365 137.041 200.188 135.67 198.55 135.023L198.465 134.989L198.379 135.023C196.732 135.669 195.55 137.044 195.137 138.699C194.656 136.796 193.154 135.296 191.251 134.816C193.154 134.337 194.656 132.836 195.138 130.934C195.549 132.584 196.726 133.956 198.365 134.604L198.451 134.638L198.536 134.604C200.182 133.959 201.364 132.587 201.777 130.934C202.191 132.587 203.373 133.96 205.018 134.604L205.104 134.638L205.189 134.604C206.827 133.957 208.004 132.586 208.416 130.938C208.828 132.587 210.005 133.957 211.642 134.604L211.728 134.638L211.813 134.604C213.459 133.959 214.641 132.587 215.054 130.933C215.467 132.584 216.646 133.955 218.288 134.602L218.373 134.635L218.459 134.602C220.102 133.954 221.282 132.581 221.694 130.928C222.175 132.829 223.674 134.329 225.576 134.809C223.929 135.22 222.558 136.394 221.908 138.028L221.874 138.114L221.908 138.201C222.557 139.833 223.927 141.006 225.572 141.418C223.927 141.829 222.558 143.003 221.908 144.635L221.874 144.721L221.908 144.808C222.557 146.44 223.927 147.613 225.572 148.025C223.927 148.437 222.558 149.61 221.908 151.242L221.874 151.328L221.908 151.415C222.558 153.049 223.929 154.223 225.576 154.633C223.673 155.114 222.172 156.616 221.692 158.52C221.213 156.617 219.712 155.115 217.809 154.633C219.455 154.223 220.827 153.049 221.477 151.415L221.511 151.328L221.477 151.242C220.828 149.61 219.458 148.437 217.813 148.025C219.458 147.613 220.827 146.44 221.477 144.808L221.511 144.721L221.477 144.635C220.828 143.003 219.458 141.829 217.813 141.418C219.458 141.006 220.827 139.833 221.477 138.201L221.511 138.114L221.477 138.028C220.931 136.657 219.832 135.56 218.458 135.02L218.373 134.986L218.288 135.02C216.646 135.666 215.467 137.038 215.054 138.689C214.641 137.04 213.465 135.67 211.827 135.022L211.742 134.989L211.656 135.022C210.28 135.562 209.177 136.66 208.631 138.034L208.597 138.12L208.631 138.206C209.28 139.839 210.649 141.012 212.294 141.423C210.649 141.835 209.28 143.008 208.631 144.641L208.597 144.727L208.631 144.813C209.28 146.446 210.649 147.619 212.294 148.031C210.649 148.442 209.28 149.615 208.631 151.248L208.597 151.334L208.631 151.421C209.28 153.054 210.652 154.228 212.299 154.639C210.396 155.12 208.895 156.622 208.415 158.526L208.416 158.526Z" fill="black"/>
<path d="M221.696 131.688C222.264 133.107 223.398 134.241 224.817 134.809C223.417 135.364 222.276 136.474 221.693 137.939C221.126 136.517 219.987 135.378 218.566 134.811C220.032 134.228 221.142 133.088 221.696 131.688ZM195.135 131.693C195.689 133.093 196.8 134.233 198.265 134.817C196.799 135.4 195.689 136.539 195.135 137.941C194.566 136.519 193.429 135.384 192.007 134.817C193.43 134.25 194.566 133.114 195.135 131.693ZM215.055 131.695C215.61 133.092 216.719 134.229 218.182 134.812C216.718 135.394 215.609 136.531 215.054 137.929C214.499 136.531 213.39 135.394 211.927 134.812C213.39 134.229 214.5 133.093 215.055 131.695ZM201.777 131.695C202.332 133.093 203.441 134.229 204.905 134.811C203.441 135.394 202.332 136.531 201.777 137.929C201.222 136.531 200.113 135.394 198.649 134.811C200.113 134.229 201.222 133.092 201.777 131.695ZM208.416 131.699C208.971 133.097 210.08 134.234 211.544 134.817C210.121 135.384 208.982 136.522 208.416 137.945C207.849 136.522 206.71 135.384 205.288 134.817C206.752 134.234 207.86 133.097 208.416 131.699ZM221.693 138.291C222.276 139.754 223.414 140.864 224.811 141.419C223.414 141.974 222.276 143.083 221.693 144.547C221.111 143.083 219.973 141.974 218.575 141.419C219.973 140.864 221.111 139.754 221.693 138.291ZM208.416 138.296C208.998 139.759 210.136 140.869 211.534 141.424C210.136 141.979 208.998 143.089 208.416 144.552C207.833 143.089 206.695 141.979 205.298 141.424C206.695 140.869 207.833 139.759 208.416 138.296ZM221.693 144.898C222.276 146.361 223.414 147.471 224.811 148.026C223.414 148.581 222.276 149.69 221.693 151.154C221.111 149.69 219.973 148.581 218.575 148.026C219.973 147.471 221.111 146.361 221.693 144.898ZM208.416 144.903C208.998 146.366 210.136 147.476 211.534 148.031C210.136 148.586 208.998 149.696 208.416 151.159C207.833 149.696 206.695 148.586 205.298 148.031C206.695 147.476 207.833 146.366 208.416 144.903ZM221.693 151.505C222.277 152.971 223.417 154.081 224.818 154.635C223.396 155.204 222.261 156.341 221.693 157.764C221.126 156.341 219.99 155.204 218.569 154.635C219.969 154.081 221.109 152.971 221.693 151.505ZM208.416 151.51C208.999 152.976 210.14 154.086 211.54 154.64C210.119 155.209 208.983 156.346 208.416 157.769C207.849 156.346 206.713 155.209 205.291 154.64C206.692 154.086 207.832 152.976 208.416 151.51ZM221.765 129.616H221.621C221.621 131.783 220.275 133.636 218.373 134.385C216.472 133.636 215.126 131.783 215.126 129.616H214.982C214.982 131.786 213.633 133.64 211.728 134.388C209.83 133.637 208.488 131.786 208.488 129.622H208.343C208.343 131.786 207.001 133.637 205.103 134.388C203.198 133.64 201.849 131.786 201.849 129.616H201.704C201.704 131.786 200.355 133.64 198.45 134.388C196.553 133.637 195.21 131.786 195.21 129.622H195.066C195.066 132.451 192.772 134.745 189.942 134.745V134.889C192.772 134.889 195.066 137.183 195.066 140.013H195.21C195.21 137.843 196.559 135.988 198.464 135.241C200.362 135.991 201.704 137.842 201.704 140.007H201.849C201.849 137.842 203.192 135.991 205.089 135.241C206.408 135.758 207.46 136.805 207.983 138.121C207.23 140.014 205.381 141.352 203.22 141.352V141.497C205.381 141.497 207.23 142.835 207.983 144.728C207.23 146.621 205.381 147.96 203.22 147.96V148.104C205.381 148.104 207.23 149.443 207.983 151.336C207.23 153.229 205.381 154.568 203.22 154.568V154.712C206.049 154.712 208.343 157.006 208.343 159.835H208.488C208.488 157.006 210.782 154.712 213.611 154.712V154.568C211.45 154.568 209.601 153.229 208.848 151.336C209.601 149.443 211.45 148.104 213.611 148.104V147.96C211.45 147.96 209.601 146.621 208.848 144.728C209.601 142.835 211.45 141.497 213.611 141.497V141.352C211.45 141.352 209.601 140.014 208.848 138.121C209.371 136.806 210.423 135.758 211.742 135.241C213.639 135.991 214.982 137.842 214.982 140.007H215.126C215.126 137.84 216.472 135.987 218.373 135.238C219.689 135.756 220.738 136.802 221.26 138.115C220.507 140.008 218.658 141.347 216.497 141.347V141.491C218.658 141.491 220.507 142.83 221.26 144.723C220.507 146.616 218.658 147.954 216.497 147.954V148.099C218.658 148.099 220.507 149.437 221.26 151.33C220.507 153.223 218.658 154.562 216.497 154.562V154.706C219.327 154.706 221.62 157 221.62 159.83H221.765C221.765 157 224.059 154.706 226.888 154.706V154.562C224.727 154.562 222.878 153.223 222.126 151.33C222.878 149.437 224.727 148.099 226.888 148.099V147.954C224.727 147.954 222.878 146.616 222.126 144.723C222.878 142.83 224.727 141.491 226.888 141.491V141.347C224.727 141.347 222.878 140.008 222.126 138.115C222.878 136.222 224.727 134.884 226.888 134.884V134.739C224.059 134.739 221.765 132.445 221.765 129.616H221.765Z" fill="black"/>
<path d="M234.97 171.735C234.491 169.831 232.99 168.329 231.087 167.848C232.734 167.438 234.105 166.264 234.754 164.63L234.788 164.544L234.754 164.457C234.105 162.824 232.736 161.652 231.091 161.24C232.736 160.828 234.105 159.655 234.754 158.022L234.788 157.936L234.754 157.85C234.105 156.217 232.736 155.044 231.091 154.633C232.736 154.221 234.105 153.048 234.754 151.415L234.788 151.329L234.754 151.243C234.105 149.61 232.736 148.437 231.091 148.025C232.736 147.613 234.105 146.44 234.754 144.808L234.788 144.721L234.754 144.635C234.105 143.003 232.736 141.83 231.091 141.418C232.736 141.006 234.105 139.833 234.754 138.201L234.788 138.114L234.754 138.028C234.105 136.394 232.734 135.22 231.087 134.809C232.99 134.329 234.491 132.827 234.97 130.923C235.45 132.827 236.951 134.329 238.854 134.809C237.207 135.22 235.835 136.394 235.186 138.028L235.152 138.114L235.186 138.201C235.835 139.834 237.204 141.006 238.849 141.418C237.204 141.83 235.835 143.003 235.186 144.635L235.152 144.722L235.186 144.808C235.824 146.413 237.19 147.607 238.856 148.025C237.19 148.444 235.823 149.64 235.186 151.243L235.152 151.329L235.186 151.416C235.835 153.048 237.204 154.221 238.849 154.633C237.204 155.045 235.835 156.218 235.186 157.85L235.152 157.936L235.186 158.023C235.835 159.656 237.204 160.828 238.849 161.24C237.204 161.652 235.835 162.825 235.186 164.458L235.152 164.544L235.186 164.63C235.835 166.264 237.207 167.438 238.854 167.849C236.951 168.33 235.45 169.832 234.97 171.736V171.735ZM243.072 151.926C242.594 150.05 241.111 148.516 239.188 148.032C241.14 147.542 242.606 146.035 243.075 144.149C243.556 146.051 245.058 147.552 246.961 148.031C245.054 148.511 243.55 150.017 243.072 151.926V151.926Z" fill="black"/>
<path d="M234.971 131.681C235.538 133.103 236.674 134.24 238.095 134.809C236.695 135.364 235.554 136.474 234.971 137.939C234.387 136.474 233.247 135.363 231.846 134.809C233.268 134.24 234.403 133.103 234.971 131.681ZM234.971 138.29C235.553 139.754 236.691 140.863 238.089 141.418C236.691 141.973 235.553 143.083 234.971 144.546C234.388 143.083 233.25 141.973 231.853 141.418C233.25 140.863 234.388 139.754 234.971 138.29ZM234.971 144.898C235.545 146.339 236.682 147.463 238.098 148.026C236.682 148.589 235.544 149.714 234.971 151.154C234.388 149.69 233.25 148.581 231.853 148.026C233.25 147.471 234.388 146.361 234.971 144.898ZM243.077 144.908C243.646 146.329 244.783 147.464 246.205 148.031C244.783 148.598 243.647 149.733 243.077 151.153C242.52 149.74 241.401 148.603 239.951 148.031C241.4 147.459 242.519 146.321 243.077 144.908ZM234.971 151.505C235.553 152.968 236.691 154.078 238.089 154.633C236.691 155.188 235.553 156.298 234.971 157.761C234.388 156.298 233.25 155.188 231.853 154.633C233.25 154.078 234.388 152.968 234.971 151.505ZM234.971 158.112C235.553 159.575 236.691 160.685 238.089 161.24C236.691 161.795 235.553 162.905 234.971 164.368C234.388 162.905 233.25 161.795 231.853 161.24C233.25 160.685 234.388 159.575 234.971 158.112ZM234.971 164.72C235.554 166.185 236.695 167.296 238.095 167.85C236.674 168.419 235.538 169.556 234.971 170.978C234.403 169.556 233.268 168.419 231.846 167.85C233.247 167.295 234.387 166.185 234.971 164.72ZM235.043 129.616H234.899C234.899 132.445 232.605 134.739 229.775 134.739V134.884C231.937 134.884 233.785 136.222 234.538 138.115C233.785 140.008 231.937 141.347 229.775 141.347V141.491C231.937 141.491 233.785 142.83 234.538 144.723C233.785 146.616 231.937 147.954 229.775 147.954V148.099C231.937 148.099 233.785 149.437 234.538 151.33C233.785 153.223 231.937 154.562 229.775 154.562V154.706C231.937 154.706 233.785 156.045 234.538 157.938C233.785 159.831 231.937 161.169 229.775 161.169V161.314C231.937 161.314 233.785 162.652 234.538 164.545C233.785 166.438 231.937 167.777 229.775 167.777V167.921C232.605 167.921 234.899 170.215 234.899 173.045H235.043C235.043 170.215 237.337 167.921 240.166 167.921V167.777C238.005 167.777 236.156 166.438 235.404 164.545C236.156 162.652 238.005 161.314 240.166 161.314V161.169C238.005 161.169 236.156 159.831 235.404 157.938C236.156 156.045 238.005 154.706 240.166 154.706V154.562C238.005 154.562 236.156 153.223 235.404 151.33C236.018 149.785 237.362 148.61 239.01 148.23C241.295 148.745 243.002 150.787 243.002 153.228H243.146C243.146 150.398 245.44 148.104 248.269 148.104V147.96C245.44 147.96 243.146 145.666 243.146 142.837H243.002C243.002 145.268 241.307 147.305 239.034 147.829C237.375 147.455 236.02 146.275 235.403 144.723C236.156 142.83 238.005 141.491 240.166 141.491V141.347C238.005 141.347 236.156 140.008 235.403 138.115C236.156 136.222 238.005 134.884 240.166 134.884V134.739C237.336 134.739 235.043 132.445 235.043 129.616H235.043Z" fill="black"/>
<path d="M297.78 173.143C297.37 171.498 296.198 170.128 294.567 169.477L294.481 169.443L294.394 169.477C292.765 170.127 291.594 171.495 291.182 173.138C290.77 171.49 289.593 170.119 287.955 169.471L287.87 169.437L287.784 169.471C286.139 170.116 284.957 171.489 284.543 173.142C284.13 171.489 282.948 170.116 281.303 169.471L281.217 169.437L281.132 169.471C279.494 170.119 278.318 171.489 277.905 173.137C277.492 171.487 276.313 170.115 274.671 169.468L274.586 169.435L274.5 169.468C272.858 170.114 271.679 171.487 271.266 173.137C270.854 171.489 269.677 170.119 268.04 169.471L267.954 169.437L267.869 169.471C266.223 170.116 265.041 171.489 264.628 173.142C264.214 171.489 263.032 170.116 261.387 169.471L261.302 169.437L261.216 169.471C259.577 170.119 258.4 171.492 257.988 173.142C257.507 171.239 256.005 169.738 254.102 169.259C256.005 168.78 257.507 167.279 257.988 165.377C258.4 167.032 259.583 168.407 261.23 169.052L261.316 169.086L261.401 169.052C263.039 168.405 264.215 167.034 264.627 165.386C265.04 167.035 266.216 168.405 267.854 169.052L267.939 169.086L268.025 169.052C269.67 168.407 270.852 167.035 271.266 165.381C271.679 167.032 272.858 168.403 274.5 169.05L274.585 169.083L274.671 169.05C276.043 168.509 277.144 167.413 277.689 166.041L277.723 165.955L277.689 165.868C277.04 164.236 275.67 163.063 274.026 162.651C275.908 162.18 277.416 160.714 277.905 158.765C278.394 160.714 279.901 162.18 281.784 162.651C280.139 163.063 278.769 164.236 278.121 165.868L278.086 165.955L278.121 166.041C278.667 167.415 279.769 168.513 281.146 169.052L281.231 169.086L281.317 169.052C282.954 168.405 284.131 167.034 284.543 165.386C284.956 167.035 286.132 168.405 287.769 169.052L287.855 169.086L287.94 169.052C289.586 168.407 290.768 167.034 291.182 165.38C291.593 167.023 292.764 168.391 294.393 169.041L294.48 169.075L294.566 169.041C296.197 168.39 297.369 167.02 297.779 165.375C298.26 167.278 299.762 168.779 301.666 169.258C299.762 169.738 298.26 171.239 297.779 173.142L297.78 173.143ZM264.626 158.521C264.145 156.619 262.645 155.12 260.744 154.639C262.391 154.229 263.761 153.055 264.411 151.421L264.445 151.335L264.411 151.248C263.762 149.616 262.393 148.443 260.748 148.031C262.393 147.619 263.762 146.446 264.411 144.814L264.445 144.727L264.411 144.641C263.762 143.008 262.393 141.836 260.748 141.423C262.393 141.012 263.762 139.839 264.411 138.206L264.445 138.12L264.411 138.034C263.761 136.4 262.391 135.226 260.744 134.815C262.645 134.334 264.145 132.835 264.626 130.933C265.037 132.583 266.214 133.956 267.853 134.604L267.939 134.638L268.024 134.604C269.67 133.959 270.852 132.587 271.265 130.933C271.678 132.584 272.858 133.955 274.499 134.602L274.585 134.635L274.67 134.602C276.312 133.955 277.491 132.584 277.904 130.933C278.318 132.587 279.5 133.959 281.145 134.604L281.231 134.638L281.316 134.604C282.954 133.957 284.13 132.586 284.543 130.938C284.955 132.587 286.131 133.957 287.769 134.604L287.854 134.638L287.94 134.604C289.587 133.959 290.77 132.584 291.182 130.928C291.663 132.829 293.163 134.329 295.064 134.809C293.417 135.22 292.047 136.394 291.397 138.028L291.363 138.114L291.397 138.201C292.046 139.834 293.415 141.006 295.06 141.418C293.415 141.83 292.046 143.003 291.397 144.635L291.363 144.722L291.397 144.808C292.046 146.441 293.415 147.614 295.06 148.026C293.415 148.437 292.046 149.611 291.397 151.243L291.363 151.329L291.397 151.416C292.046 153.05 293.418 154.224 295.064 154.634C293.163 155.115 291.663 156.615 291.182 158.516C290.771 156.866 289.594 155.494 287.954 154.845L287.869 154.811L287.783 154.845C286.138 155.49 284.956 156.863 284.543 158.516C284.129 156.863 282.947 155.49 281.302 154.845L281.216 154.811L281.131 154.845C279.525 155.48 278.323 156.85 277.904 158.52C277.484 156.847 276.28 155.476 274.67 154.842L274.585 154.809L274.499 154.842C272.858 155.488 271.678 156.861 271.265 158.511C270.853 156.863 269.676 155.493 268.039 154.845L267.953 154.811L267.868 154.845C266.221 155.491 265.038 156.866 264.626 158.521V158.521ZM284.543 150.76C284.956 152.408 286.132 153.778 287.769 154.426L287.855 154.46L287.94 154.426C289.317 153.886 290.419 152.789 290.966 151.415L291 151.328L290.966 151.242C290.317 149.61 288.947 148.437 287.302 148.025C288.947 147.613 290.316 146.44 290.966 144.807L291 144.721L290.966 144.635C290.317 143.002 288.947 141.829 287.302 141.417C288.947 141.005 290.316 139.832 290.966 138.2L291 138.113L290.966 138.027C290.421 136.659 289.324 135.563 287.955 135.022L287.869 134.988L287.784 135.022C286.138 135.667 284.956 137.039 284.543 138.692C284.13 137.039 282.948 135.666 281.302 135.022L281.217 134.988L281.131 135.022C279.494 135.669 278.317 137.039 277.905 138.688C277.492 137.037 276.312 135.665 274.671 135.019L274.585 134.985L274.5 135.019C272.858 135.665 271.679 137.037 271.266 138.688C270.853 137.039 269.677 135.669 268.039 135.022L267.954 134.988L267.868 135.022C266.492 135.561 265.389 136.659 264.843 138.033L264.809 138.119L264.843 138.205C265.492 139.838 266.862 141.011 268.507 141.423C266.862 141.835 265.493 143.008 264.843 144.64L264.809 144.727L264.843 144.813C265.492 146.445 266.862 147.618 268.507 148.03C266.862 148.442 265.492 149.615 264.843 151.247L264.809 151.334L264.843 151.42C265.388 152.788 266.485 153.884 267.854 154.425L267.94 154.459L268.025 154.425C269.671 153.78 270.853 152.408 271.266 150.754C271.679 152.405 272.858 153.777 274.5 154.423L274.586 154.456L274.671 154.423C276.312 153.777 277.492 152.405 277.905 150.754C278.319 152.408 279.501 153.78 281.146 154.425L281.232 154.459L281.317 154.425C282.955 153.778 284.131 152.407 284.543 150.759L284.543 150.76Z" fill="black"/>
<path d="M291.185 131.688C291.753 133.107 292.887 134.241 294.306 134.809C292.906 135.364 291.765 136.474 291.182 137.939C290.616 136.517 289.476 135.378 288.054 134.811C289.521 134.228 290.631 133.089 291.185 131.688M264.624 131.693C265.178 133.093 266.289 134.233 267.754 134.817C266.332 135.384 265.193 136.522 264.627 137.945C264.043 136.479 262.903 135.369 261.502 134.815C262.922 134.246 264.056 133.113 264.624 131.693M271.266 131.695C271.821 133.092 272.93 134.229 274.393 134.812C272.93 135.394 271.82 136.531 271.265 137.929C270.71 136.531 269.601 135.394 268.138 134.812C269.602 134.229 270.711 133.093 271.266 131.695ZM277.904 131.695C278.459 133.093 279.568 134.229 281.032 134.812C279.569 135.394 278.46 136.531 277.905 137.929C277.35 136.531 276.241 135.394 274.777 134.812C276.24 134.229 277.349 133.093 277.904 131.695ZM284.543 131.699C285.098 133.097 286.207 134.234 287.671 134.817C286.207 135.399 285.098 136.536 284.543 137.933C283.988 136.535 282.879 135.399 281.415 134.817C282.879 134.234 283.988 133.097 284.543 131.699ZM291.182 138.291C291.764 139.754 292.903 140.864 294.3 141.419C292.902 141.974 291.764 143.083 291.182 144.547C290.599 143.083 289.461 141.974 288.064 141.419C289.462 140.864 290.599 139.754 291.182 138.291ZM264.627 138.296C265.209 139.759 266.347 140.869 267.745 141.424C266.347 141.979 265.209 143.089 264.627 144.552C264.044 143.089 262.906 141.979 261.508 141.424C262.906 140.869 264.044 139.759 264.627 138.296ZM291.182 144.898C291.764 146.361 292.903 147.471 294.3 148.026C292.902 148.581 291.764 149.69 291.182 151.154C290.599 149.69 289.461 148.581 288.064 148.026C289.462 147.471 290.599 146.361 291.182 144.898ZM264.627 144.903C265.209 146.366 266.347 147.476 267.745 148.031C266.347 148.586 265.209 149.696 264.627 151.159C264.044 149.696 262.906 148.586 261.508 148.031C262.906 147.476 264.044 146.366 264.627 144.903ZM291.182 151.505C291.765 152.971 292.906 154.081 294.306 154.635C292.887 155.203 291.753 156.337 291.185 157.757C290.631 156.356 289.52 155.216 288.054 154.633C289.477 154.066 290.616 152.928 291.182 151.505M264.627 151.51C265.193 152.932 266.332 154.072 267.754 154.638C266.288 155.222 265.178 156.361 264.624 157.762C264.056 156.342 262.922 155.209 261.502 154.641C262.903 154.086 264.043 152.976 264.627 151.511M271.266 151.516C271.821 152.914 272.93 154.05 274.393 154.633C272.93 155.216 271.82 156.352 271.265 157.75C270.71 156.352 269.601 155.216 268.138 154.633C269.602 154.05 270.711 152.914 271.266 151.516ZM277.904 151.516C278.459 152.914 279.568 154.05 281.032 154.633C279.594 155.206 278.468 156.345 277.904 157.761C277.341 156.345 276.215 155.206 274.777 154.633C276.24 154.051 277.349 152.915 277.904 151.517M284.543 151.521C285.098 152.919 286.207 154.055 287.671 154.639C286.207 155.221 285.098 156.357 284.543 157.755C283.988 156.357 282.879 155.221 281.415 154.639C282.879 154.056 283.988 152.919 284.543 151.521ZM277.904 159.528C278.476 160.974 279.613 162.092 281.023 162.652C279.625 163.207 278.487 164.316 277.904 165.78C277.321 164.316 276.184 163.207 274.786 162.652C276.195 162.092 277.332 160.973 277.904 159.528ZM277.904 166.132C278.471 167.555 279.61 168.693 281.032 169.259C279.569 169.842 278.46 170.979 277.905 172.376C277.35 170.979 276.241 169.842 274.777 169.259C276.199 168.693 277.338 167.554 277.904 166.132ZM297.781 166.134C298.35 167.556 299.487 168.692 300.91 169.259C299.487 169.826 298.35 170.962 297.781 172.384C297.227 170.984 296.118 169.844 294.654 169.26L294.651 169.259L294.654 169.258C296.118 168.674 297.227 167.534 297.781 166.134ZM257.985 166.136C258.539 167.537 259.649 168.675 261.116 169.259C259.65 169.843 258.539 170.982 257.985 172.384C257.416 170.962 256.28 169.827 254.857 169.259C256.28 168.692 257.416 167.557 257.985 166.136M291.182 166.142C291.737 167.538 292.846 168.675 294.307 169.258L294.31 169.259L294.307 169.26C292.846 169.843 291.737 170.981 291.182 172.377C290.627 170.979 289.518 169.842 288.054 169.259C289.519 168.676 290.628 167.54 291.183 166.142M271.266 166.143C271.821 167.54 272.93 168.677 274.393 169.259C272.93 169.842 271.82 170.979 271.265 172.376C270.71 170.979 269.601 169.842 268.138 169.259C269.602 168.677 270.711 167.541 271.266 166.143ZM264.627 166.147C265.182 167.545 266.291 168.682 267.754 169.265C266.291 169.848 265.182 170.984 264.627 172.381C264.072 170.983 262.963 169.848 261.499 169.265C262.962 168.682 264.071 167.545 264.627 166.147ZM284.543 166.147C285.098 167.545 286.207 168.682 287.671 169.265C286.207 169.848 285.098 170.984 284.543 172.381C283.988 170.983 282.879 169.848 281.415 169.265C282.879 168.682 283.988 167.545 284.543 166.147ZM291.254 129.616H291.11C291.11 131.786 289.761 133.64 287.856 134.388C285.958 133.637 284.615 131.786 284.615 129.622H284.471C284.471 131.786 283.128 133.637 281.231 134.388C279.325 133.64 277.977 131.786 277.977 129.616H277.832C277.832 131.783 276.486 133.636 274.585 134.385C272.683 133.636 271.338 131.783 271.338 129.616H271.193C271.193 131.786 269.844 133.64 267.939 134.388C266.042 133.637 264.699 131.786 264.699 129.622H264.555C264.555 132.451 262.261 134.745 259.431 134.745V134.889C261.593 134.889 263.441 136.228 264.194 138.121C263.441 140.014 261.593 141.352 259.431 141.352V141.497C261.593 141.497 263.441 142.835 264.194 144.728C263.441 146.621 261.593 147.96 259.431 147.96V148.104C261.593 148.104 263.441 149.443 264.194 151.336C263.441 153.229 261.593 154.568 259.431 154.568V154.712C262.261 154.712 264.555 157.006 264.555 159.835H264.699C264.699 157.665 266.048 155.811 267.953 155.064C269.851 155.814 271.193 157.665 271.193 159.83H271.338C271.338 157.662 272.684 155.809 274.585 155.061C276.128 155.669 277.305 157.003 277.694 158.644C277.159 160.901 275.13 162.581 272.709 162.581V162.726C274.87 162.726 276.719 164.064 277.472 165.957C276.95 167.271 275.9 168.317 274.585 168.834C272.684 168.086 271.338 166.233 271.338 164.066H271.194C271.194 166.235 269.845 168.09 267.94 168.837C266.042 168.087 264.699 166.236 264.699 164.071H264.555C264.555 166.236 263.212 168.087 261.315 168.837C259.409 168.09 258.061 166.236 258.061 164.066H257.916C257.916 166.895 255.622 169.189 252.793 169.189V169.333C255.622 169.333 257.916 171.627 257.916 174.456H258.061C258.061 172.292 259.403 170.441 261.301 169.691C263.206 170.438 264.555 172.292 264.555 174.462H264.699C264.699 172.292 266.049 170.438 267.953 169.691C269.851 170.441 271.194 172.292 271.194 174.456H271.338C271.338 172.289 272.684 170.436 274.585 169.688C276.487 170.436 277.833 172.289 277.833 174.456H277.977C277.977 172.292 279.32 170.441 281.218 169.691C283.123 170.438 284.472 172.292 284.472 174.462H284.616C284.616 172.292 285.965 170.438 287.87 169.691C289.768 170.441 291.11 172.292 291.11 174.456H291.255C291.255 172.297 292.59 170.45 294.481 169.696C296.371 170.45 297.708 172.297 297.708 174.456H297.852C297.852 171.627 300.146 169.333 302.975 169.333V169.189C300.146 169.189 297.852 166.895 297.852 164.066H297.708C297.708 166.225 296.371 168.072 294.481 168.826C292.591 168.072 291.255 166.225 291.255 164.066H291.11C291.11 166.235 289.761 168.09 287.856 168.837C285.959 168.087 284.616 166.236 284.616 164.071H284.472C284.472 166.236 283.129 168.087 281.231 168.837C279.913 168.32 278.861 167.273 278.338 165.957C279.09 164.064 280.939 162.726 283.1 162.726V162.581C280.679 162.581 278.65 160.902 278.115 158.644C278.504 157.006 279.678 155.672 281.218 155.064C283.123 155.811 284.472 157.665 284.472 159.835H284.616C284.616 157.665 285.965 155.811 287.87 155.064C289.768 155.814 291.11 157.665 291.11 159.83H291.255C291.255 157 293.549 154.706 296.378 154.706V154.562C294.217 154.562 292.368 153.223 291.615 151.33C292.368 149.437 294.217 148.099 296.378 148.099V147.954C294.217 147.954 292.368 146.616 291.615 144.723C292.368 142.83 294.217 141.491 296.378 141.491V141.347C294.217 141.347 292.368 140.008 291.615 138.115C292.368 136.222 294.217 134.884 296.378 134.884V134.739C293.549 134.739 291.255 132.445 291.255 129.616H291.254ZM271.193 140.007H271.338C271.338 137.84 272.684 135.987 274.585 135.238C276.486 135.987 277.832 137.84 277.832 140.007H277.977C277.977 137.842 279.319 135.991 281.217 135.241C283.122 135.988 284.471 137.842 284.471 140.013H284.615C284.615 137.843 285.965 135.988 287.869 135.241C289.181 135.76 290.228 136.805 290.749 138.115C289.997 140.008 288.148 141.347 285.987 141.347V141.491C288.148 141.491 289.997 142.83 290.749 144.723C289.997 146.616 288.148 147.954 285.987 147.954V148.099C288.148 148.099 289.997 149.437 290.749 151.33C290.226 152.645 289.174 153.693 287.856 154.21C285.958 153.46 284.615 151.609 284.615 149.444H284.471C284.471 151.609 283.128 153.46 281.231 154.21C279.325 153.463 277.977 151.609 277.977 149.439H277.832C277.832 151.606 276.486 153.459 274.585 154.207C272.683 153.459 271.338 151.606 271.338 149.439H271.193C271.193 151.608 269.844 153.463 267.939 154.21C266.628 153.692 265.581 152.646 265.06 151.336C265.812 149.443 267.661 148.104 269.822 148.104V147.96C267.661 147.96 265.812 146.621 265.06 144.728C265.812 142.835 267.661 141.497 269.822 141.497V141.352C267.661 141.352 265.812 140.014 265.06 138.121C265.582 136.806 266.635 135.758 267.953 135.241C269.851 135.991 271.193 137.842 271.193 140.007Z" fill="black"/>
</svg>
