<svg width="375" height="636" viewBox="0 0 375 636" fill="none" xmlns="http://www.w3.org/2000/svg">
<rect width="375" height="636" fill="#FDFDFD"/>
<mask id="path-1-inside-1_1313_24767" fill="white">
<path d="M301.778 56.8255L305.721 52.8686V52.7237L302.49 49.4834L305.721 46.2407V46.0958L302.49 42.8555L305.721 39.6128V39.4679L302.49 36.2276L305.721 32.9849V32.84L300.598 27.7025V27.7039L296.378 23.47L291.254 18.3305H291.11L287.86 21.5906L284.615 18.3357H284.471L281.226 21.5906L277.977 18.3305H277.832L274.585 21.5883L271.338 18.3305H271.193L267.944 21.5906L264.699 18.3357H264.555L250.109 32.8265L249.795 33.1414L249.512 32.8457L249.51 32.8471V32.8433L235.043 18.3305H234.899L228.332 24.9177L221.766 18.3305H221.621L218.374 21.5883L215.127 18.3305H214.982L211.733 21.5906L208.488 18.3357H208.344L205.099 21.5906L201.849 18.3305H201.705L198.455 21.5906L195.21 18.3357H195.066L184.364 29.0719L173.656 18.3305H173.512L170.262 21.5906L167.017 18.3357H166.873L163.628 21.5906L160.378 18.3305H160.234L156.987 21.5883L153.739 18.3305H153.595L150.345 21.5906L147.101 18.3357H146.956L132.491 32.8466L132.195 33.0997L131.912 32.8433L117.444 18.3305H117.3L110.734 24.9177C109.942 24.1238 109.29 23.4695 109.29 23.4695L104.167 18.3301H104.022L100.775 21.5878L97.528 18.3301H97.3836L94.1338 21.5901L90.8892 18.3352H90.7448L87.5001 21.5901L84.2503 18.3301H84.106L80.8562 21.5901L77.6115 18.3352H77.4671L63 32.848V32.9928L77.4671 47.5056H77.5274L79.5092 49.4928L76.2777 52.7355V52.8803L81.4009 58.0178V58.0164L85.6215 62.2504L90.7448 67.3898H90.8892L96.6613 61.5994L97.4588 60.7994L98.2573 61.6003L98.496 61.8398L104.022 67.3837H104.086L117.3 80.6395H117.444L126.788 71.2661C126.788 71.2661 127.387 70.6658 128.175 69.8751L135.194 76.9164L140.317 82.0558H140.461L143.707 78.7999L146.959 82.0609H147.103L150.351 78.8018L153.595 82.0558H153.739L156.987 78.7986L160.234 82.0558H160.378L163.623 78.8009L166.873 82.0609H167.017L170.267 78.8009L173.512 82.0558H173.656L176.882 78.8192L180.109 82.0558H180.253L194.72 67.543V67.3982L201.537 60.5603L208.344 67.3888H208.488L214.26 61.5984L215.058 60.7984L215.856 61.5994L216.344 62.0887L221.622 67.3832H221.685L234.899 80.639H235.043L244.387 71.2657C244.387 71.2657 244.986 70.6653 245.774 69.8747L252.793 76.9159L257.916 82.0553H258.061L261.306 78.7995L264.558 82.0605H264.703L267.951 78.8014L271.194 82.0553H271.339L274.586 78.7981L277.833 82.0553H277.978L281.222 78.8005L284.472 82.0605H284.616L287.866 78.8005L291.111 82.0553H291.255L294.482 78.8187L297.708 82.0553H297.852L312.32 67.5426V67.3977L301.779 56.8241L301.778 56.8255Z"/>
</mask>
<path d="M301.778 56.8255L305.721 52.8686V52.7237L302.49 49.4834L305.721 46.2407V46.0958L302.49 42.8555L305.721 39.6128V39.4679L302.49 36.2276L305.721 32.9849V32.84L300.598 27.7025V27.7039L296.378 23.47L291.254 18.3305H291.11L287.86 21.5906L284.615 18.3357H284.471L281.226 21.5906L277.977 18.3305H277.832L274.585 21.5883L271.338 18.3305H271.193L267.944 21.5906L264.699 18.3357H264.555L250.109 32.8265L249.795 33.1414L249.512 32.8457L249.51 32.8471V32.8433L235.043 18.3305H234.899L228.332 24.9177L221.766 18.3305H221.621L218.374 21.5883L215.127 18.3305H214.982L211.733 21.5906L208.488 18.3357H208.344L205.099 21.5906L201.849 18.3305H201.705L198.455 21.5906L195.21 18.3357H195.066L184.364 29.0719L173.656 18.3305H173.512L170.262 21.5906L167.017 18.3357H166.873L163.628 21.5906L160.378 18.3305H160.234L156.987 21.5883L153.739 18.3305H153.595L150.345 21.5906L147.101 18.3357H146.956L132.491 32.8466L132.195 33.0997L131.912 32.8433L117.444 18.3305H117.3L110.734 24.9177C109.942 24.1238 109.29 23.4695 109.29 23.4695L104.167 18.3301H104.022L100.775 21.5878L97.528 18.3301H97.3836L94.1338 21.5901L90.8892 18.3352H90.7448L87.5001 21.5901L84.2503 18.3301H84.106L80.8562 21.5901L77.6115 18.3352H77.4671L63 32.848V32.9928L77.4671 47.5056H77.5274L79.5092 49.4928L76.2777 52.7355V52.8803L81.4009 58.0178V58.0164L85.6215 62.2504L90.7448 67.3898H90.8892L96.6613 61.5994L97.4588 60.7994L98.2573 61.6003L98.496 61.8398L104.022 67.3837H104.086L117.3 80.6395H117.444L126.788 71.2661C126.788 71.2661 127.387 70.6658 128.175 69.8751L135.194 76.9164L140.317 82.0558H140.461L143.707 78.7999L146.959 82.0609H147.103L150.351 78.8018L153.595 82.0558H153.739L156.987 78.7986L160.234 82.0558H160.378L163.623 78.8009L166.873 82.0609H167.017L170.267 78.8009L173.512 82.0558H173.656L176.882 78.8192L180.109 82.0558H180.253L194.72 67.543V67.3982L201.537 60.5603L208.344 67.3888H208.488L214.26 61.5984L215.058 60.7984L215.856 61.5994L216.344 62.0887L221.622 67.3832H221.685L234.899 80.639H235.043L244.387 71.2657C244.387 71.2657 244.986 70.6653 245.774 69.8747L252.793 76.9159L257.916 82.0553H258.061L261.306 78.7995L264.558 82.0605H264.703L267.951 78.8014L271.194 82.0553H271.339L274.586 78.7981L277.833 82.0553H277.978L281.222 78.8005L284.472 82.0605H284.616L287.866 78.8005L291.111 82.0553H291.255L294.482 78.8187L297.708 82.0553H297.852L312.32 67.5426V67.3977L301.779 56.8241L301.778 56.8255Z" fill="white" stroke="black" stroke-dasharray="1 1" mask="url(#path-1-inside-1_1313_24767)"/>
<path d="M90.8171 56.7047C90.3377 54.7949 88.8371 53.2881 86.9337 52.8058C88.5806 52.3939 89.9514 51.2166 90.6012 49.5772L90.6353 49.4905L90.6012 49.4038C89.9523 47.7663 88.5829 46.5894 86.9379 46.1765C88.5829 45.7636 89.9518 44.5868 90.6012 42.9493L90.6353 42.8626L90.6012 42.7759C89.9523 41.1384 88.5829 39.9615 86.9379 39.5486C88.5829 39.1357 89.9518 37.9589 90.6012 36.3214L90.6353 36.2347L90.6012 36.148C90.0551 34.7696 88.9525 33.6687 87.5761 33.1274L87.4906 33.0936L87.4051 33.1274C85.7676 33.777 84.5908 35.152 84.1787 36.805C83.7662 35.1516 82.5898 33.7765 80.9518 33.1274L80.8663 33.0936L80.7808 33.1274C79.1335 33.7751 77.951 35.1544 77.5385 36.8149C77.0573 34.906 75.5557 33.4011 73.6523 32.9203C75.5557 32.4394 77.0577 30.934 77.5389 29.0251C77.9501 30.6805 79.1274 32.0574 80.7668 32.7075L80.8523 32.7412L80.9378 32.7075C82.5832 32.0602 83.7652 30.6833 84.1787 29.0251C84.5922 30.6833 85.7742 32.0607 87.4196 32.7075L87.5051 32.7412L87.5906 32.7075C89.2281 32.0579 90.405 30.6828 90.8171 29.0298C91.2296 30.6833 92.406 32.0584 94.0435 32.7075L94.129 32.7412L94.2145 32.7075C95.86 32.0602 97.042 30.6833 97.4554 29.0247C97.8684 30.6805 99.0476 32.0565 100.689 32.7047L100.775 32.7384L100.86 32.7047C102.503 32.0556 103.684 30.6777 104.095 29.0195C104.576 30.927 106.076 32.4314 107.977 32.9132C106.33 33.3252 104.959 34.5025 104.31 36.1419L104.276 36.2286L104.31 36.3153C104.959 37.9528 106.328 39.1296 107.973 39.5425C106.328 39.9554 104.959 41.1322 104.31 42.7698L104.276 42.8565L104.31 42.9432C104.959 44.5807 106.328 45.7575 107.973 46.1704C106.328 46.5833 104.959 47.7601 104.31 49.3977L104.276 49.4844L104.31 49.5711C104.959 51.21 106.331 52.3878 107.977 52.7997C106.074 53.282 104.573 54.7888 104.094 56.6986C103.614 54.7888 102.113 53.2825 100.21 52.7997C101.857 52.3878 103.229 51.2105 103.878 49.5711L103.912 49.4844L103.878 49.3977C103.229 47.7601 101.86 46.5833 100.215 46.1704C101.86 45.7575 103.229 44.5807 103.878 42.9432L103.912 42.8565L103.878 42.7698C103.229 41.1322 101.86 39.9554 100.215 39.5425C101.86 39.1296 103.229 37.9528 103.878 36.3153L103.912 36.2286L103.878 36.1419C103.333 34.7663 102.233 33.6664 100.86 33.1241L100.774 33.0904L100.689 33.1241C99.0472 33.7723 97.868 35.1488 97.455 36.8046C97.0424 35.1511 95.866 33.7765 94.2285 33.1269L94.143 33.0932L94.0575 33.1269C92.6812 33.6682 91.5786 34.7691 91.0324 36.1475L90.9983 36.2342L91.0324 36.3209C91.6814 37.9584 93.0507 39.1353 94.6957 39.5482C93.0507 39.9611 91.6818 41.1379 91.0324 42.7754L90.9983 42.8621L91.0324 42.9488C91.6814 44.5863 93.0507 45.7632 94.6957 46.1761C93.0507 46.589 91.6818 47.7658 91.0324 49.4033L90.9983 49.49L91.0324 49.5767C91.6818 51.2156 93.0531 52.3934 94.6999 52.8054C92.797 53.2876 91.2959 54.7944 90.8166 56.7042L90.8171 56.7047Z" fill="black"/>
<path d="M104.098 29.7812C104.666 31.205 105.8 32.3425 107.219 32.9124C105.819 33.4687 104.678 34.5822 104.095 36.0524C103.528 34.6253 102.389 33.4827 100.967 32.9147C102.433 32.3293 103.543 31.1863 104.098 29.7812ZM77.5366 29.7863C78.0907 31.1914 79.2012 32.335 80.6668 32.9203C79.2003 33.5057 78.0902 34.6483 77.5361 36.0538C76.9671 34.6281 75.8304 33.4893 74.4083 32.9203C75.8309 32.3514 76.9676 31.2125 77.5366 29.7863ZM97.4559 29.7887C98.0109 31.1905 99.1201 32.3303 100.583 32.9152C99.1196 33.4996 98.0105 34.6399 97.4554 36.0421C96.9004 34.6399 95.7913 33.4996 94.328 32.9152C95.7918 32.3308 96.9009 31.191 97.4559 29.7887ZM84.1782 29.7887C84.7333 31.191 85.8419 32.3303 87.3061 32.9147C85.8424 33.4991 84.7337 34.6399 84.1782 36.0421C83.6232 34.6399 82.5141 33.4996 81.0504 32.9147C82.5141 32.3303 83.6232 31.1905 84.1782 29.7887ZM90.8171 29.7929C91.3721 31.1952 92.4812 32.3354 93.9449 32.9203C92.5228 33.4888 91.3838 34.6305 90.8171 36.0581C90.2504 34.6305 89.1113 33.4888 87.6892 32.9203C89.1529 32.3359 90.2616 31.1952 90.8171 29.7929ZM104.095 36.4053C104.677 37.8732 105.815 38.9863 107.213 39.5431C105.815 40.0999 104.677 41.213 104.095 42.6808C103.512 41.213 102.374 40.0999 100.977 39.5431C102.375 38.9863 103.512 37.8732 104.095 36.4053ZM90.8171 36.4105C91.3997 37.8784 92.5378 38.9915 93.9351 39.5482C92.5373 40.105 91.3997 41.2181 90.8171 42.686C90.2345 41.2181 89.0964 40.105 87.699 39.5482C89.0969 38.9915 90.2345 37.8784 90.8171 36.4105ZM104.095 43.0333C104.677 44.5011 105.815 45.6142 107.213 46.171C105.815 46.7278 104.677 47.8409 104.095 49.3087C103.512 47.8409 102.374 46.7278 100.977 46.171C102.375 45.6142 103.512 44.5011 104.095 43.0333ZM90.8171 43.0384C91.4001 44.5063 92.5373 45.6194 93.9351 46.1761C92.5373 46.7329 91.3997 47.846 90.8171 49.3139C90.2345 47.846 89.0964 46.7329 87.699 46.1761C89.0969 45.6194 90.2345 44.5063 90.8171 43.0384ZM104.095 49.6612C104.678 51.1314 105.819 52.2454 107.219 52.8012C105.798 53.3721 104.662 54.5123 104.095 55.9394C103.528 54.5123 102.392 53.3721 100.97 52.8012C102.371 52.2449 103.511 51.1314 104.095 49.6612ZM90.8171 49.6663C91.4006 51.1365 92.541 52.2505 93.9417 52.8064C92.52 53.3772 91.3847 54.5175 90.8171 55.9446C90.2499 54.5175 89.1142 53.3772 87.6925 52.8064C89.0931 52.2501 90.2336 51.1361 90.8171 49.6663ZM104.167 27.7031H104.022C104.022 29.8773 102.676 31.736 100.775 32.4868C98.8738 31.736 97.5279 29.8773 97.5279 27.7031H97.3835C97.3835 29.8796 96.0342 31.7402 94.1295 32.4896C92.2317 31.7369 90.889 29.8801 90.889 27.7087H90.7447C90.7447 29.8801 89.4019 31.7369 87.5042 32.4896C85.599 31.7402 84.2502 29.8801 84.2502 27.7031H84.1058C84.1058 29.8796 82.7566 31.7402 80.8518 32.4896C78.9541 31.7369 77.6114 29.8801 77.6114 27.7087H77.467C77.467 30.547 75.1731 32.8482 72.3438 32.8482V32.993C75.1731 32.993 77.467 35.2941 77.467 38.1324H77.6114C77.6114 35.9559 78.9606 34.0953 80.8654 33.3459C82.7631 34.0986 84.1058 35.9554 84.1058 38.1268H84.2502C84.2502 35.9554 85.5929 34.0986 87.4907 33.3459C88.8091 33.8642 89.8612 34.915 90.384 36.2348C89.6313 38.1338 87.7827 39.4765 85.6214 39.4765V39.6213C87.7827 39.6213 89.6313 40.9641 90.384 42.8631C89.6313 44.7622 87.7827 46.1049 85.6214 46.1049V46.2497C87.7827 46.2497 89.6313 47.5925 90.384 49.4915C89.6313 51.3905 87.7827 52.7333 85.6214 52.7333V52.8781C88.4507 52.8781 90.7447 55.1792 90.7447 58.0175H90.889C90.889 55.1792 93.1829 52.8781 96.0123 52.8781V52.7333C93.851 52.7333 92.0023 51.3905 91.2497 49.4915C92.0023 47.5925 93.851 46.2497 96.0123 46.2497V46.1049C93.851 46.1049 92.0023 44.7622 91.2497 42.8631C92.0023 40.9641 93.851 39.6213 96.0123 39.6213V39.4765C93.851 39.4765 92.0023 38.1338 91.2497 36.2348C91.7725 34.9155 92.8246 33.8647 94.143 33.3459C96.0408 34.0986 97.3835 35.9554 97.3835 38.1268H97.5279C97.5279 35.9526 98.8738 34.0939 100.775 33.3431C102.09 33.8624 103.14 34.9122 103.662 36.2291C102.909 38.1282 101.06 39.4709 98.8991 39.4709V39.6157C101.06 39.6157 102.909 40.9585 103.662 42.8575C102.909 44.7566 101.06 46.0993 98.8991 46.0993V46.2441C101.06 46.2441 102.909 47.5868 103.662 49.4859C102.909 51.3849 101.06 52.7276 98.8991 52.7276V52.8725C101.728 52.8725 104.022 55.1736 104.022 58.0119H104.167C104.167 55.1736 106.461 52.8725 109.29 52.8725V52.7276C107.129 52.7276 105.28 51.3849 104.527 49.4859C105.28 47.5868 107.129 46.2441 109.29 46.2441V46.0993C107.129 46.0993 105.28 44.7566 104.527 42.8575C105.28 40.9585 107.129 39.6157 109.29 39.6157V39.4709C107.129 39.4709 105.28 38.1282 104.527 36.2291C105.28 34.3301 107.129 32.9874 109.29 32.9874V32.8425C106.461 32.8425 104.167 30.5414 104.167 27.7031Z" fill="black"/>
<path d="M117.372 69.9551C116.893 68.0453 115.392 66.5385 113.489 66.0563C115.136 65.6443 116.507 64.467 117.156 62.8276L117.19 62.7409L117.156 62.6542C116.507 61.0162 115.138 59.8398 113.493 59.4269C115.138 59.014 116.507 57.8372 117.156 56.1992L117.19 56.1125L117.156 56.0258C116.507 54.3883 115.138 53.2115 113.493 52.7986C115.138 52.3857 116.507 51.2089 117.156 49.5713L117.19 49.4846L117.156 49.3979C116.507 47.7599 115.138 46.5836 113.493 46.1702C115.138 45.7573 116.507 44.5805 117.156 42.943L117.19 42.8562L117.156 42.7695C116.507 41.1315 115.138 39.9552 113.493 39.5418C115.138 39.1289 116.507 37.9521 117.156 36.3146L117.19 36.2279L117.156 36.1412C116.507 34.5022 115.136 33.3245 113.489 32.9125C115.392 32.4303 116.893 30.9235 117.372 29.0137C117.851 30.9235 119.353 32.4303 121.255 32.9125C119.609 33.3245 118.237 34.5018 117.588 36.1412L117.554 36.2279L117.588 36.3146C118.237 37.9526 119.606 39.1289 121.251 39.5423C119.606 39.9552 118.237 41.132 117.588 42.7695L117.554 42.8562L117.588 42.943C118.226 44.5524 119.592 45.7503 121.258 46.1702C119.592 46.5901 118.225 47.7899 117.588 49.3979L117.554 49.4846L117.588 49.5713C118.237 51.2089 119.606 52.3857 121.251 52.7986C119.606 53.2115 118.237 54.3883 117.588 56.0258L117.554 56.1125L117.588 56.1992C118.237 57.8368 119.606 59.0136 121.251 59.4265C119.606 59.8394 118.237 61.0162 117.588 62.6542L117.554 62.7409L117.588 62.8276C118.237 64.4665 119.609 65.6443 121.255 66.0563C119.353 66.5385 117.851 68.0453 117.372 69.9551ZM125.474 50.0831C124.996 48.2009 123.513 46.6623 121.59 46.1763C123.542 45.6856 125.007 44.1737 125.477 42.2817C125.958 44.1901 127.46 45.6954 129.364 46.1763C127.456 46.6581 125.952 48.1686 125.474 50.0831H125.474Z" fill="black"/>
<path d="M117.372 29.7742C117.939 31.2013 119.075 32.3415 120.497 32.9124C119.096 33.4687 117.955 34.5822 117.372 36.0524C116.788 34.5822 115.648 33.4682 114.247 32.9124C115.669 32.3415 116.804 31.2013 117.372 29.7742ZM117.372 36.4053C117.955 37.8732 119.093 38.9863 120.49 39.5431C119.092 40.0999 117.955 41.213 117.372 42.6808C116.789 41.213 115.651 40.0999 114.254 39.5431C115.652 38.9863 116.789 37.8732 117.372 36.4053ZM117.372 43.0333C117.946 44.4791 119.083 45.6067 120.499 46.171C119.084 46.7357 117.946 47.8643 117.372 49.3087C116.789 47.8409 115.651 46.7278 114.254 46.171C115.652 45.6142 116.789 44.5011 117.372 43.0333ZM125.478 43.0431C126.047 44.4688 127.184 45.6072 128.606 46.1761C127.184 46.7451 126.048 47.883 125.479 49.3082C124.921 47.8905 123.802 46.7498 122.353 46.1761C123.801 45.602 124.92 44.4604 125.478 43.0431ZM117.372 49.6612C117.955 51.129 119.093 52.2421 120.49 52.7989C119.092 53.3557 117.955 54.4688 117.372 55.9366C116.789 54.4688 115.651 53.3557 114.254 52.7989C115.652 52.2421 116.789 51.129 117.372 49.6612ZM117.372 56.2891C117.955 57.7569 119.093 58.87 120.49 59.4268C119.092 59.9836 117.955 61.0967 117.372 62.5645C116.789 61.0967 115.651 59.9836 114.254 59.4268C115.652 58.87 116.789 57.7569 117.372 56.2891ZM117.372 62.9174C117.955 64.3876 119.096 65.5017 120.497 66.0575C119.075 66.6283 117.94 67.7686 117.372 69.1957C116.805 67.7686 115.67 66.6283 114.247 66.0575C115.648 65.5012 116.788 64.3876 117.372 62.9174ZM117.444 27.7031H117.3C117.3 30.5414 115.006 32.8425 112.177 32.8425V32.9874C114.338 32.9874 116.187 34.3301 116.939 36.2291C116.187 38.1282 114.338 39.4709 112.177 39.4709V39.6157C114.338 39.6157 116.187 40.9585 116.939 42.8575C116.187 44.7566 114.338 46.0993 112.177 46.0993V46.2441C114.338 46.2441 116.187 47.5868 116.939 49.4859C116.187 51.3849 114.338 52.7276 112.177 52.7276V52.8725C114.338 52.8725 116.187 54.2152 116.939 56.1142C116.187 58.0133 114.338 59.356 112.177 59.356V59.5008C114.338 59.5008 116.187 60.8436 116.939 62.7426C116.187 64.6416 114.338 65.9844 112.177 65.9844V66.1292C115.006 66.1292 117.3 68.4304 117.3 71.2686H117.444C117.444 68.4304 119.738 66.1292 122.568 66.1292V65.9844C120.406 65.9844 118.558 64.6416 117.805 62.7426C118.558 60.8436 120.406 59.5008 122.568 59.5008V59.356C120.406 59.356 118.558 58.0133 117.805 56.1142C118.558 54.2152 120.406 52.8725 122.568 52.8725V52.7276C120.406 52.7276 118.558 51.3849 117.805 49.4859C118.419 47.936 119.763 46.7568 121.411 46.3758C123.696 46.8927 125.403 48.9408 125.403 51.3891H125.547C125.547 48.5509 127.841 46.2497 130.671 46.2497V46.1049C127.841 46.1049 125.547 43.8037 125.547 40.9655H125.403C125.403 43.4049 123.709 45.4478 121.436 45.9732C119.776 45.5978 118.422 44.4149 117.805 42.8575C118.557 40.9585 120.406 39.6157 122.567 39.6157V39.4709C120.406 39.4709 118.557 38.1282 117.805 36.2291C118.557 34.3301 120.406 32.9874 122.567 32.9874V32.8425C119.738 32.8425 117.444 30.5414 117.444 27.7031H117.444Z" fill="black"/>
<path d="M180.181 71.3674C179.771 69.7177 178.599 68.3431 176.968 67.6903L176.882 67.6556L176.796 67.6903C175.166 68.3422 173.995 69.7149 173.584 71.3628C173.171 69.7093 171.995 68.3342 170.357 67.6842L170.271 67.6504L170.186 67.6842C168.54 68.3314 167.358 69.7083 166.945 71.3665C166.531 69.7083 165.349 68.3309 163.704 67.6842L163.618 67.6504L163.533 67.6842C161.895 68.3337 160.719 69.7084 160.306 71.3618C159.893 69.706 158.714 68.33 157.073 67.6813L156.987 67.6476L156.902 67.6813C155.26 68.3295 154.081 69.706 153.668 71.3618C153.255 69.7084 152.079 68.3337 150.441 67.6842L150.356 67.6504L150.27 67.6842C148.625 68.3314 147.443 69.7083 147.029 71.367C146.616 69.7083 145.434 68.3314 143.788 67.6842L143.703 67.6504L143.617 67.6842C141.978 68.3342 140.801 69.7111 140.39 71.3665C139.908 69.4576 138.407 67.9522 136.503 67.4714C138.406 66.9905 139.908 65.4856 140.389 63.5768C140.802 65.2377 141.984 66.6165 143.631 67.2642L143.717 67.298L143.802 67.2642C145.44 66.6147 146.617 65.2396 147.029 63.5866C147.441 65.2401 148.618 66.6151 150.255 67.2642L150.341 67.298L150.426 67.2642C152.072 66.617 153.254 65.2401 153.667 63.5814C154.08 65.2372 155.259 66.6133 156.901 67.2614L156.987 67.2952L157.072 67.2614C158.445 66.7192 159.545 65.6192 160.09 64.2437L160.124 64.157L160.09 64.0703C159.441 62.4323 158.071 61.2554 156.427 60.8425C158.309 60.3697 159.817 58.8999 160.306 56.9442C160.795 58.8999 162.303 60.3697 164.185 60.8425C162.54 61.2554 161.171 62.4323 160.522 64.0703L160.488 64.157L160.522 64.2437C161.068 65.622 162.171 66.7229 163.547 67.2642L163.632 67.298L163.718 67.2642C165.355 66.6147 166.532 65.2396 166.944 63.5866C167.357 65.2401 168.533 66.6147 170.171 67.2642L170.256 67.298L170.342 67.2642C171.988 66.617 173.17 65.2396 173.583 63.5805C173.995 65.2283 175.166 66.6006 176.795 67.2525L176.881 67.2872L176.968 67.2525C178.599 66.6001 179.77 65.2255 180.18 63.5754C180.661 65.4842 182.163 66.9901 184.067 67.4709C182.163 67.9518 180.661 69.4576 180.18 71.3665L180.181 71.3674ZM147.027 56.6995C146.546 54.792 145.047 53.2876 143.145 52.8058C144.792 52.3939 146.163 51.2166 146.813 49.5772L146.847 49.4905L146.813 49.4038C146.164 47.7663 144.794 46.5894 143.149 46.1765C144.794 45.7636 146.164 44.5868 146.813 42.9493L146.847 42.8626L146.813 42.7759C146.164 41.1379 144.794 39.9615 143.149 39.5486C144.794 39.1357 146.163 37.9589 146.813 36.3209L146.847 36.2342L146.813 36.1475C146.163 34.5086 144.792 33.3308 143.145 32.9188C145.047 32.4366 146.547 30.9322 147.027 29.0247C147.438 30.68 148.615 32.057 150.255 32.7075L150.34 32.7412L150.426 32.7075C152.071 32.0602 153.253 30.6833 153.667 29.0247C154.08 30.6805 155.259 32.0565 156.901 32.7047L156.986 32.7384L157.072 32.7047C158.713 32.0565 159.893 30.6805 160.306 29.0247C160.719 30.6833 161.901 32.0602 163.546 32.7075L163.632 32.7412L163.717 32.7075C165.355 32.0579 166.532 30.6828 166.944 29.0298C167.356 30.6833 168.533 32.0579 170.17 32.7075L170.256 32.7412L170.341 32.7075C171.989 32.0598 173.171 30.6805 173.584 29.0195C174.064 30.927 175.564 32.4314 177.466 32.9132C175.819 33.3252 174.448 34.5025 173.798 36.1419L173.764 36.2286L173.798 36.3153C174.447 37.9533 175.816 39.1296 177.461 39.5425C175.816 39.9554 174.448 41.1323 173.798 42.7702L173.764 42.857L173.798 42.9436C174.447 44.5816 175.816 45.758 177.461 46.1709C175.816 46.5838 174.448 47.7606 173.798 49.3986L173.764 49.4853L173.798 49.572C174.448 51.211 175.819 52.3887 177.466 52.8007C175.564 53.2829 174.064 54.7874 173.583 56.6948C173.172 55.0395 171.995 53.6626 170.355 53.012L170.27 52.9783L170.184 53.012C168.539 53.6593 167.357 55.0362 166.943 56.6948C166.53 55.0367 165.348 53.6593 163.703 53.012L163.617 52.9783L163.532 53.012C161.926 53.649 160.724 55.0236 160.305 56.6981C159.885 55.0207 158.681 53.6452 157.071 53.0092L156.986 52.9755L156.9 53.0092C155.258 53.6574 154.079 55.0339 153.666 56.6897C153.254 55.0362 152.077 53.6616 150.44 53.012L150.354 52.9783L150.269 53.012C148.621 53.6597 147.439 55.039 147.026 56.7L147.027 56.6995ZM166.944 48.914C167.357 50.5675 168.533 51.9421 170.171 52.5917L170.256 52.6254L170.342 52.5917C171.718 52.0503 172.821 50.9494 173.367 49.5711L173.401 49.4844L173.367 49.3977C172.718 47.7597 171.349 46.5833 169.704 46.17C171.349 45.7571 172.717 44.5802 173.367 42.9427L173.401 42.856L173.367 42.7693C172.718 41.1313 171.349 39.955 169.704 39.5416C171.349 39.1287 172.717 37.9519 173.367 36.3143L173.401 36.2276L173.367 36.1409C172.823 34.7682 171.726 33.6692 170.356 33.126L170.271 33.0923L170.185 33.126C168.54 33.7732 167.358 35.1502 166.944 36.8083C166.531 35.1502 165.349 33.7727 163.703 33.126L163.618 33.0923L163.532 33.126C161.895 33.7756 160.719 35.1502 160.306 36.8036C159.893 35.1478 158.714 33.7718 157.072 33.1232L156.987 33.0894L156.901 33.1232C155.259 33.7713 154.08 35.1478 153.667 36.8036C153.255 35.1502 152.078 33.7756 150.441 33.126L150.355 33.0923L150.27 33.126C148.893 33.6673 147.791 34.7682 147.245 36.1466L147.211 36.2333L147.245 36.32C147.894 37.9575 149.263 39.1343 150.908 39.5472C149.263 39.9601 147.894 41.1369 147.245 42.7749L147.211 42.8616L147.245 42.9483C147.894 44.5859 149.263 45.7627 150.908 46.1756C149.263 46.5885 147.894 47.7653 147.245 49.4028L147.211 49.4895L147.245 49.5762C147.789 50.949 148.886 52.048 150.256 52.5912L150.341 52.6249L150.427 52.5912C152.072 51.9439 153.254 50.567 153.668 48.9084C154.081 50.5642 155.26 51.9402 156.902 52.5884L156.987 52.6221L157.073 52.5884C158.714 51.9402 159.893 50.5642 160.306 48.9084C160.72 50.567 161.902 51.9439 163.547 52.5912L163.633 52.6249L163.718 52.5912C165.356 51.9416 166.533 50.5665 166.945 48.9136L166.944 48.914Z" fill="black"/>
<path d="M173.586 29.7817C174.154 31.2055 175.288 32.3429 176.708 32.9124C175.307 33.4687 174.167 34.5822 173.583 36.0524C173.017 34.6258 171.877 33.4827 170.455 32.9147C171.922 32.3293 173.032 31.1867 173.586 29.7812M147.026 29.7863C147.58 31.1914 148.69 32.335 150.156 32.9203C148.734 33.4888 147.595 34.6305 147.028 36.0581C146.444 34.5879 145.304 33.4738 143.903 32.918C145.323 32.3481 146.457 31.2106 147.025 29.7863M153.667 29.7887C154.222 31.1905 155.331 32.3303 156.795 32.9152C155.331 33.4996 154.222 34.6399 153.667 36.0421C153.112 34.6399 152.003 33.4996 150.539 32.9152C152.003 32.3308 153.112 31.191 153.667 29.7887ZM160.306 29.7887C160.861 31.191 161.969 32.3303 163.433 32.9152C161.97 33.4996 160.861 34.6399 160.306 36.0421C159.751 34.6399 158.642 33.4996 157.178 32.9152C158.641 32.3308 159.751 31.191 160.306 29.7887ZM166.944 29.7929C167.499 31.1952 168.609 32.3354 170.072 32.9203C168.609 33.5048 167.499 34.6446 166.944 36.0464C166.389 34.6441 165.281 33.5048 163.817 32.9203C165.28 32.3359 166.389 31.1952 166.944 29.7929ZM173.583 36.4053C174.166 37.8732 175.304 38.9863 176.701 39.5431C175.303 40.0999 174.166 41.213 173.583 42.6808C173.001 41.213 171.863 40.0999 170.465 39.5431C171.863 38.9863 173.001 37.8732 173.583 36.4053ZM147.028 36.4105C147.611 37.8784 148.749 38.9915 150.146 39.5482C148.749 40.105 147.611 41.2181 147.028 42.686C146.446 41.2181 145.308 40.105 143.91 39.5482C145.308 38.9915 146.446 37.8784 147.028 36.4105ZM173.583 43.0333C174.166 44.5011 175.304 45.6142 176.701 46.171C175.303 46.7278 174.166 47.8409 173.583 49.3087C173.001 47.8409 171.863 46.7278 170.465 46.171C171.863 45.6142 173.001 44.5011 173.583 43.0333ZM147.028 43.0384C147.611 44.5063 148.749 45.6193 150.146 46.1761C148.749 46.7329 147.611 47.846 147.028 49.3139C146.446 47.846 145.308 46.7329 143.91 46.1761C145.308 45.6193 146.446 44.5063 147.028 43.0384ZM173.583 49.6612C174.167 51.1314 175.307 52.2454 176.708 52.8012C175.288 53.3711 174.154 54.5086 173.586 55.9329C173.032 54.5278 171.921 53.3842 170.456 52.7989C171.878 52.2304 173.017 51.0887 173.584 49.6612M147.028 49.6668C147.595 51.0934 148.734 52.2365 150.156 52.8045C148.69 53.3899 147.58 54.5325 147.026 55.938C146.457 54.5142 145.324 53.3768 143.904 52.8073C145.304 52.251 146.445 51.1375 147.028 49.6672M153.667 49.6724C154.222 51.0742 155.331 52.214 156.795 52.7989C155.331 53.3833 154.222 54.5236 153.667 55.9258C153.112 54.5236 152.003 53.3833 150.539 52.7989C152.003 52.2144 153.112 51.0747 153.667 49.6724ZM160.306 49.6724C160.861 51.0747 161.969 52.214 163.433 52.7989C161.995 53.3735 160.869 54.5161 160.306 55.9366C159.743 54.5161 158.617 53.3739 157.178 52.7989C158.641 52.2144 159.751 51.0747 160.306 49.6724ZM166.944 49.6771C167.499 51.0793 168.609 52.2196 170.072 52.8045C168.609 53.3889 167.499 54.5287 166.944 55.9305C166.389 54.5283 165.281 53.3889 163.817 52.8045C165.28 52.2201 166.389 51.0793 166.944 49.6771ZM160.306 57.7091C160.877 59.1596 162.015 60.2816 163.424 60.8431C162.026 61.3999 160.889 62.513 160.306 63.9808C159.722 62.5125 158.585 61.3999 157.187 60.8431C158.597 60.2816 159.734 59.1592 160.306 57.7091ZM160.306 64.3337C160.872 65.7613 162.011 66.903 163.433 67.4715C161.97 68.0559 160.861 69.1962 160.306 70.5984C159.751 69.1962 158.642 68.0564 157.178 67.4715C158.6 66.9035 159.739 65.7608 160.306 64.3337ZM180.183 64.3366C180.752 65.7627 181.889 66.902 183.311 67.471C181.889 68.04 180.752 69.1793 180.183 70.6054C179.629 69.2013 178.519 68.0578 177.055 67.4719L177.052 67.471L177.055 67.4701C178.519 66.8842 179.629 65.7407 180.183 64.3366ZM140.387 64.338C140.941 65.7435 142.051 66.8856 143.517 67.4715C142.051 68.0568 140.941 69.2004 140.387 70.6054C139.818 69.1793 138.681 68.0404 137.259 67.4715C138.681 66.9025 139.818 65.7636 140.387 64.338M173.584 64.3441C174.139 65.7449 175.247 66.8856 176.709 67.4701L176.712 67.471L176.709 67.4719C175.247 68.0568 174.139 69.1976 173.584 70.5989C173.029 69.1966 171.92 68.0554 170.456 67.471C171.92 66.8861 173.029 65.7463 173.584 64.3436M153.667 64.345C154.222 65.7468 155.331 66.8866 156.795 67.4715C155.331 68.0559 154.222 69.1962 153.667 70.5984C153.112 69.1962 152.003 68.0559 150.539 67.4715C152.003 66.8871 153.112 65.7473 153.667 64.345ZM166.944 64.3497C167.499 65.7519 168.609 66.8922 170.072 67.4771C168.609 68.0615 167.499 69.2013 166.944 70.6031C166.389 69.2009 165.281 68.0615 163.817 67.4771C165.28 66.8927 166.389 65.7519 166.944 64.3497ZM147.028 64.3497C147.583 65.7519 148.693 66.8922 150.156 67.4771C148.693 68.0615 147.583 69.2013 147.028 70.6031C146.473 69.2009 145.365 68.0615 143.9 67.4771C145.364 66.8927 146.473 65.7519 147.028 64.3497ZM173.656 27.7031H173.511C173.511 29.8796 172.162 31.7402 170.257 32.4896C168.36 31.7369 167.017 29.8801 167.017 27.7087H166.872C166.872 29.8801 165.53 31.7369 163.632 32.4896C161.727 31.7402 160.378 29.8801 160.378 27.7031H160.234C160.234 29.8773 158.888 31.736 156.987 32.4868C155.085 31.736 153.739 29.8773 153.739 27.7031H153.595C153.595 29.8796 152.246 31.7402 150.341 32.4896C148.443 31.7369 147.1 29.8801 147.1 27.7087H146.956C146.956 30.547 144.662 32.8482 141.833 32.8482V32.993C143.994 32.993 145.843 34.3357 146.595 36.2348C145.843 38.1338 143.994 39.4765 141.833 39.4765V39.6213C143.994 39.6213 145.843 40.9641 146.595 42.8631C145.843 44.7622 143.994 46.1049 141.833 46.1049V46.2497C143.994 46.2497 145.843 47.5925 146.595 49.4915C145.843 51.3905 143.994 52.7333 141.833 52.7333V52.8781C144.662 52.8781 146.956 55.1792 146.956 58.0175H147.1C147.1 55.841 148.45 53.9804 150.354 53.231C152.252 53.9837 153.595 55.8405 153.595 58.0119H153.739C153.739 55.8377 155.085 53.979 156.987 53.2282C158.53 53.8379 159.707 55.1769 160.096 56.8224C159.561 59.087 157.532 60.7723 155.111 60.7723V60.9172C157.272 60.9172 159.121 62.2599 159.873 64.1589C159.352 65.4764 158.302 66.5257 156.987 67.045C155.086 66.2942 153.74 64.4354 153.74 62.2613H153.595C153.595 64.4378 152.246 66.2984 150.341 67.0478C148.443 66.2951 147.101 64.4382 147.101 62.2669H146.956C146.956 64.4382 145.614 66.2951 143.716 67.0478C141.811 66.2984 140.462 64.4382 140.462 62.2613H140.318C140.318 65.0995 138.024 67.4007 135.194 67.4007V67.5455C138.024 67.5455 140.318 69.8467 140.318 72.6849H140.462C140.462 70.5136 141.805 68.6567 143.702 67.9041C145.608 68.6535 146.956 70.5136 146.956 72.6906H147.101C147.101 70.5141 148.45 68.6535 150.355 67.9041C152.253 68.6567 153.595 70.5136 153.595 72.6849H153.74C153.74 70.5108 155.086 68.6521 156.987 67.9012C158.889 68.6521 160.234 70.5108 160.234 72.6849H160.378C160.378 70.5136 161.721 68.6567 163.619 67.9041C165.524 68.6535 166.873 70.5136 166.873 72.6906H167.017C167.017 70.5136 168.367 68.6535 170.271 67.9041C172.169 68.6567 173.512 70.5136 173.512 72.6849H173.656C173.656 70.5187 174.992 68.6661 176.883 67.9097C178.773 68.6661 180.109 70.5187 180.109 72.6849H180.253C180.253 69.8467 182.547 67.5455 185.377 67.5455V67.4007C182.547 67.4007 180.253 65.0995 180.253 62.2613H180.109C180.109 64.4275 178.773 66.2801 176.883 67.0365C174.992 66.2801 173.656 64.4275 173.656 62.2613H173.512C173.512 64.4378 172.162 66.2984 170.258 67.0478C168.36 66.2951 167.017 64.4382 167.017 62.2669H166.873C166.873 64.4382 165.53 66.2951 163.632 67.0478C162.314 66.5295 161.262 65.4787 160.739 64.1589C161.492 62.2599 163.34 60.9172 165.502 60.9172V60.7723C163.08 60.7723 161.052 59.0875 160.517 56.8224C160.905 55.1792 162.079 53.8417 163.619 53.231C165.524 53.9804 166.873 55.8405 166.873 58.0175H167.017C167.017 55.841 168.367 53.9804 170.271 53.231C172.169 53.9837 173.512 55.8405 173.512 58.0119H173.656C173.656 55.1736 175.95 52.8725 178.779 52.8725V52.7276C176.618 52.7276 174.769 51.3849 174.017 49.4859C174.769 47.5868 176.618 46.2441 178.779 46.2441V46.0993C176.618 46.0993 174.769 44.7566 174.017 42.8575C174.769 40.9585 176.618 39.6157 178.779 39.6157V39.4709C176.618 39.4709 174.769 38.1282 174.017 36.2291C174.769 34.3301 176.618 32.9874 178.779 32.9874V32.8425C175.95 32.8425 173.656 30.5414 173.656 27.7031H173.656ZM153.595 38.1268H153.739C153.739 35.9526 155.085 34.0939 156.987 33.3431C158.888 34.0939 160.234 35.9526 160.234 38.1268H160.378C160.378 35.9554 161.721 34.0986 163.618 33.3459C165.524 34.0953 166.872 35.9554 166.872 38.1324H167.017C167.017 35.9559 168.366 34.0953 170.271 33.3459C171.583 33.8661 172.629 34.9145 173.151 36.2291C172.398 38.1282 170.549 39.4709 168.388 39.4709V39.6157C170.549 39.6157 172.398 40.9585 173.151 42.8575C172.398 44.7566 170.549 46.0993 168.388 46.0993V46.2441C170.549 46.2441 172.398 47.5868 173.151 49.4859C172.628 50.8052 171.576 51.8559 170.257 52.3747C168.36 51.6221 167.017 49.7652 167.017 47.5938H166.872C166.872 49.7652 165.53 51.6221 163.632 52.3747C161.727 51.6253 160.378 49.7652 160.378 47.5882H160.234C160.234 49.7624 158.888 51.6211 156.987 52.3719C155.085 51.6211 153.739 49.7624 153.739 47.5882H153.595C153.595 49.7647 152.246 51.6253 150.341 52.3747C149.029 51.8545 147.982 50.8061 147.461 49.4915C148.214 47.5925 150.062 46.2497 152.224 46.2497V46.1049C150.062 46.1049 148.214 44.7622 147.461 42.8631C148.214 40.9641 150.062 39.6213 152.224 39.6213V39.4765C150.062 39.4765 148.214 38.1338 147.461 36.2348C147.984 34.9155 149.036 33.8647 150.354 33.3459C152.252 34.0986 153.595 35.9554 153.595 38.1268Z" fill="black"/>
<path d="M208.416 56.7047C207.936 54.7949 206.436 53.2886 204.532 52.8058C206.179 52.3939 207.55 51.2166 208.2 49.5772L208.234 49.4905L208.2 49.4038C207.551 47.7663 206.182 46.5894 204.537 46.1765C206.182 45.7636 207.551 44.5868 208.2 42.9493L208.234 42.8626L208.2 42.7759C207.551 41.1384 206.182 39.9615 204.537 39.5486C206.182 39.1357 207.55 37.9589 208.2 36.3214L208.234 36.2347L208.2 36.148C207.654 34.7696 206.551 33.6687 205.175 33.1274L205.089 33.0936L205.004 33.1274C203.366 33.777 202.189 35.152 201.777 36.805C201.365 35.1516 200.188 33.7765 198.55 33.1274L198.465 33.0936L198.379 33.1274C196.732 33.7751 195.55 35.1544 195.137 36.8149C194.656 34.9065 193.154 33.4011 191.251 32.9203C193.154 32.4394 194.656 30.934 195.138 29.0251C195.549 30.6805 196.726 32.0574 198.365 32.7075L198.451 32.7412L198.536 32.7075C200.182 32.0602 201.364 30.6833 201.777 29.0251C202.191 30.6833 203.373 32.0607 205.018 32.7075L205.104 32.7412L205.189 32.7075C206.827 32.0579 208.004 30.6828 208.416 29.0298C208.828 30.6833 210.005 32.0584 211.642 32.7075L211.728 32.7412L211.813 32.7075C213.459 32.0602 214.641 30.6833 215.054 29.0247C215.467 30.6805 216.646 32.0565 218.288 32.7047L218.373 32.7384L218.459 32.7047C220.102 32.0556 221.282 30.6777 221.694 29.0195C222.175 30.927 223.674 32.4314 225.576 32.9132C223.929 33.3252 222.558 34.5025 221.908 36.1419L221.874 36.2286L221.908 36.3153C222.557 37.9528 223.927 39.1296 225.572 39.5425C223.927 39.9554 222.558 41.1322 221.908 42.7698L221.874 42.8565L221.908 42.9432C222.557 44.5807 223.927 45.7575 225.572 46.1704C223.927 46.5833 222.558 47.7601 221.908 49.3977L221.874 49.4844L221.908 49.5711C222.558 51.21 223.929 52.3878 225.576 52.7997C223.673 53.282 222.172 54.7888 221.692 56.6986C221.213 54.7892 219.712 53.2825 217.809 52.7997C219.455 52.3878 220.827 51.2105 221.477 49.5711L221.511 49.4844L221.477 49.3977C220.828 47.7601 219.458 46.5833 217.813 46.1704C219.458 45.7575 220.827 44.5807 221.477 42.9432L221.511 42.8565L221.477 42.7698C220.828 41.1322 219.458 39.9554 217.813 39.5425C219.458 39.1296 220.827 37.9528 221.477 36.3153L221.511 36.2286L221.477 36.1419C220.931 34.7663 219.832 33.6664 218.458 33.1241L218.373 33.0904L218.288 33.1241C216.646 33.7723 215.467 35.1488 215.054 36.8046C214.641 35.1511 213.465 33.7765 211.827 33.1269L211.742 33.0932L211.656 33.1269C210.28 33.6682 209.177 34.7691 208.631 36.1475L208.597 36.2342L208.631 36.3209C209.28 37.9584 210.649 39.1353 212.294 39.5482C210.649 39.9611 209.28 41.1379 208.631 42.7754L208.597 42.8621L208.631 42.9488C209.28 44.5863 210.649 45.7632 212.294 46.1761C210.649 46.589 209.28 47.7658 208.631 49.4033L208.597 49.49L208.631 49.5767C209.28 51.2156 210.652 52.3934 212.299 52.8054C210.396 53.2876 208.895 54.7944 208.415 56.7042L208.416 56.7047Z" fill="black"/>
<path d="M221.696 29.7812C222.264 31.205 223.398 32.3425 224.817 32.9124C223.417 33.4687 222.276 34.5822 221.693 36.0524C221.126 34.6253 219.987 33.4827 218.566 32.9147C220.032 32.3293 221.142 31.1863 221.696 29.7812ZM195.135 29.7863C195.689 31.1914 196.8 32.335 198.265 32.9203C196.799 33.5057 195.689 34.6483 195.135 36.0538C194.566 34.6281 193.429 33.4893 192.007 32.9203C193.43 32.3514 194.566 31.2125 195.135 29.7863ZM215.055 29.7887C215.61 31.1905 216.719 32.3303 218.182 32.9152C216.718 33.4996 215.609 34.6399 215.054 36.0421C214.499 34.6399 213.39 33.4996 211.927 32.9152C213.39 32.3308 214.5 31.191 215.055 29.7887ZM201.777 29.7887C202.332 31.191 203.441 32.3303 204.905 32.9147C203.441 33.4991 202.332 34.6399 201.777 36.0421C201.222 34.6399 200.113 33.4996 198.649 32.9147C200.113 32.3303 201.222 31.1905 201.777 29.7887ZM208.416 29.7929C208.971 31.1952 210.08 32.3354 211.544 32.9203C210.121 33.4888 208.982 34.6305 208.416 36.0581C207.849 34.6305 206.71 33.4888 205.288 32.9203C206.752 32.3359 207.86 31.1952 208.416 29.7929ZM221.693 36.4053C222.276 37.8732 223.414 38.9863 224.811 39.5431C223.414 40.0999 222.276 41.213 221.693 42.6808C221.111 41.213 219.973 40.0999 218.575 39.5431C219.973 38.9863 221.111 37.8732 221.693 36.4053ZM208.416 36.4105C208.998 37.8784 210.136 38.9915 211.534 39.5482C210.136 40.105 208.998 41.2181 208.416 42.686C207.833 41.2181 206.695 40.105 205.298 39.5482C206.695 38.9915 207.833 37.8784 208.416 36.4105ZM221.693 43.0333C222.276 44.5011 223.414 45.6142 224.811 46.171C223.414 46.7278 222.276 47.8409 221.693 49.3087C221.111 47.8409 219.973 46.7278 218.575 46.171C219.973 45.6142 221.111 44.5011 221.693 43.0333ZM208.416 43.0384C208.998 44.5063 210.136 45.6194 211.534 46.1761C210.136 46.7329 208.998 47.846 208.416 49.3139C207.833 47.846 206.695 46.7329 205.298 46.1761C206.695 45.6194 207.833 44.5063 208.416 43.0384ZM221.693 49.6612C222.277 51.1314 223.417 52.2454 224.818 52.8012C223.396 53.3721 222.261 54.5123 221.693 55.9394C221.126 54.5123 219.99 53.3721 218.569 52.8012C219.969 52.2449 221.109 51.1314 221.693 49.6612ZM208.416 49.6663C208.999 51.1365 210.14 52.2505 211.54 52.8064C210.119 53.3772 208.983 54.5175 208.416 55.9446C207.849 54.5175 206.713 53.3772 205.291 52.8064C206.692 52.2501 207.832 51.1365 208.416 49.6663ZM221.765 27.7031H221.621C221.621 29.8773 220.275 31.736 218.373 32.4868C216.472 31.736 215.126 29.8773 215.126 27.7031H214.982C214.982 29.8796 213.633 31.7402 211.728 32.4896C209.83 31.7369 208.488 29.8801 208.488 27.7087H208.343C208.343 29.8801 207.001 31.7369 205.103 32.4896C203.198 31.7402 201.849 29.8801 201.849 27.7031H201.704C201.704 29.8796 200.355 31.7402 198.45 32.4896C196.553 31.7369 195.21 29.8801 195.21 27.7087H195.066C195.066 30.547 192.772 32.8482 189.942 32.8482V32.993C192.772 32.993 195.066 35.2941 195.066 38.1324H195.21C195.21 35.9559 196.559 34.0953 198.464 33.3459C200.362 34.0986 201.704 35.9554 201.704 38.1268H201.849C201.849 35.9554 203.192 34.0986 205.089 33.3459C206.408 33.8642 207.46 34.915 207.983 36.2348C207.23 38.1338 205.381 39.4765 203.22 39.4765V39.6213C205.381 39.6213 207.23 40.9641 207.983 42.8631C207.23 44.7622 205.381 46.1049 203.22 46.1049V46.2497C205.381 46.2497 207.23 47.5925 207.983 49.4915C207.23 51.3905 205.381 52.7333 203.22 52.7333V52.8781C206.049 52.8781 208.343 55.1792 208.343 58.0175H208.488C208.488 55.1792 210.782 52.8781 213.611 52.8781V52.7333C211.45 52.7333 209.601 51.3905 208.848 49.4915C209.601 47.5925 211.45 46.2497 213.611 46.2497V46.1049C211.45 46.1049 209.601 44.7622 208.848 42.8631C209.601 40.9641 211.45 39.6213 213.611 39.6213V39.4765C211.45 39.4765 209.601 38.1338 208.848 36.2348C209.371 34.9155 210.423 33.8647 211.742 33.3459C213.639 34.0986 214.982 35.9554 214.982 38.1268H215.126C215.126 35.9526 216.472 34.0939 218.373 33.3431C219.689 33.8624 220.738 34.9122 221.26 36.2291C220.507 38.1282 218.658 39.4709 216.497 39.4709V39.6157C218.658 39.6157 220.507 40.9585 221.26 42.8575C220.507 44.7566 218.658 46.0993 216.497 46.0993V46.2441C218.658 46.2441 220.507 47.5868 221.26 49.4859C220.507 51.3849 218.658 52.7276 216.497 52.7276V52.8725C219.327 52.8725 221.62 55.1736 221.62 58.0119H221.765C221.765 55.1736 224.059 52.8725 226.888 52.8725V52.7276C224.727 52.7276 222.878 51.3849 222.126 49.4859C222.878 47.5868 224.727 46.2441 226.888 46.2441V46.0993C224.727 46.0993 222.878 44.7566 222.126 42.8575C222.878 40.9585 224.727 39.6157 226.888 39.6157V39.4709C224.727 39.4709 222.878 38.1282 222.126 36.2291C222.878 34.3301 224.727 32.9874 226.888 32.9874V32.8425C224.059 32.8425 221.765 30.5414 221.765 27.7031H221.765Z" fill="black"/>
<path d="M234.97 69.9556C234.491 68.0458 232.99 66.539 231.087 66.0568C232.734 65.6448 234.105 64.4675 234.754 62.8281L234.788 62.7414L234.754 62.6547C234.105 61.0167 232.736 59.8404 231.091 59.427C232.736 59.0141 234.105 57.8373 234.754 56.1998L234.788 56.113L234.754 56.0263C234.105 54.3888 232.736 53.212 231.091 52.7991C232.736 52.3862 234.105 51.2094 234.754 49.5719L234.788 49.4851L234.754 49.3984C234.105 47.7604 232.736 46.5841 231.091 46.1707C232.736 45.7578 234.105 44.581 234.754 42.9435L234.788 42.8568L234.754 42.7701C234.105 41.1325 232.736 39.9557 231.091 39.5428C232.736 39.1299 234.105 37.9531 234.754 36.3156L234.788 36.2289L234.754 36.1422C234.105 34.5032 232.734 33.3255 231.087 32.9135C232.99 32.4312 234.491 30.9245 234.97 29.0146C235.45 30.9245 236.951 32.4312 238.854 32.9135C237.207 33.3255 235.835 34.5028 235.186 36.1422L235.152 36.2289L235.186 36.3156C235.835 37.9536 237.204 39.1299 238.849 39.5428C237.204 39.9557 235.835 41.1325 235.186 42.7705L235.152 42.8572L235.186 42.9439C235.824 44.5533 237.19 45.7517 238.856 46.1712C237.19 46.5907 235.823 47.7909 235.186 49.3989L235.152 49.4856L235.186 49.5723C235.835 51.2098 237.204 52.3867 238.849 52.7996C237.204 53.2124 235.835 54.3893 235.186 56.0268L235.152 56.1135L235.186 56.2002C235.835 57.8382 237.204 59.0146 238.849 59.4279C237.204 59.8408 235.835 61.0176 235.186 62.6552L235.152 62.7419L235.186 62.8286C235.835 64.4675 237.207 65.6453 238.854 66.0573C236.951 66.5395 235.45 68.0463 234.97 69.9561V69.9556ZM243.072 50.0841C242.594 48.2019 241.111 46.6628 239.188 46.1773C241.14 45.6866 242.606 44.1742 243.075 42.2822C243.556 44.1906 245.058 45.6964 246.961 46.1768C245.054 46.6586 243.55 48.1691 243.072 50.0836V50.0841Z" fill="black"/>
<path d="M234.971 29.7742C235.538 31.2013 236.674 32.3415 238.095 32.9124C236.695 33.4687 235.554 34.5827 234.971 36.0524C234.387 34.5822 233.247 33.4682 231.846 32.9124C233.268 32.3415 234.403 31.2013 234.971 29.7742ZM234.971 36.4049C235.553 37.8727 236.691 38.9858 238.089 39.5426C236.691 40.0994 235.553 41.2125 234.971 42.6803C234.388 41.2125 233.25 40.0994 231.853 39.5426C233.25 38.9858 234.388 37.8727 234.971 36.4049ZM234.971 43.0333C235.545 44.4791 236.682 45.6067 238.098 46.171C236.682 46.7357 235.544 47.8643 234.971 49.3087C234.388 47.8409 233.25 46.7278 231.853 46.171C233.25 45.6142 234.388 44.5011 234.971 43.0333ZM243.077 43.0431C243.646 44.4688 244.783 45.6072 246.205 46.1761C244.783 46.7451 243.647 47.883 243.077 49.3082C242.52 47.8905 241.401 46.7498 239.951 46.1761C241.4 45.602 242.519 44.4604 243.077 43.0431ZM234.971 49.6612C235.553 51.129 236.691 52.2421 238.089 52.7989C236.691 53.3557 235.553 54.4688 234.971 55.9366C234.388 54.4688 233.25 53.3557 231.853 52.7989C233.25 52.2421 234.388 51.129 234.971 49.6612ZM234.971 56.2891C235.553 57.7569 236.691 58.87 238.089 59.4268C236.691 59.9836 235.553 61.0967 234.971 62.5645C234.388 61.0967 233.25 59.9836 231.853 59.4268C233.25 58.87 234.388 57.7569 234.971 56.2891ZM234.971 62.9174C235.554 64.3876 236.695 65.5017 238.095 66.0575C236.674 66.6283 235.538 67.7686 234.971 69.1957C234.403 67.7686 233.268 66.6283 231.846 66.0575C233.247 65.5012 234.387 64.3872 234.971 62.9174ZM235.043 27.7031H234.899C234.899 30.5414 232.605 32.8425 229.775 32.8425V32.9874C231.937 32.9874 233.785 34.3301 234.538 36.2291C233.785 38.1282 231.937 39.4709 229.775 39.4709V39.6157C231.937 39.6157 233.785 40.9585 234.538 42.8575C233.785 44.7566 231.937 46.0993 229.775 46.0993V46.2441C231.937 46.2441 233.785 47.5868 234.538 49.4859C233.785 51.3849 231.937 52.7276 229.775 52.7276V52.8725C231.937 52.8725 233.785 54.2152 234.538 56.1142C233.785 58.0133 231.937 59.356 229.775 59.356V59.5008C231.937 59.5008 233.785 60.8436 234.538 62.7426C233.785 64.6416 231.937 65.9844 229.775 65.9844V66.1292C232.605 66.1292 234.899 68.4304 234.899 71.2686H235.043C235.043 68.4304 237.337 66.1292 240.166 66.1292V65.9844C238.005 65.9844 236.156 64.6416 235.404 62.7426C236.156 60.8436 238.005 59.5008 240.166 59.5008V59.356C238.005 59.356 236.156 58.0133 235.404 56.1142C236.156 54.2152 238.005 52.8725 240.166 52.8725V52.7276C238.005 52.7276 236.156 51.3849 235.404 49.4859C236.018 47.936 237.362 46.7568 239.01 46.3758C241.295 46.8927 243.002 48.9408 243.002 51.3891H243.146C243.146 48.5509 245.44 46.2497 248.269 46.2497V46.1049C245.44 46.1049 243.146 43.8037 243.146 40.9655H243.002C243.002 43.4049 241.307 45.4478 239.034 45.9732C237.375 45.5978 236.02 44.4149 235.403 42.8575C236.156 40.9585 238.005 39.6157 240.166 39.6157V39.4709C238.005 39.4709 236.156 38.1282 235.403 36.2291C236.156 34.3301 238.005 32.9874 240.166 32.9874V32.8425C237.336 32.8425 235.043 30.5414 235.043 27.7031H235.043Z" fill="black"/>
<path d="M297.78 71.3674C297.37 69.7177 296.198 68.3431 294.567 67.6903L294.481 67.6556L294.394 67.6903C292.765 68.3422 291.594 69.7149 291.182 71.3628C290.77 69.7093 289.593 68.3342 287.955 67.6842L287.87 67.6504L287.784 67.6842C286.139 68.3314 284.957 69.7083 284.543 71.367C284.13 69.7083 282.948 68.3314 281.303 67.6842L281.217 67.6504L281.132 67.6842C279.494 68.3337 278.318 69.7084 277.905 71.3618C277.492 69.706 276.313 68.33 274.671 67.6813L274.586 67.6476L274.5 67.6813C272.858 68.3295 271.679 69.706 271.266 71.3618C270.854 69.7084 269.677 68.3337 268.04 67.6842L267.954 67.6504L267.869 67.6842C266.223 68.3314 265.041 69.7083 264.628 71.367C264.214 69.7083 263.032 68.3314 261.387 67.6842L261.302 67.6504L261.216 67.6842C259.577 68.3342 258.4 69.7111 257.988 71.3665C257.507 69.4576 256.005 67.9522 254.102 67.4714C256.005 66.9905 257.507 65.4856 257.988 63.5768C258.4 65.2377 259.583 66.6165 261.23 67.2642L261.316 67.298L261.401 67.2642C263.039 66.6147 264.215 65.2396 264.627 63.5866C265.04 65.2401 266.216 66.6151 267.854 67.2642L267.939 67.298L268.025 67.2642C269.67 66.617 270.852 65.2401 271.266 63.5814C271.679 65.2372 272.858 66.6133 274.5 67.2614L274.585 67.2952L274.671 67.2614C276.043 66.7192 277.144 65.6192 277.689 64.2437L277.723 64.157L277.689 64.0703C277.04 62.4323 275.67 61.2554 274.026 60.8425C275.908 60.3697 277.416 58.8999 277.905 56.9442C278.394 58.8999 279.901 60.3697 281.784 60.8425C280.139 61.2554 278.769 62.4323 278.121 64.0703L278.086 64.157L278.121 64.2437C278.667 65.622 279.769 66.7229 281.146 67.2642L281.231 67.298L281.317 67.2642C282.954 66.6147 284.131 65.2396 284.543 63.5866C284.956 65.2401 286.132 66.6147 287.769 67.2642L287.855 67.298L287.94 67.2642C289.586 66.617 290.768 65.2396 291.182 63.5805C291.593 65.2283 292.764 66.6006 294.393 67.2525L294.48 67.2872L294.566 67.2525C296.197 66.6001 297.369 65.2255 297.779 63.5754C298.26 65.4842 299.762 66.9901 301.666 67.4709C299.762 67.9518 298.26 69.4576 297.779 71.3665L297.78 71.3674ZM264.626 56.6995C264.145 54.792 262.645 53.2876 260.744 52.8058C262.391 52.3939 263.761 51.2166 264.411 49.5772L264.445 49.4905L264.411 49.4038C263.762 47.7663 262.393 46.5894 260.748 46.1765C262.393 45.7636 263.762 44.5868 264.411 42.9493L264.445 42.8626L264.411 42.7759C263.762 41.1379 262.393 39.9615 260.748 39.5482C262.393 39.1353 263.762 37.9584 264.411 36.3209L264.445 36.2342L264.411 36.1475C263.761 34.5086 262.391 33.3308 260.744 32.9188C262.645 32.4366 264.145 30.9322 264.626 29.0247C265.037 30.68 266.214 32.057 267.853 32.7075L267.939 32.7412L268.024 32.7075C269.67 32.0602 270.852 30.6833 271.265 29.0247C271.678 30.6805 272.858 32.0565 274.499 32.7047L274.585 32.7384L274.67 32.7047C276.312 32.0565 277.491 30.6805 277.904 29.0247C278.318 30.6833 279.5 32.0602 281.145 32.7075L281.231 32.7412L281.316 32.7075C282.954 32.0579 284.13 30.6828 284.543 29.0298C284.955 30.6833 286.131 32.0579 287.769 32.7075L287.854 32.7412L287.94 32.7075C289.587 32.0598 290.77 30.6805 291.182 29.0195C291.663 30.927 293.163 32.4314 295.064 32.9132C293.417 33.3252 292.047 34.5025 291.397 36.1419L291.363 36.2286L291.397 36.3153C292.046 37.9533 293.415 39.1296 295.06 39.543C293.415 39.9559 292.046 41.1327 291.397 42.7702L291.363 42.857L291.397 42.9436C292.046 44.5816 293.415 45.758 295.06 46.1714C293.415 46.5843 292.046 47.7611 291.397 49.3986L291.363 49.4853L291.397 49.572C292.046 51.211 293.418 52.3887 295.064 52.8007C293.163 53.2829 291.663 54.7874 291.182 56.6948C290.771 55.0395 289.594 53.6626 287.954 53.012L287.869 52.9783L287.783 53.012C286.138 53.6593 284.956 55.0362 284.543 56.6948C284.129 55.0367 282.947 53.6593 281.302 53.012L281.216 52.9783L281.131 53.012C279.525 53.649 278.323 55.0236 277.904 56.6981C277.484 55.0207 276.28 53.6452 274.67 53.0092L274.585 52.9755L274.499 53.0092C272.858 53.6574 271.678 55.0339 271.265 56.6897C270.853 55.0362 269.676 53.6616 268.039 53.012L267.953 52.9783L267.868 53.012C266.221 53.6597 265.038 55.039 264.626 56.7V56.6995ZM284.543 48.914C284.956 50.5675 286.132 51.9421 287.769 52.5917L287.855 52.6254L287.94 52.5917C289.317 52.0503 290.419 50.9494 290.966 49.5711L291 49.4844L290.966 49.3977C290.317 47.7601 288.947 46.5833 287.302 46.1704C288.947 45.7575 290.316 44.5807 290.966 42.9427L291 42.856L290.966 42.7693C290.317 41.1313 288.947 39.955 287.302 39.5416C288.947 39.1287 290.316 37.9519 290.966 36.3143L291 36.2276L290.966 36.1409C290.421 34.7682 289.324 33.6692 287.955 33.126L287.869 33.0923L287.784 33.126C286.138 33.7732 284.956 35.1502 284.543 36.8083C284.13 35.1502 282.948 33.7727 281.302 33.126L281.217 33.0923L281.131 33.126C279.494 33.7756 278.317 35.1502 277.905 36.8036C277.492 35.1478 276.312 33.7718 274.671 33.1232L274.585 33.0894L274.5 33.1232C272.858 33.7713 271.679 35.1478 271.266 36.8036C270.853 35.1502 269.677 33.7756 268.039 33.126L267.954 33.0923L267.868 33.126C266.492 33.6673 265.389 34.7682 264.843 36.1466L264.809 36.2333L264.843 36.32C265.492 37.958 266.862 39.1343 268.507 39.5477C266.862 39.9606 265.493 41.1374 264.843 42.7749L264.809 42.8616L264.843 42.9483C265.492 44.5859 266.862 45.7627 268.507 46.1756C266.862 46.5885 265.492 47.7653 264.843 49.4028L264.809 49.4895L264.843 49.5762C265.388 50.949 266.485 52.048 267.854 52.5912L267.94 52.6249L268.025 52.5912C269.671 51.9439 270.853 50.567 271.266 48.9084C271.679 50.5642 272.858 51.9402 274.5 52.5884L274.586 52.6221L274.671 52.5884C276.312 51.9402 277.492 50.5642 277.905 48.9084C278.319 50.567 279.501 51.9439 281.146 52.5912L281.232 52.6249L281.317 52.5912C282.955 51.9416 284.131 50.5665 284.543 48.9136L284.543 48.914Z" fill="black"/>
<path d="M291.185 29.7817C291.753 31.2055 292.887 32.3429 294.306 32.9124C292.906 33.4687 291.765 34.5822 291.182 36.0524C290.616 34.6258 289.476 33.4827 288.054 32.9147C289.521 32.3293 290.631 31.1867 291.185 29.7812M264.624 29.7863C265.178 31.1914 266.289 32.335 267.754 32.9203C266.332 33.4888 265.193 34.6305 264.627 36.0581C264.043 34.5879 262.903 33.4738 261.502 32.918C262.922 32.3481 264.056 31.2106 264.624 29.7863M271.266 29.7887C271.821 31.1905 272.93 32.3303 274.393 32.9152C272.93 33.4996 271.82 34.6399 271.265 36.0421C270.71 34.6399 269.601 33.4996 268.138 32.9152C269.602 32.3308 270.711 31.191 271.266 29.7887ZM277.904 29.7887C278.459 31.191 279.568 32.3303 281.032 32.9152C279.569 33.4996 278.46 34.6399 277.905 36.0421C277.35 34.6399 276.241 33.4996 274.777 32.9152C276.24 32.3308 277.349 31.191 277.904 29.7887ZM284.543 29.7929C285.098 31.1952 286.207 32.3354 287.671 32.9203C286.207 33.5048 285.098 34.6446 284.543 36.0464C283.988 34.6441 282.879 33.5048 281.415 32.9203C282.879 32.3359 283.988 31.1952 284.543 29.7929ZM291.182 36.4053C291.764 37.8732 292.903 38.9863 294.3 39.5431C292.902 40.0999 291.764 41.213 291.182 42.6808C290.599 41.213 289.461 40.0999 288.064 39.5431C289.462 38.9863 290.599 37.8732 291.182 36.4053ZM264.627 36.4105C265.209 37.8784 266.347 38.9915 267.745 39.5482C266.347 40.105 265.209 41.2181 264.627 42.686C264.044 41.2181 262.906 40.105 261.508 39.5482C262.906 38.9915 264.044 37.8784 264.627 36.4105ZM291.182 43.0333C291.764 44.5011 292.903 45.6142 294.3 46.171C292.902 46.7278 291.764 47.8409 291.182 49.3087C290.599 47.8409 289.461 46.7278 288.064 46.171C289.462 45.6142 290.599 44.5011 291.182 43.0333ZM264.627 43.0384C265.209 44.5063 266.347 45.6193 267.745 46.1761C266.347 46.7329 265.209 47.846 264.627 49.3139C264.044 47.846 262.906 46.7329 261.508 46.1761C262.906 45.6193 264.044 44.5063 264.627 43.0384ZM291.182 49.6612C291.765 51.1314 292.906 52.2454 294.306 52.8012C292.887 53.3711 291.753 54.5086 291.185 55.9329C290.631 54.5278 289.52 53.3842 288.054 52.7989C289.477 52.2304 290.616 51.0887 291.182 49.6612M264.627 49.6663C265.193 51.0929 266.332 52.236 267.754 52.804C266.288 53.3894 265.178 54.532 264.624 55.9376C264.056 54.5137 262.922 53.3763 261.502 52.8068C262.903 52.2505 264.043 51.137 264.627 49.6668M271.266 49.6724C271.821 51.0742 272.93 52.214 274.393 52.7989C272.93 53.3833 271.82 54.5236 271.265 55.9258C270.71 54.5236 269.601 53.3833 268.138 52.7989C269.602 52.2144 270.711 51.0747 271.266 49.6724ZM277.904 49.6724C278.459 51.0747 279.568 52.214 281.032 52.7989C279.594 53.3735 278.468 54.5161 277.904 55.9366C277.341 54.5161 276.215 53.3739 274.777 52.7994C276.24 52.2149 277.349 51.0751 277.904 49.6729M284.543 49.6771C285.098 51.0793 286.207 52.2196 287.671 52.8045C286.207 53.3889 285.098 54.5287 284.543 55.9305C283.988 54.5283 282.879 53.3889 281.415 52.8045C282.879 52.2201 283.988 51.0793 284.543 49.6771ZM277.904 57.7091C278.476 59.1596 279.613 60.2816 281.023 60.8431C279.625 61.3999 278.487 62.513 277.904 63.9808C277.321 62.513 276.184 61.3999 274.786 60.8431C276.195 60.2816 277.332 59.1592 277.904 57.7091ZM277.904 64.3337C278.471 65.7613 279.61 66.903 281.032 67.4715C279.569 68.0559 278.46 69.1962 277.905 70.5984C277.35 69.1962 276.241 68.0564 274.777 67.4715C276.199 66.9035 277.338 65.7608 277.904 64.3337ZM297.781 64.3366C298.35 65.7627 299.487 66.902 300.91 67.471C299.487 68.04 298.35 69.1793 297.781 70.6054C297.227 69.2013 296.118 68.0578 294.654 67.4719L294.651 67.471L294.654 67.4701C296.118 66.8842 297.227 65.7407 297.781 64.3366ZM257.985 64.338C258.539 65.7435 259.649 66.8856 261.116 67.4715C259.65 68.0568 258.539 69.1999 257.985 70.6054C257.416 69.1793 256.28 68.0404 254.857 67.4715C256.28 66.9025 257.416 65.7641 257.985 64.338M291.182 64.3441C291.737 65.7449 292.846 66.8856 294.307 67.4705L294.31 67.4715L294.307 67.4724C292.846 68.0573 291.737 69.198 291.182 70.5994C290.627 69.1966 289.518 68.0564 288.054 67.4715C289.519 66.8866 290.628 65.7468 291.183 64.3441M271.266 64.345C271.821 65.7468 272.93 66.8871 274.393 67.4715C272.93 68.0559 271.82 69.1962 271.265 70.5984C270.71 69.1962 269.601 68.0559 268.138 67.4715C269.602 66.8871 270.711 65.7473 271.266 64.345ZM264.627 64.3497C265.182 65.7519 266.291 66.8922 267.754 67.4771C266.291 68.0615 265.182 69.2013 264.627 70.6031C264.072 69.2009 262.963 68.0615 261.499 67.4771C262.962 66.8927 264.071 65.7519 264.627 64.3497ZM284.543 64.3497C285.098 65.7519 286.207 66.8922 287.671 67.4771C286.207 68.0615 285.098 69.2013 284.543 70.6031C283.988 69.2009 282.879 68.0615 281.415 67.4771C282.879 66.8927 283.988 65.7519 284.543 64.3497ZM291.254 27.7031H291.11C291.11 29.8796 289.761 31.7402 287.856 32.4896C285.958 31.7369 284.615 29.8801 284.615 27.7087H284.471C284.471 29.8801 283.128 31.7369 281.231 32.4896C279.325 31.7402 277.977 29.8801 277.977 27.7031H277.832C277.832 29.8773 276.486 31.736 274.585 32.4868C272.683 31.736 271.338 29.8773 271.338 27.7031H271.193C271.193 29.8796 269.844 31.7402 267.939 32.4896C266.042 31.7369 264.699 29.8801 264.699 27.7087H264.555C264.555 30.547 262.261 32.8482 259.431 32.8482V32.993C261.593 32.993 263.441 34.3357 264.194 36.2348C263.441 38.1338 261.593 39.4765 259.431 39.4765V39.6213C261.593 39.6213 263.441 40.9641 264.194 42.8631C263.441 44.7622 261.593 46.1049 259.431 46.1049V46.2497C261.593 46.2497 263.441 47.5925 264.194 49.4915C263.441 51.3905 261.593 52.7333 259.431 52.7333V52.8781C262.261 52.8781 264.555 55.1792 264.555 58.0175H264.699C264.699 55.841 266.048 53.9804 267.953 53.231C269.851 53.9837 271.193 55.8405 271.193 58.0119H271.338C271.338 55.8377 272.684 53.979 274.585 53.2282C276.128 53.8379 277.305 55.1769 277.694 56.8224C277.159 59.087 275.13 60.7723 272.709 60.7723V60.9172C274.87 60.9172 276.719 62.2599 277.472 64.1589C276.95 65.4764 275.9 66.5257 274.585 67.045C272.684 66.2942 271.338 64.4354 271.338 62.2613H271.194C271.194 64.4378 269.845 66.2984 267.94 67.0478C266.042 66.2951 264.699 64.4382 264.699 62.2669H264.555C264.555 64.4382 263.212 66.2951 261.315 67.0478C259.409 66.2984 258.061 64.4382 258.061 62.2613H257.916C257.916 65.0995 255.622 67.4007 252.793 67.4007V67.5455C255.622 67.5455 257.916 69.8467 257.916 72.6849H258.061C258.061 70.5136 259.403 68.6567 261.301 67.9041C263.206 68.6535 264.555 70.5136 264.555 72.6906H264.699C264.699 70.5141 266.049 68.6535 267.953 67.9041C269.851 68.6567 271.194 70.5136 271.194 72.6849H271.338C271.338 70.5108 272.684 68.6521 274.585 67.9012C276.487 68.6521 277.833 70.5108 277.833 72.6849H277.977C277.977 70.5136 279.32 68.6567 281.218 67.9041C283.123 68.6535 284.472 70.5136 284.472 72.6906H284.616C284.616 70.5136 285.965 68.6535 287.87 67.9041C289.768 68.6567 291.11 70.5136 291.11 72.6849H291.255C291.255 70.5187 292.59 68.6661 294.481 67.9097C296.371 68.6661 297.708 70.5187 297.708 72.6849H297.852C297.852 69.8467 300.146 67.5455 302.975 67.5455V67.4007C300.146 67.4007 297.852 65.0995 297.852 62.2613H297.708C297.708 64.4275 296.371 66.2801 294.481 67.0365C292.591 66.2801 291.255 64.4275 291.255 62.2613H291.11C291.11 64.4378 289.761 66.2984 287.856 67.0478C285.959 66.2951 284.616 64.4382 284.616 62.2669H284.472C284.472 64.4382 283.129 66.2951 281.231 67.0478C279.913 66.5295 278.861 65.4787 278.338 64.1589C279.09 62.2599 280.939 60.9172 283.1 60.9172V60.7723C280.679 60.7723 278.65 59.0875 278.115 56.8224C278.504 55.1792 279.678 53.8417 281.218 53.231C283.123 53.9804 284.472 55.8405 284.472 58.0175H284.616C284.616 55.841 285.965 53.9804 287.87 53.231C289.768 53.9837 291.11 55.8405 291.11 58.0119H291.255C291.255 55.1736 293.549 52.8725 296.378 52.8725V52.7276C294.217 52.7276 292.368 51.3849 291.615 49.4859C292.368 47.5868 294.217 46.2441 296.378 46.2441V46.0993C294.217 46.0993 292.368 44.7566 291.615 42.8575C292.368 40.9585 294.217 39.6157 296.378 39.6157V39.4709C294.217 39.4709 292.368 38.1282 291.615 36.2291C292.368 34.3301 294.217 32.9874 296.378 32.9874V32.8425C293.549 32.8425 291.255 30.5414 291.255 27.7031H291.254ZM271.193 38.1268H271.338C271.338 35.9526 272.684 34.0939 274.585 33.3431C276.486 34.0939 277.832 35.9526 277.832 38.1268H277.977C277.977 35.9554 279.319 34.0986 281.217 33.3459C283.122 34.0953 284.471 35.9554 284.471 38.1324H284.615C284.615 35.9559 285.965 34.0953 287.869 33.3459C289.181 33.8661 290.228 34.9145 290.749 36.2291C289.997 38.1282 288.148 39.4709 285.987 39.4709V39.6157C288.148 39.6157 289.997 40.9585 290.749 42.8575C289.997 44.7566 288.148 46.0993 285.987 46.0993V46.2441C288.148 46.2441 289.997 47.5868 290.749 49.4859C290.226 50.8052 289.174 51.8559 287.856 52.3747C285.958 51.6221 284.615 49.7652 284.615 47.5938H284.471C284.471 49.7652 283.128 51.6221 281.231 52.3747C279.325 51.6253 277.977 49.7652 277.977 47.5882H277.832C277.832 49.7624 276.486 51.6211 274.585 52.3719C272.683 51.6211 271.338 49.7624 271.338 47.5882H271.193C271.193 49.7647 269.844 51.6253 267.939 52.3747C266.628 51.8545 265.581 50.8061 265.06 49.4915C265.812 47.5925 267.661 46.2497 269.822 46.2497V46.1049C267.661 46.1049 265.812 44.7622 265.06 42.8631C265.812 40.9641 267.661 39.6213 269.822 39.6213V39.4765C267.661 39.4765 265.812 38.1338 265.06 36.2348C265.582 34.9155 266.635 33.8647 267.953 33.3459C269.851 34.0986 271.193 35.9554 271.193 38.1268Z" fill="black"/>
<rect x="20" y="564.272" width="335" height="56" rx="2" fill="black"/>
<path d="M142.9 590.64H144.772V585.664H146.244V598.832H144.772V591.92H142.9V590.64ZM137.556 596.224V587.008H142.804V588.256H139.044V590.848H142.196V592.064H139.044V594.96C140.836 594.944 142.02 594.88 143.444 594.608L143.572 595.872C141.972 596.192 140.628 596.224 138.484 596.224H137.556ZM147.652 599.52V585.36H149.156V599.52H147.652ZM156.58 586.256H158.244V587.328C158.244 589.616 160.564 591.792 163.332 592.288L162.628 593.584C160.34 593.088 158.324 591.632 157.412 589.664C156.484 591.616 154.468 593.088 152.196 593.584L151.508 592.288C154.244 591.776 156.58 589.6 156.58 587.328V586.256ZM151.06 597.664V596.384H163.892V597.664H151.06ZM166.645 586.496H176.309V587.76H168.229V589.632H176.005V590.88H168.229V592.848H176.453V594.112H166.645V586.496ZM165.045 597.76V596.48H177.877V597.76H165.045ZM192.109 585.344H193.693V590.8H195.901V592.112H193.693V599.536H192.109V585.344ZM183.309 596.064V586.72H189.901V587.984H184.877V594.736C187.213 594.72 188.941 594.64 190.925 594.272L191.085 595.584C188.925 595.984 187.037 596.064 184.445 596.064H183.309ZM200.301 586.544H201.885V588.88C201.885 591.488 203.357 594.096 205.565 595.088L204.637 596.352C203.021 595.568 201.773 594 201.117 592.08C200.461 594.144 199.213 595.824 197.517 596.64L196.573 595.344C198.797 594.32 200.301 591.6 200.301 588.88V586.544ZM206.749 599.536V585.344H208.317V599.536H206.749ZM220.093 585.36H221.661V591.072H223.869V592.384H221.661V599.52H220.093V585.36ZM210.605 588.832V587.552H214.013V585.552H215.597V587.552H218.941V588.832H210.605ZM211.309 593.168C211.309 591.216 212.813 589.872 214.813 589.872C216.845 589.872 218.317 591.216 218.317 593.168C218.317 595.104 216.845 596.464 214.813 596.464C212.813 596.464 211.309 595.104 211.309 593.168ZM212.829 593.168C212.829 594.368 213.645 595.168 214.813 595.168C215.965 595.168 216.813 594.368 216.813 593.168C216.813 591.952 215.965 591.152 214.813 591.152C213.645 591.152 212.829 591.952 212.829 593.168ZM234.766 585.36H236.334V599.52H234.766V585.36ZM224.782 595.728C228.51 593.936 230.254 591.424 230.542 588.128H225.454V586.848H232.158C232.158 591.04 230.462 594.608 225.598 596.976L224.782 595.728Z" fill="white"/>
</svg>
