<svg width="346" height="447" viewBox="0 0 346 447" fill="none" xmlns="http://www.w3.org/2000/svg">
<g filter="url(#filter0_d_1313_27606)">
<rect x="4.625" y="4.625" width="336.75" height="437.75" rx="1.875" fill="white" stroke="black" stroke-width="0.25"/>
</g>
<rect x="4.5" y="38.5" width="337" height="280" fill="#64EF29"/>
<path d="M10.1944 314.5H9.84205C9.84205 316.898 7.89804 318.842 5.5 318.842V319.194C7.89804 319.194 9.84205 321.138 9.84205 323.536H10.1944C10.1944 321.138 12.1384 319.194 14.5365 319.194V318.842C12.1385 318.842 10.1944 316.898 10.1944 314.5Z" fill="#535353"/>
<path d="M19.2296 314.5H18.8772C18.8772 316.898 16.9332 318.842 14.5352 318.842V319.194C16.9332 319.194 18.8772 321.138 18.8772 323.536H19.2296C19.2296 321.138 21.1736 319.194 23.5716 319.194V318.842C21.1736 318.842 19.2296 316.898 19.2296 314.5Z" fill="#535353"/>
<path d="M28.2647 314.5H27.9124C27.9124 316.898 25.9684 318.842 23.5703 318.842V319.194C25.9684 319.194 27.9124 321.138 27.9124 323.536H28.2647C28.2647 321.138 30.2087 319.194 32.6068 319.194V318.842C30.2088 318.842 28.2647 316.898 28.2647 314.5Z" fill="#535353"/>
<path d="M37.3038 314.5H36.9514C36.9514 316.898 35.0074 318.842 32.6094 318.842V319.194C35.0074 319.194 36.9514 321.138 36.9514 323.536H37.3038C37.3038 321.138 39.2478 319.194 41.6458 319.194V318.842C39.2479 318.842 37.3038 316.898 37.3038 314.5Z" fill="#535353"/>
<path d="M46.3389 314.5H45.9866C45.9866 316.898 44.0426 318.842 41.6445 318.842V319.194C44.0426 319.194 45.9866 321.138 45.9866 323.536H46.3389C46.3389 321.138 48.2829 319.194 50.681 319.194V318.842C48.283 318.842 46.3389 316.898 46.3389 314.5Z" fill="#535353"/>
<path d="M55.3741 314.5H55.0217C55.0217 316.898 53.0777 318.842 50.6797 318.842V319.194C53.0777 319.194 55.0217 321.138 55.0217 323.536H55.3741C55.3741 321.138 57.3181 319.194 59.7161 319.194V318.842C57.3182 318.842 55.3741 316.898 55.3741 314.5Z" fill="#535353"/>
<path d="M64.4132 314.5H64.0608C64.0608 316.898 62.1168 318.842 59.7188 318.842V319.194C62.1168 319.194 64.0608 321.138 64.0608 323.536H64.4132C64.4132 321.138 66.3572 319.194 68.7552 319.194V318.842C66.3572 318.842 64.4132 316.898 64.4132 314.5Z" fill="#535353"/>
<path d="M73.4483 314.5H73.096C73.096 316.898 71.1519 318.842 68.7539 318.842V319.194C71.1519 319.194 73.096 321.138 73.096 323.536H73.4483C73.4483 321.138 75.3923 319.194 77.7904 319.194V318.842C75.3924 318.842 73.4483 316.898 73.4483 314.5Z" fill="#535353"/>
<path d="M82.4835 314.5H82.1311C82.1311 316.898 80.1871 318.842 77.7891 318.842V319.194C80.1871 319.194 82.1311 321.138 82.1311 323.536H82.4835C82.4835 321.138 84.4275 319.194 86.8255 319.194V318.842C84.4276 318.842 82.4835 316.898 82.4835 314.5Z" fill="#535353"/>
<path d="M91.5225 314.5H91.1702C91.1702 316.898 89.2262 318.842 86.8281 318.842V319.194C89.2262 319.194 91.1702 321.138 91.1702 323.536H91.5225C91.5225 321.138 93.4665 319.194 95.8646 319.194V318.842C93.4666 318.842 91.5225 316.898 91.5225 314.5Z" fill="#535353"/>
<path d="M100.558 314.5H100.205C100.205 316.898 98.2613 318.842 95.8633 318.842V319.194C98.2613 319.194 100.205 321.138 100.205 323.536H100.558C100.558 321.138 102.502 319.194 104.9 319.194V318.842C102.502 318.842 100.558 316.898 100.558 314.5Z" fill="#535353"/>
<path d="M109.593 314.5H109.24C109.24 316.898 107.296 318.842 104.898 318.842V319.194C107.296 319.194 109.24 321.138 109.24 323.536H109.593C109.593 321.138 111.537 319.194 113.935 319.194V318.842C111.537 318.842 109.593 316.898 109.593 314.5Z" fill="#535353"/>
<path d="M118.632 314.5H118.28C118.28 316.898 116.336 318.842 113.938 318.842V319.194C116.336 319.194 118.28 321.138 118.28 323.536H118.632C118.632 321.138 120.576 319.194 122.974 319.194V318.842C120.576 318.842 118.632 316.898 118.632 314.5Z" fill="#535353"/>
<path d="M127.667 314.5H127.315C127.315 316.898 125.371 318.842 122.973 318.842V319.194C125.371 319.194 127.315 321.138 127.315 323.536H127.667C127.667 321.138 129.611 319.194 132.009 319.194V318.842C129.611 318.842 127.667 316.898 127.667 314.5Z" fill="#535353"/>
<path d="M136.702 314.5H136.35C136.35 316.898 134.406 318.842 132.008 318.842V319.194C134.406 319.194 136.35 321.138 136.35 323.536H136.702C136.702 321.138 138.646 319.194 141.044 319.194V318.842C138.646 318.842 136.702 316.898 136.702 314.5Z" fill="#535353"/>
<path d="M145.741 314.5H145.389C145.389 316.898 143.445 318.842 141.047 318.842V319.194C143.445 319.194 145.389 321.138 145.389 323.536H145.741C145.741 321.138 147.685 319.194 150.083 319.194V318.842C147.685 318.842 145.741 316.898 145.741 314.5Z" fill="#535353"/>
<path d="M154.776 314.5H154.424C154.424 316.898 152.48 318.842 150.082 318.842V319.194C152.48 319.194 154.424 321.138 154.424 323.536H154.776C154.776 321.138 156.72 319.194 159.118 319.194V318.842C156.721 318.842 154.776 316.898 154.776 314.5Z" fill="#535353"/>
<path d="M163.812 314.5H163.459C163.459 316.898 161.515 318.842 159.117 318.842V319.194C161.515 319.194 163.459 321.138 163.459 323.536H163.812C163.812 321.138 165.756 319.194 168.154 319.194V318.842C165.756 318.842 163.812 316.898 163.812 314.5Z" fill="#535353"/>
<path d="M172.851 314.5H172.498C172.498 316.898 170.554 318.842 168.156 318.842V319.194C170.554 319.194 172.498 321.138 172.498 323.536H172.851C172.851 321.138 174.795 319.194 177.193 319.194V318.842C174.795 318.842 172.851 316.898 172.851 314.5Z" fill="#535353"/>
<path d="M181.886 314.5H181.533C181.533 316.898 179.589 318.842 177.191 318.842V319.194C179.589 319.194 181.533 321.138 181.533 323.536H181.886C181.886 321.138 183.83 319.194 186.228 319.194V318.842C183.83 318.842 181.886 316.898 181.886 314.5Z" fill="#535353"/>
<path d="M190.921 314.5H190.569C190.569 316.898 188.625 318.842 186.227 318.842V319.194C188.625 319.194 190.569 321.138 190.569 323.536H190.921C190.921 321.138 192.865 319.194 195.263 319.194V318.842C192.865 318.842 190.921 316.898 190.921 314.5Z" fill="#535353"/>
<path d="M281.194 314.5H280.842C280.842 316.898 278.898 318.842 276.5 318.842V319.194C278.898 319.194 280.842 321.138 280.842 323.536H281.194C281.194 321.138 283.138 319.194 285.536 319.194V318.842C283.138 318.842 281.194 316.898 281.194 314.5Z" fill="#535353"/>
<path d="M199.96 314.5H199.608C199.608 316.898 197.664 318.842 195.266 318.842V319.194C197.664 319.194 199.608 321.138 199.608 323.536H199.96C199.96 321.138 201.904 319.194 204.302 319.194V318.842C201.904 318.842 199.96 316.898 199.96 314.5Z" fill="#535353"/>
<path d="M290.233 314.5H289.881C289.881 316.898 287.937 318.842 285.539 318.842V319.194C287.937 319.194 289.881 321.138 289.881 323.536H290.233C290.233 321.138 292.177 319.194 294.576 319.194V318.842C292.178 318.842 290.233 316.898 290.233 314.5Z" fill="#535353"/>
<path d="M208.995 314.5H208.643C208.643 316.898 206.699 318.842 204.301 318.842V319.194C206.699 319.194 208.643 321.138 208.643 323.536H208.995C208.995 321.138 210.939 319.194 213.337 319.194V318.842C210.939 318.842 208.995 316.898 208.995 314.5Z" fill="#535353"/>
<path d="M299.269 314.5H298.916C298.916 316.898 296.972 318.842 294.574 318.842V319.194C296.972 319.194 298.916 321.138 298.916 323.536H299.269C299.269 321.138 301.213 319.194 303.611 319.194V318.842C301.213 318.842 299.269 316.898 299.269 314.5Z" fill="#535353"/>
<path d="M218.03 314.5H217.678C217.678 316.898 215.734 318.842 213.336 318.842V319.194C215.734 319.194 217.678 321.138 217.678 323.536H218.03C218.03 321.138 219.974 319.194 222.372 319.194V318.842C219.974 318.842 218.03 316.898 218.03 314.5Z" fill="#535353"/>
<path d="M308.304 314.5H307.951C307.951 316.898 306.007 318.842 303.609 318.842V319.194C306.007 319.194 307.951 321.138 307.951 323.536H308.304C308.304 321.138 310.248 319.194 312.646 319.194V318.842C310.248 318.842 308.304 316.898 308.304 314.5Z" fill="#535353"/>
<path d="M227.069 314.5H226.717C226.717 316.898 224.773 318.842 222.375 318.842V319.194C224.773 319.194 226.717 321.138 226.717 323.536H227.069C227.069 321.138 229.013 319.194 231.411 319.194V318.842C229.013 318.842 227.069 316.898 227.069 314.5Z" fill="#535353"/>
<path d="M317.343 314.5H316.99C316.99 316.898 315.046 318.842 312.648 318.842V319.194C315.046 319.194 316.99 321.138 316.99 323.536H317.343C317.343 321.138 319.287 319.194 321.685 319.194V318.842C319.287 318.842 317.343 316.898 317.343 314.5Z" fill="#535353"/>
<path d="M236.105 314.5H235.752C235.752 316.898 233.808 318.842 231.41 318.842V319.194C233.808 319.194 235.752 321.138 235.752 323.536H236.105C236.105 321.138 238.049 319.194 240.447 319.194V318.842C238.049 318.842 236.105 316.898 236.105 314.5Z" fill="#535353"/>
<path d="M326.378 314.5H326.026C326.026 316.898 324.082 318.842 321.684 318.842V319.194C324.082 319.194 326.026 321.138 326.026 323.536H326.378C326.378 321.138 328.322 319.194 330.72 319.194V318.842C328.322 318.842 326.378 316.898 326.378 314.5Z" fill="#535353"/>
<path d="M245.14 314.5H244.787C244.787 316.898 242.843 318.842 240.445 318.842V319.194C242.843 319.194 244.787 321.138 244.787 323.536H245.14C245.14 321.138 247.084 319.194 249.482 319.194V318.842C247.084 318.842 245.14 316.898 245.14 314.5Z" fill="#535353"/>
<path d="M335.413 314.5H335.061C335.061 316.898 333.117 318.842 330.719 318.842V319.194C333.117 319.194 335.061 321.138 335.061 323.536H335.413C335.413 321.138 337.357 319.194 339.755 319.194V318.842C337.357 318.842 335.413 316.898 335.413 314.5Z" fill="#535353"/>
<path d="M254.179 314.5H253.826C253.826 316.898 251.882 318.842 249.484 318.842V319.194C251.882 319.194 253.826 321.138 253.826 323.536H254.179C254.179 321.138 256.123 319.194 258.521 319.194V318.842C256.123 318.842 254.179 316.898 254.179 314.5Z" fill="#535353"/>
<path d="M263.214 314.5H262.862C262.862 316.898 260.918 318.842 258.52 318.842V319.194C260.918 319.194 262.862 321.138 262.862 323.536H263.214C263.214 321.138 265.158 319.194 267.556 319.194V318.842C265.158 318.842 263.214 316.898 263.214 314.5Z" fill="#535353"/>
<path d="M272.249 314.5H271.897C271.897 316.898 269.953 318.842 267.555 318.842V319.194C269.953 319.194 271.897 321.138 271.897 323.536H272.249C272.249 321.138 274.193 319.194 276.591 319.194V318.842C274.193 318.842 272.249 316.898 272.249 314.5Z" fill="#535353"/>
<path d="M45.9904 383.314H46.8584V386.604H48.7064V387.318H46.8584V390.636H45.9904V383.314ZM38.0524 389.53V384.28H43.4004V385.008H38.9064V388.816H38.9764C41.4264 388.816 42.8684 388.746 44.5624 388.41L44.6744 389.11C42.9244 389.446 41.4544 389.53 38.9764 389.53H38.0524ZM39.0604 393.184C39.0604 391.742 40.5584 390.902 43.0084 390.902C45.4584 390.902 46.9564 391.742 46.9564 393.184C46.9564 394.612 45.4584 395.438 43.0084 395.438C40.5584 395.438 39.0604 394.612 39.0604 393.184ZM39.8724 393.184C39.8724 394.136 41.0904 394.738 43.0084 394.738C44.9124 394.738 46.1304 394.136 46.1304 393.184C46.1304 392.19 44.9124 391.602 43.0084 391.602C41.0904 391.602 39.8724 392.19 39.8724 393.184ZM58.4507 383.328H59.3047V392.246H58.4507V383.328ZM49.5887 389.768C51.3387 389.054 52.6967 387.248 52.6967 385.246V383.986H53.5367V385.246C53.5367 387.178 54.9227 388.872 56.6587 389.544L56.1967 390.23C54.8107 389.656 53.6487 388.48 53.1307 386.982C52.6267 388.564 51.4647 389.838 50.0507 390.454L49.5887 389.768ZM51.6187 395.186V391.448H52.4587V394.472H59.7107V395.186H51.6187ZM61.363 389.796H72.339V390.496H61.363V389.796ZM62.623 386.142C62.623 384.644 64.261 383.748 66.851 383.748C69.427 383.748 71.079 384.644 71.079 386.142C71.079 387.64 69.427 388.536 66.851 388.536C64.261 388.536 62.623 387.64 62.623 386.142ZM62.819 395.2V391.672H63.673V394.486H71.135V395.2H62.819ZM63.491 386.142C63.491 387.178 64.835 387.836 66.851 387.836C68.881 387.836 70.211 387.178 70.211 386.142C70.211 385.106 68.881 384.462 66.851 384.462C64.835 384.462 63.491 385.106 63.491 386.142ZM85.3239 383.314H86.1639V395.48H85.3239V383.314ZM76.4479 392.428C79.7659 390.832 81.5299 388.326 81.7399 385.358H76.9659V384.644H82.5939C82.5939 388.074 80.8719 391.182 76.9099 393.114L76.4479 392.428ZM90.0982 391.21H98.1482V395.494H97.2942V391.896H90.0982V391.21ZM88.4042 386.898C88.4042 385.204 89.7202 384.028 91.5122 384.028C93.1642 384.028 94.4102 385.036 94.5922 386.534H97.2942V383.314H98.1482V390.468H97.2942V387.248H94.5922C94.4242 388.76 93.1642 389.782 91.5122 389.782C89.7202 389.782 88.4042 388.606 88.4042 386.898ZM89.2302 386.898C89.2302 388.158 90.1962 389.054 91.5122 389.054C92.8142 389.054 93.7802 388.158 93.7802 386.898C93.7802 385.68 92.8142 384.756 91.5122 384.756C90.1962 384.756 89.2302 385.68 89.2302 386.898ZM109.209 383.3H110.049V395.494H109.209V383.3ZM100.655 388.48C100.655 385.918 101.915 384.294 103.707 384.294C105.485 384.294 106.745 385.918 106.745 388.48C106.745 391.042 105.485 392.694 103.707 392.694C101.915 392.694 100.655 391.042 100.655 388.48ZM101.481 388.48C101.481 390.524 102.391 391.938 103.707 391.938C104.995 391.938 105.919 390.524 105.919 388.48C105.919 386.45 104.995 385.036 103.707 385.036C102.391 385.036 101.481 386.45 101.481 388.48ZM115.081 388.354H118.651C119.071 386.674 119.155 385.428 119.169 384.658H116.089V383.944H119.995V384.224C119.995 384.868 119.995 386.338 119.533 388.354H123.439C123.817 386.66 123.873 385.428 123.873 384.658H120.877V383.944H124.699V384.364C124.699 385.078 124.699 386.45 124.279 388.354H126.099V389.054H115.081V388.354ZM116.411 395.158V390.762H117.251V394.458C117.909 394.43 118.931 394.346 120.009 394.08L120.135 394.794C118.791 395.116 117.671 395.158 116.971 395.158H116.411ZM119.841 391.574V390.902H122.179V389.768H123.005V390.902H125.273V391.574H119.841ZM120.499 393.814C120.499 392.806 121.367 392.176 122.599 392.176C123.831 392.176 124.685 392.806 124.685 393.814C124.685 394.836 123.831 395.466 122.599 395.466C121.367 395.466 120.499 394.836 120.499 393.814ZM121.241 393.814C121.241 394.444 121.773 394.836 122.599 394.836C123.411 394.836 123.957 394.444 123.957 393.814C123.957 393.198 123.411 392.806 122.599 392.806C121.773 392.806 121.241 393.198 121.241 393.814ZM136.082 383.314H136.936V392.162H136.082V383.314ZM127.234 390.118C130.244 389.166 132.302 387.318 132.512 384.966H127.864V384.238H133.422C133.422 387.332 131.112 389.698 127.584 390.818L127.234 390.118ZM129.152 395.186V391.462H129.992V394.472H137.258V395.186H129.152ZM143.817 391.07H151.335V395.298H143.817V391.07ZM142.529 389.502V383.944H143.355V385.904H147.233V383.944H148.059V389.502H142.529ZM143.355 388.802H147.233V386.604H143.355V388.802ZM144.629 394.598H150.495V391.756H144.629V394.598ZM150.481 390.356V383.314H151.335V386.282H153.197V387.01H151.335V390.356H150.481ZM159.385 383.552C162.017 383.552 163.613 384.294 163.613 385.652C163.613 387.024 162.017 387.78 159.385 387.78C156.739 387.78 155.157 387.024 155.157 385.652C155.157 384.294 156.739 383.552 159.385 383.552ZM153.897 389.404V388.704H164.873V389.404H153.897ZM155.255 391.252V390.58H163.431V393.17H156.123V394.64H163.823V395.326H155.297V392.526H162.605V391.252H155.255ZM156.025 385.652C156.025 386.576 157.313 387.122 159.385 387.122C161.457 387.122 162.745 386.576 162.745 385.652C162.745 384.742 161.457 384.196 159.385 384.196C157.313 384.196 156.025 384.742 156.025 385.652ZM169.038 384.588H175.548V385.316H172.734V387.206C172.734 389.18 174.288 391.336 175.954 392.134L175.45 392.82C174.106 392.134 172.874 390.622 172.342 388.942C171.796 390.762 170.48 392.4 169.15 393.114L168.632 392.442C170.256 391.616 171.922 389.306 171.922 387.206V385.316H169.038V384.588ZM177.214 395.48V383.314H178.068V388.34H180.154V389.068H178.068V395.48H177.214ZM180.756 390.342H191.746V391.056H186.65V395.48H185.81V391.056H180.756V390.342ZM181.456 388.494C183.36 388.186 185.782 386.786 185.782 385.036V384.84H181.806V384.14H190.654V384.84H186.706V385.036C186.706 386.786 189.128 388.186 191.032 388.494L190.696 389.194C188.946 388.858 186.958 387.808 186.244 386.268C185.53 387.808 183.542 388.858 181.792 389.194L181.456 388.494ZM196.247 384.168H201.735V389.32H196.247V384.168ZM196.933 394.766C198.837 394.43 200.881 393.254 200.909 391.77H197.395V391.07H205.277V391.77H201.763C201.791 393.226 203.863 394.43 205.725 394.78L205.389 395.438C203.737 395.116 202.015 394.192 201.329 392.918C200.671 394.206 198.963 395.116 197.283 395.438L196.933 394.766ZM197.059 388.62H200.923V384.868H197.059V388.62ZM204.199 390.3V383.314H205.053V386.352H206.915V387.066H205.053V390.3H204.199ZM216.645 383.3H217.485V395.494H216.645V383.3ZM208.091 388.48C208.091 385.918 209.351 384.294 211.143 384.294C212.921 384.294 214.181 385.918 214.181 388.48C214.181 391.042 212.921 392.694 211.143 392.694C209.351 392.694 208.091 391.042 208.091 388.48ZM208.917 388.48C208.917 390.524 209.827 391.938 211.143 391.938C212.431 391.938 213.355 390.524 213.355 388.48C213.355 386.45 212.431 385.036 211.143 385.036C209.827 385.036 208.917 386.45 208.917 388.48ZM228 383.314H228.854V388.424H230.94V389.138H228.854V395.48H228V383.314ZM219.502 386.03V385.316H222.722V383.44H223.59V385.316H226.726V386.03H219.502ZM220.272 389.922C220.272 388.298 221.49 387.178 223.17 387.178C224.864 387.178 226.082 388.298 226.082 389.922C226.082 391.546 224.864 392.666 223.17 392.666C221.49 392.666 220.272 391.546 220.272 389.922ZM221.084 389.922C221.084 391.084 221.952 391.952 223.17 391.952C224.388 391.952 225.27 391.084 225.27 389.922C225.27 388.76 224.388 387.892 223.17 387.892C221.952 387.892 221.084 388.76 221.084 389.922ZM233.054 383.762H233.894V387.122H241.258V387.836H233.054V383.762ZM231.514 390.328V389.614H242.546V390.328H231.514ZM232.998 395.172V391.644H233.838V394.458H241.328V395.172H232.998ZM247.915 391.756C250.239 391.756 251.765 391.686 253.613 391.35L253.711 392.064C251.821 392.4 250.253 392.484 247.915 392.484H246.991V384.462H252.633V385.176H247.831V387.878H252.311V388.578H247.831V391.756H247.915ZM254.859 395.48V383.314H255.713V388.312H257.799V389.04H255.713V395.48H254.859ZM267.431 383.314H268.285V389.838H267.431V383.314ZM258.681 386.702C258.681 385.05 259.983 383.93 261.803 383.93C263.623 383.93 264.911 385.05 264.911 386.702C264.911 388.34 263.623 389.474 261.803 389.474C259.983 389.474 258.681 388.34 258.681 386.702ZM259.507 386.702C259.507 387.878 260.473 388.746 261.803 388.746C263.133 388.746 264.099 387.878 264.099 386.702C264.099 385.512 263.133 384.644 261.803 384.644C260.473 384.644 259.507 385.512 259.507 386.702ZM260.557 395.298V390.482H261.397V392.092H267.445V390.482H268.285V395.298H260.557ZM261.397 394.598H267.445V392.778H261.397V394.598ZM279.388 383.314H280.242V389.838H279.388V383.314ZM270.638 386.702C270.638 385.05 271.94 383.93 273.76 383.93C275.58 383.93 276.868 385.05 276.868 386.702C276.868 388.34 275.58 389.474 273.76 389.474C271.94 389.474 270.638 388.34 270.638 386.702ZM271.464 386.702C271.464 387.878 272.43 388.746 273.76 388.746C275.09 388.746 276.056 387.878 276.056 386.702C276.056 385.512 275.09 384.644 273.76 384.644C272.43 384.644 271.464 385.512 271.464 386.702ZM272.514 395.298V390.482H273.354V392.092H279.402V390.482H280.242V395.298H272.514ZM273.354 394.598H279.402V392.778H273.354V394.598ZM291.316 383.314H292.156V395.48H291.316V383.314ZM283.112 392.288V384.518H283.966V391.532H284.092C285.954 391.532 287.858 391.392 289.93 390.958L290.056 391.686C287.914 392.12 286.024 392.288 284.092 392.288H283.112ZM302.684 383.3H303.538V388.228H305.624V388.956H303.538V395.494H302.684V383.3ZM294.816 392.414V384.532H300.444V385.232H295.642V391.672H295.74C298.064 391.672 299.618 391.602 301.438 391.252L301.55 391.994C299.66 392.344 298.092 392.414 295.74 392.414H294.816ZM307.095 393.422C307.459 393.422 307.711 393.674 307.711 394.038C307.711 394.402 307.459 394.668 307.095 394.668C306.731 394.668 306.465 394.402 306.465 394.038C306.465 393.674 306.731 393.422 307.095 393.422ZM41.7502 405.97H52.7682V406.684H47.6442V408.098H46.8042V406.684H41.7502V405.97ZM42.5762 411.766C44.5782 411.542 46.7902 410.576 46.7902 409.134V408.686H47.6582V409.134C47.6582 410.604 49.8562 411.542 51.8582 411.766L51.5782 412.438C49.7722 412.2 47.9242 411.472 47.2242 410.226C46.5242 411.458 44.6762 412.2 42.8702 412.438L42.5762 411.766ZM43.0102 402.722C43.0102 401.322 44.6062 400.524 47.2382 400.524C49.8562 400.524 51.4662 401.322 51.4662 402.722C51.4662 404.122 49.8562 404.934 47.2382 404.934C44.6062 404.934 43.0102 404.122 43.0102 402.722ZM43.8782 402.722C43.8782 403.674 45.1942 404.248 47.2382 404.248C49.2822 404.248 50.5982 403.674 50.5982 402.722C50.5982 401.77 49.2822 401.182 47.2382 401.182C45.1942 401.182 43.8782 401.77 43.8782 402.722ZM59.1945 401.14C61.7145 401.14 63.5625 402.456 63.5625 404.43C63.5625 406.418 61.7145 407.72 59.1945 407.72C56.6885 407.72 54.8265 406.418 54.8265 404.43C54.8265 402.456 56.6885 401.14 59.1945 401.14ZM53.7065 410.8V410.072H64.7245V410.8H53.7065ZM55.6245 404.43C55.6245 405.97 57.1645 407.034 59.1945 407.034C61.2245 407.034 62.7505 405.97 62.7505 404.43C62.7505 402.918 61.2245 401.84 59.1945 401.84C57.1645 401.84 55.6245 402.918 55.6245 404.43ZM66.1528 401.546H71.5708V403.296H74.7488V400.3H75.5748V412.494H74.7488V407.384H71.5708V409.358H66.1528V401.546ZM66.9928 408.672H70.7448V402.246H66.9928V408.672ZM71.5708 406.67H74.7488V404.01H71.5708V406.67ZM82.7777 407.958H90.4917V412.298H82.7777V407.958ZM81.2797 406.432V401.07H82.1337V405.69H82.1897C84.2197 405.69 85.8017 405.578 87.5797 405.2L87.7057 405.942C85.8577 406.32 84.2477 406.432 82.1897 406.432H81.2797ZM83.5897 411.598H89.6657V408.658H83.5897V411.598ZM85.9977 403.408V402.694H89.6377V400.314H90.4917V407.342H89.6377V403.408H85.9977ZM101.566 400.314H102.42V409.162H101.566V400.314ZM92.718 407.118C95.728 406.166 97.786 404.318 97.996 401.966H93.348V401.238H98.906C98.906 404.332 96.596 406.698 93.068 407.818L92.718 407.118ZM94.636 412.186V408.462H95.476V411.472H102.742V412.186H94.636ZM116.861 400.314H117.687V412.48H116.861V405.998H114.901V411.822H114.103V400.608H114.901V405.27H116.861V400.314ZM107.901 409.372V401.826H112.423V402.54H108.741V408.644C110.589 408.644 111.779 408.588 113.137 408.28L113.249 408.994C111.807 409.316 110.603 409.372 108.671 409.372H107.901ZM127.781 400.314H128.621V405.564H130.665V406.306H128.621V412.48H127.781V400.314ZM119.241 409.302C120.263 409.302 121.453 409.302 122.685 409.26V407.804C121.243 407.678 120.277 406.852 120.277 405.592C120.277 404.234 121.425 403.352 123.091 403.352C124.771 403.352 125.919 404.234 125.919 405.592C125.919 406.838 124.967 407.664 123.525 407.804V409.218C124.701 409.162 125.891 409.064 126.997 408.91L127.067 409.54C124.421 410.016 121.523 410.044 119.381 410.044L119.241 409.302ZM119.437 402.554V401.84H122.685V400.314H123.525V401.84H126.759V402.554H119.437ZM121.075 405.592C121.075 406.516 121.887 407.146 123.091 407.146C124.309 407.146 125.121 406.516 125.121 405.592C125.121 404.654 124.309 404.024 123.091 404.024C121.887 404.024 121.075 404.654 121.075 405.592ZM132.78 401.336H140.9V402.05H133.634V406.096H141.054V406.81H137.246V410.156H142.356V410.87H131.338V410.156H136.406V406.81H132.78V401.336ZM144.638 410.576L143.924 412.956H143.308L143.686 410.576H144.638ZM149.891 401.252H156.373V401.966H153.559V402.666C153.559 404.318 154.861 405.76 156.569 406.362L156.163 407.02C154.791 406.53 153.671 405.522 153.167 404.248C152.663 405.704 151.487 406.838 150.045 407.37L149.597 406.698C151.347 406.068 152.719 404.5 152.719 402.68V401.966H149.891V401.252ZM151.207 410.24C151.207 408.854 152.691 408.07 155.141 408.07C157.605 408.07 159.089 408.854 159.089 410.24C159.089 411.64 157.605 412.438 155.141 412.438C152.691 412.438 151.207 411.64 151.207 410.24ZM152.019 410.24C152.019 411.178 153.237 411.766 155.141 411.766C157.059 411.766 158.263 411.178 158.263 410.24C158.263 409.33 157.059 408.756 155.141 408.756C153.237 408.756 152.019 409.33 152.019 410.24ZM158.123 407.692V400.314H158.977V403.534H160.853V404.248H158.977V407.692H158.123ZM162.142 401.392H167.602V402.554H170.626V400.328H171.48V409.204H170.626V405.872H167.602V406.992H162.142V401.392ZM162.954 406.292H166.776V402.106H162.954V406.292ZM163.766 412.186V408.42H164.606V411.472H171.774V412.186H163.766ZM167.602 405.144H170.626V403.268H167.602V405.144ZM174.952 401.336H183.072V402.05H175.806V406.096H183.226V406.81H179.418V410.156H184.528V410.87H173.51V410.156H178.578V406.81H174.952V401.336ZM191.647 401.294C193.397 401.294 194.629 402.918 194.629 405.48C194.629 408.042 193.397 409.694 191.647 409.694C189.883 409.694 188.637 408.042 188.637 405.48C188.637 402.918 189.883 401.294 191.647 401.294ZM189.449 405.48C189.449 407.524 190.345 408.938 191.647 408.938C192.935 408.938 193.831 407.524 193.831 405.48C193.831 403.45 192.935 402.036 191.647 402.036C190.345 402.036 189.449 403.45 189.449 405.48ZM196.841 412.48V400.314H197.695V405.284H199.781V406.012H197.695V412.48H196.841ZM200.901 401.826H203.785V400.244H204.639V401.826H207.495V402.526H204.625V402.792C204.625 404.43 206.081 405.83 207.817 406.362L207.411 407.034C205.997 406.572 204.765 405.592 204.219 404.29C203.701 405.704 202.497 406.782 201.069 407.3L200.621 406.642C202.385 406.04 203.785 404.528 203.785 402.792V402.526H200.901V401.826ZM202.511 412.298V408.21H210.267V412.298H202.511ZM203.337 411.598H209.441V408.91H203.337V411.598ZM209.413 407.552V400.328H210.267V407.552H209.413ZM221.355 400.3H222.195V412.494H221.355V400.3ZM212.801 405.48C212.801 402.918 214.061 401.294 215.853 401.294C217.631 401.294 218.891 402.918 218.891 405.48C218.891 408.042 217.631 409.694 215.853 409.694C214.061 409.694 212.801 408.042 212.801 405.48ZM213.627 405.48C213.627 407.524 214.537 408.938 215.853 408.938C217.141 408.938 218.065 407.524 218.065 405.48C218.065 403.45 217.141 402.036 215.853 402.036C214.537 402.036 213.627 403.45 213.627 405.48ZM224.87 401.392H230.33V402.554H233.354V400.328H234.208V409.204H233.354V405.872H230.33V406.992H224.87V401.392ZM225.682 406.292H229.504V402.106H225.682V406.292ZM226.494 412.186V408.42H227.334V411.472H234.502V412.186H226.494ZM230.33 405.144H233.354V403.268H230.33V405.144ZM242.265 401.42H243.091V403.758C243.091 405.886 244.659 408.112 246.297 408.924L245.779 409.596C244.449 408.882 243.231 407.384 242.699 405.634C242.167 407.482 240.921 409.092 239.577 409.848L239.045 409.162C240.697 408.308 242.265 405.97 242.265 403.758V401.42ZM247.599 412.48V400.314H248.453V405.34H250.553V406.068H248.453V412.48H247.599ZM259.583 400.3H260.423V405.242H262.509V405.97H260.423V412.494H259.583V400.3ZM251.603 402.204V401.504H257.063V405.704H252.485V408.784H252.597C254.963 408.784 256.545 408.7 258.421 408.336L258.505 409.05C256.587 409.414 254.991 409.512 252.597 409.512H251.645V404.99H256.223V402.204H251.603ZM272.155 400.314H272.995V412.48H272.155V407.104H269.523V406.39H272.155V404.5H269.523V403.758H272.155V400.314ZM263.013 409.428C264.637 408.602 266.275 406.264 266.275 404.108V402.302H263.447V401.588H269.957V402.302H267.115V404.108C267.115 406.026 268.725 408.294 270.349 409.134L269.845 409.792C268.529 409.092 267.269 407.524 266.709 405.816C266.191 407.678 264.889 409.33 263.587 410.058L263.013 409.428ZM281.164 407.846H281.976V408.602C281.976 409.736 282.606 410.926 283.81 411.584C285.014 410.856 285.686 409.554 285.686 408.602V407.846H286.498V408.602C286.498 409.862 287.506 411.136 289.018 411.668L288.598 412.312C287.38 411.864 286.498 410.982 286.078 409.932C285.728 410.926 284.972 411.92 283.838 412.424C282.662 411.948 281.892 411.024 281.542 409.974C281.122 410.968 280.254 411.864 279.078 412.312L278.644 411.668C280.156 411.108 281.164 409.764 281.164 408.602V407.846ZM278.322 403.87C278.322 402.204 279.61 401.056 281.43 401.056C283.25 401.056 284.538 402.204 284.538 403.87C284.538 405.536 283.25 406.656 281.43 406.656C279.61 406.656 278.322 405.536 278.322 403.87ZM279.148 403.87C279.148 405.088 280.1 405.956 281.43 405.956C282.774 405.956 283.726 405.088 283.726 403.87C283.726 402.666 282.774 401.784 281.43 401.784C280.1 401.784 279.148 402.666 279.148 403.87ZM287.058 407.3V400.328H287.912V407.3H287.058ZM293.092 407.286H293.918V410.17H296.998V407.286H297.838V410.17H300.974V410.884H289.956V410.17H293.092V407.286ZM290.544 406.684C292.364 406.362 295.024 404.654 295.024 402.61V402.176H290.866V401.462H300.05V402.176H295.892V402.61C295.892 404.654 298.58 406.334 300.428 406.642L300.064 407.328C298.356 406.964 296.242 405.746 295.472 403.996C294.688 405.746 292.574 406.992 290.894 407.37L290.544 406.684ZM302.795 410.422C303.159 410.422 303.411 410.674 303.411 411.038C303.411 411.402 303.159 411.668 302.795 411.668C302.431 411.668 302.165 411.402 302.165 411.038C302.165 410.674 302.431 410.422 302.795 410.422Z" fill="#535353"/>
<mask id="mask0_1313_27606" style="mask-type:alpha" maskUnits="userSpaceOnUse" x="4" y="4" width="338" height="118">
<path d="M4.5 6.5C4.5 5.39543 5.39543 4.5 6.5 4.5H339.5C340.605 4.5 341.5 5.39543 341.5 6.5V119.5C341.5 120.605 340.605 121.5 339.5 121.5H6.5C5.39543 121.5 4.5 120.605 4.5 119.5V6.5Z" fill="white"/>
</mask>
<g mask="url(#mask0_1313_27606)">
<rect x="-397.5" y="4.5" width="839" height="34" fill="white"/>
<g clip-path="url(#clip0_1313_27606)">
<path d="M49.7842 12.8086H49.5444C49.5444 17.5393 45.709 21.3796 40.9734 21.3796V21.6194C45.7041 21.6194 49.5444 25.4548 49.5444 30.1904H49.7842C49.7842 25.4597 53.6196 21.6194 58.3552 21.6194V21.3796C53.6245 21.3796 49.7842 17.5442 49.7842 12.8086Z" fill="#64EF29"/>
<path d="M49.9063 12.6855V12.8079C49.9063 17.4759 53.6921 21.2564 58.3553 21.2564H58.4776V21.7408H58.3553C53.6873 21.7408 49.9063 25.5266 49.9063 30.1898V30.3121H49.4224V30.1898C49.4224 25.5218 45.6366 21.7408 40.9734 21.7408H40.8511V21.2564H40.9734C45.6414 21.2564 49.4224 17.4711 49.4224 12.8079V12.6855H49.9063ZM49.6641 13.0133C49.5565 17.6492 45.8176 21.392 41.1769 21.4986C45.8129 21.6052 49.5563 25.3436 49.6641 29.9839C49.7719 25.3484 53.5106 21.6056 58.1508 21.4986C53.5151 21.3916 49.7717 17.6535 49.6641 13.0133Z" fill="#231815"/>
<path d="M93.8183 12.8086H93.5786C93.5786 17.5393 89.7432 21.3796 85.0076 21.3796V21.6194C89.7383 21.6194 93.5786 25.4548 93.5786 30.1904H93.8183C93.8183 25.4597 97.6538 21.6194 102.389 21.6194V21.3796C97.6587 21.3796 93.8183 17.5442 93.8183 12.8086Z" fill="#64EF29"/>
<path d="M93.9405 12.6855V12.8079C93.9405 17.4759 97.7263 21.2564 102.39 21.2564H102.512V21.7408H102.39C97.7215 21.7408 93.9405 25.5266 93.9405 30.1898V30.3121H93.4565V30.1898C93.4565 25.5218 89.6708 21.7408 85.0076 21.7408H84.8853V21.2564H85.0076C89.6756 21.2564 93.4565 17.4711 93.4565 12.8079V12.6855H93.9405ZM93.6983 13.0133C93.5907 17.6492 89.8518 21.392 85.2111 21.4986C89.8471 21.6052 93.5905 25.3436 93.6983 29.9839C93.806 25.3484 97.5448 21.6056 102.185 21.4986C97.5493 21.3916 93.8059 17.6535 93.6983 13.0133Z" fill="#231815"/>
<path d="M71.7401 17.1426H71.6178C71.6178 19.5153 69.6952 21.4379 67.3225 21.4379V21.5602C69.6952 21.5602 71.6178 23.4828 71.6178 25.8555H71.7401C71.7401 23.4828 73.6627 21.5602 76.0354 21.5602V21.4379C73.6627 21.4379 71.7401 19.5153 71.7401 17.1426Z" fill="#64EF29"/>
<path d="M71.838 17.0449V17.1429C71.838 19.4614 73.7165 21.3403 76.035 21.3404H76.133V21.6585H76.035C73.7165 21.6587 71.8381 23.5371 71.838 25.8556V25.9535H71.5198V25.8556C71.5197 23.537 69.6409 21.6585 67.3223 21.6585H67.2244V21.3404H67.3223C69.641 21.3404 71.5198 19.4615 71.5198 17.1429V17.0449H71.838ZM71.6784 17.7028C71.4267 19.6815 69.8609 21.2473 67.8822 21.499C69.8609 21.7506 71.4267 23.317 71.6784 25.2956C71.9301 23.317 73.4965 21.7507 75.4751 21.499C73.4965 21.2472 71.93 19.6814 71.6784 17.7028Z" fill="#231815"/>
<path d="M151.061 12.8086H150.822C150.822 17.5393 146.986 21.3796 142.25 21.3796V21.6194C146.981 21.6194 150.822 25.4548 150.822 30.1904H151.061C151.061 25.4597 154.897 21.6194 159.632 21.6194V21.3796C154.902 21.3796 151.061 17.5442 151.061 12.8086Z" fill="#64EF29"/>
<path d="M151.183 12.6855V12.8079C151.183 17.4759 154.969 21.2564 159.632 21.2564H159.755V21.7408H159.632C154.964 21.7408 151.183 25.5266 151.183 30.1898V30.3121H150.699V30.1898C150.699 25.5218 146.914 21.7408 142.25 21.7408H142.128V21.2564H142.25C146.918 21.2564 150.699 17.4711 150.699 12.8079V12.6855H151.183ZM150.941 13.0133C150.834 17.6492 147.095 21.392 142.454 21.4986C147.09 21.6052 150.833 25.3436 150.941 29.9839C151.049 25.3484 154.788 21.6056 159.428 21.4986C154.792 21.3916 151.049 17.6535 150.941 13.0133Z" fill="#231815"/>
<path d="M195.091 12.8086H194.851C194.851 17.5393 191.015 21.3796 186.28 21.3796V21.6194C191.01 21.6194 194.851 25.4548 194.851 30.1904H195.091C195.091 25.4597 198.926 21.6194 203.662 21.6194V21.3796C198.931 21.3796 195.091 17.5442 195.091 12.8086Z" fill="#64EF29"/>
<path d="M195.213 12.6855V12.8079C195.213 17.4759 198.999 21.2564 203.662 21.2564H203.784V21.7408H203.662C198.994 21.7408 195.213 25.5266 195.213 30.1898V30.3121H194.729V30.1898C194.729 25.5218 190.943 21.7408 186.28 21.7408H186.157V21.2564H186.28C190.948 21.2564 194.729 17.4711 194.729 12.8079V12.6855H195.213ZM194.971 13.0133C194.863 17.6492 191.124 21.392 186.483 21.4986C191.119 21.6052 194.863 25.3436 194.971 29.9839C195.078 25.3484 198.817 21.6056 203.457 21.4986C198.821 21.3916 195.078 17.6535 194.971 13.0133Z" fill="#231815"/>
<path d="M173.013 17.1426H172.89C172.89 19.5153 170.968 21.4379 168.595 21.4379V21.5602C170.968 21.5602 172.89 23.4828 172.89 25.8555H173.013C173.013 23.4828 174.935 21.5602 177.308 21.5602V21.4379C174.935 21.4379 173.013 19.5153 173.013 17.1426Z" fill="#64EF29"/>
<path d="M173.111 17.0449V17.1429C173.111 19.4614 174.989 21.3403 177.308 21.3404H177.406V21.6585H177.308C174.989 21.6587 173.111 23.5371 173.111 25.8556V25.9535H172.793V25.8556C172.792 23.537 170.914 21.6585 168.595 21.6585H168.497V21.3404H168.595C170.914 21.3404 172.793 19.4615 172.793 17.1429V17.0449H173.111ZM172.951 17.7028C172.699 19.6815 171.134 21.2473 169.155 21.499C171.134 21.7506 172.699 23.317 172.951 25.2956C173.203 23.317 174.769 21.7507 176.748 21.499C174.769 21.2472 173.203 19.6814 172.951 17.7028Z" fill="#231815"/>
<path d="M252.309 12.8086H252.07C252.07 17.5393 248.234 21.3796 243.499 21.3796V21.6194C248.229 21.6194 252.07 25.4548 252.07 30.1904H252.309C252.309 25.4597 256.145 21.6194 260.88 21.6194V21.3796C256.15 21.3796 252.309 17.5442 252.309 12.8086Z" fill="#64EF29"/>
<path d="M252.431 12.6855V12.8079C252.431 17.4759 256.217 21.2564 260.88 21.2564H261.003V21.7408H260.88C256.212 21.7408 252.431 25.5266 252.431 30.1898V30.3121H251.948V30.1898C251.948 25.5218 248.162 21.7408 243.499 21.7408H243.376V21.2564H243.499C248.167 21.2564 251.948 17.4711 251.948 12.8079V12.6855H252.431ZM252.189 13.0133C252.082 17.6492 248.343 21.392 243.702 21.4986C248.338 21.6052 252.081 25.3436 252.189 29.9839C252.297 25.3484 256.036 21.6056 260.676 21.4986C256.04 21.3916 252.297 17.6535 252.189 13.0133Z" fill="#231815"/>
<path d="M296.363 12.8086H296.123C296.123 17.5393 292.288 21.3796 287.552 21.3796V21.6194C292.283 21.6194 296.123 25.4548 296.123 30.1904H296.363C296.363 25.4597 300.198 21.6194 304.934 21.6194V21.3796C300.203 21.3796 296.363 17.5442 296.363 12.8086Z" fill="#64EF29"/>
<path d="M296.485 12.6855V12.8079C296.485 17.4759 300.271 21.2564 304.934 21.2564H305.056V21.7408H304.934C300.266 21.7408 296.485 25.5266 296.485 30.1898V30.3121H296.001V30.1898C296.001 25.5218 292.215 21.7408 287.552 21.7408H287.43V21.2564H287.552C292.22 21.2564 296.001 17.4711 296.001 12.8079V12.6855H296.485ZM296.242 12.9947C296.145 17.6391 292.403 21.3918 287.756 21.4986C292.398 21.6053 296.145 25.3536 296.243 30.0025C296.341 25.3585 300.083 21.6057 304.73 21.4986C300.088 21.3914 296.34 17.6435 296.242 12.9947Z" fill="#231815"/>
<path d="M274.202 17.1426H274.079C274.079 19.5153 272.157 21.4379 269.784 21.4379V21.5602C272.157 21.5602 274.079 23.4828 274.079 25.8555H274.202C274.202 23.4828 276.124 21.5602 278.497 21.5602V21.4379C276.124 21.4379 274.202 19.5153 274.202 17.1426Z" fill="#64EF29"/>
<path d="M274.299 17.0449V17.1429C274.299 19.4614 276.178 21.3403 278.497 21.3404H278.595V21.6585H278.497C276.178 21.6587 274.3 23.5371 274.299 25.8556V25.9535H273.982V25.8556C273.982 23.537 272.103 21.6585 269.784 21.6585H269.686V21.3404H269.784C272.103 21.3404 273.982 19.4615 273.982 17.1429V17.0449H274.299ZM274.14 17.7028C273.889 19.6815 272.323 21.2473 270.344 21.499C272.323 21.7506 273.889 23.317 274.14 25.2956C274.392 23.317 275.958 21.7507 277.937 21.499C275.958 21.2472 274.392 19.6814 274.14 17.7028Z" fill="#231815"/>
<path d="M23.1269 19.5548L23.0682 19.4961C21.9479 20.6164 20.1377 20.6164 19.0174 19.4961L18.9587 19.5548C20.079 20.6751 20.079 22.4852 18.9587 23.6055L19.0174 23.6642C20.1377 22.5439 21.9479 22.5439 23.0682 23.6642L23.1269 23.6055C22.0066 22.4852 22.0066 20.6751 23.1269 19.5548Z" fill="#64EF29"/>
<path d="M13.9198 18.1209H13.9491C13.9491 17.5925 14.3748 17.1669 14.9031 17.1669V17.1376C14.3748 17.1376 13.9491 16.7119 13.9491 16.1836H13.9198C13.9198 16.7119 13.4942 17.1376 12.9658 17.1376V17.1669C13.4942 17.1669 13.9198 17.5925 13.9198 18.1209Z" fill="#64EF29"/>
<path d="M17.6236 28.5956V28.5663C17.0952 28.5663 16.6696 28.1407 16.6696 27.6123H16.6403C16.6403 28.1407 16.2146 28.5663 15.6863 28.5663V28.5956C16.2146 28.5956 16.6403 29.0212 16.6403 29.5496H16.6696C16.6696 29.0212 17.0952 28.5956 17.6236 28.5956Z" fill="#64EF29"/>
<path d="M28.2001 24.833H28.1708C28.1708 25.3614 27.7451 25.787 27.2168 25.787V25.8163C27.7451 25.8163 28.1708 26.2419 28.1708 26.7703H28.2001C28.2001 26.2419 28.6257 25.8163 29.1541 25.8163V25.787C28.6257 25.787 28.2001 25.3614 28.2001 24.833Z" fill="#64EF29"/>
<path d="M24.5063 14.413V14.4423C25.0347 14.4423 25.4603 14.8679 25.4603 15.3963H25.4897C25.4897 14.8679 25.9153 14.4423 26.4436 14.4423V14.413C25.9153 14.413 25.4897 13.9873 25.4897 13.459H25.4603C25.4603 13.9873 25.0347 14.413 24.5063 14.413Z" fill="#64EF29"/>
<path d="M15.2605 14.4616V14.4225C14.5218 14.4225 13.925 13.8256 13.925 13.0869H13.8858C13.8858 13.8256 13.289 14.4225 12.5503 14.4225V14.4616C13.289 14.4616 13.8858 15.0585 13.8858 15.7972H13.925C13.925 15.0585 14.5218 14.4616 15.2605 14.4616Z" fill="#64EF29"/>
<path d="M29.5403 14.4616V14.4225C28.8016 14.4225 28.2048 13.8256 28.2048 13.0869H28.1656C28.1656 13.8256 27.5688 14.4225 26.8301 14.4225V14.4616C27.5688 14.4616 28.1656 15.0585 28.1656 15.7972H28.2048C28.2048 15.0585 28.8016 14.4616 29.5403 14.4616Z" fill="#64EF29"/>
<path d="M15.2605 28.6296V28.5904C14.5218 28.5904 13.925 27.9936 13.925 27.2549H13.8858C13.8858 27.9936 13.289 28.5904 12.5503 28.5904V28.6296C13.289 28.6296 13.8858 29.2264 13.8858 29.9651H13.925C13.925 29.2264 14.5218 28.6296 15.2605 28.6296Z" fill="#64EF29"/>
<path d="M29.5403 28.6296V28.5904C28.8016 28.5904 28.2048 27.9936 28.2048 27.2549H28.1656C28.1656 27.9936 27.5688 28.5904 26.8301 28.5904V28.6296C27.5688 28.6296 28.1656 29.2264 28.1656 29.9651H28.2048C28.2048 29.2264 28.8016 28.6296 29.5403 28.6296Z" fill="#64EF29"/>
<path d="M13.8221 16.0811V16.1838C13.8221 16.6534 13.4406 17.0399 12.966 17.0399H12.8633V17.2698H12.966C13.4357 17.2698 13.8221 17.6514 13.8221 18.126V18.2287H14.0521V18.126C14.0521 17.6563 14.4337 17.2698 14.9082 17.2698H15.0109V17.0399H14.9082C14.4386 17.0399 14.0521 16.6583 14.0521 16.1838V16.0811H13.8221ZM14.4826 17.1524C14.238 17.2601 14.0423 17.4557 13.9347 17.7004C13.827 17.4557 13.6314 17.2601 13.3867 17.1524C13.6314 17.0448 13.827 16.8491 13.9347 16.6045C14.0423 16.8491 14.238 17.0448 14.4826 17.1524Z" fill="#161317"/>
<path d="M16.7723 27.6115V27.5088H16.5424V27.6115C16.5424 28.0812 16.1608 28.4677 15.6862 28.4677H15.5835V28.6976H15.6862C16.1559 28.6976 16.5424 29.0792 16.5424 29.5537V29.6564H16.7723V29.5537C16.7723 29.0841 17.1539 28.6976 17.6284 28.6976H17.7312V28.4677H17.6284C17.1588 28.4677 16.7723 28.0861 16.7723 27.6115ZM16.6549 29.1281C16.5473 28.8835 16.3516 28.6878 16.107 28.5802C16.3516 28.4725 16.5473 28.2769 16.6549 28.0322C16.7625 28.2769 16.9582 28.4725 17.2028 28.5802C16.9582 28.6878 16.7625 28.8835 16.6549 29.1281Z" fill="#161317"/>
<path d="M28.3028 26.8732V26.7705C28.3028 26.3009 28.6844 25.9144 29.1589 25.9144H29.2617V25.6844H29.1589C28.6893 25.6844 28.3028 25.3029 28.3028 24.8283V24.7256H28.0729V24.8283C28.0729 25.298 27.6913 25.6844 27.2167 25.6844H27.114V25.9144H27.2167C27.6864 25.9144 28.0729 26.296 28.0729 26.7705V26.8732H28.3028ZM27.6424 25.8019C27.887 25.6942 28.0827 25.4985 28.1903 25.2539C28.2979 25.4985 28.4936 25.6942 28.7382 25.8019C28.4936 25.9095 28.2979 26.1052 28.1903 26.3498C28.0827 26.1052 27.887 25.9095 27.6424 25.8019Z" fill="#161317"/>
<path d="M25.3627 15.3965V15.4992H25.5926V15.3965C25.5926 14.9268 25.9742 14.5404 26.4487 14.5404H26.5515V14.3104H26.4487C25.9791 14.3104 25.5926 13.9288 25.5926 13.4543V13.3516H25.3627V13.4543C25.3627 13.9239 24.9811 14.3104 24.5065 14.3104H24.4038V14.5404H24.5065C24.9762 14.5404 25.3627 14.9219 25.3627 15.3965ZM25.4752 13.8799C25.5828 14.1245 25.7785 14.3202 26.0231 14.4278C25.7785 14.5355 25.5828 14.7311 25.4752 14.9758C25.3676 14.7311 25.1719 14.5355 24.9273 14.4278C25.1719 14.3202 25.3676 14.1245 25.4752 13.8799Z" fill="#161317"/>
<path d="M12.5635 29.7941L10.0452 32.3125L10.232 32.4993L12.7503 29.981L12.5635 29.7941Z" fill="#161317"/>
<path d="M31.8587 10.5031L29.3403 13.0215L29.5271 13.2083L32.0455 10.6899L31.8587 10.5031Z" fill="#161317"/>
<path d="M29.5227 29.7937L29.3359 29.9805L31.8543 32.4988L32.0411 32.312L29.5227 29.7937Z" fill="#161317"/>
<path d="M10.2366 10.4987L10.0498 10.6855L12.5682 13.2039L12.755 13.0171L10.2366 10.4987Z" fill="#161317"/>
<path d="M29.6434 28.7322V28.4925H29.5407C28.8607 28.4925 28.3079 27.9397 28.3079 27.2596V27.1569H28.0681V27.2596C28.0681 27.8712 27.6181 28.3848 27.031 28.4778H23.0928C22.041 28.4778 21.18 27.6217 21.18 26.565V22.9301C21.8698 22.9643 22.5107 23.2432 22.9999 23.7373L23.0733 23.8107L23.2738 23.6101L23.2005 23.5367C22.677 23.0133 22.4079 22.3284 22.3933 21.6386H23.9C24.4626 21.6386 24.9176 22.0935 24.9176 22.6561V25.5523H25.1818V22.6561C25.1818 22.2403 24.9861 21.8734 24.6779 21.6386H26.1553C27.3539 21.6386 28.3323 20.6601 28.3323 19.4616V15.5527C28.4497 14.9901 28.9487 14.5694 29.5407 14.5694H29.6434V14.3297H29.5407C28.8607 14.3297 28.3079 13.7769 28.3079 13.0969V12.9941H28.0681V13.0969C28.0681 13.7769 27.5153 14.3297 26.8353 14.3297H26.7326V14.5694H26.8353C27.5153 14.5694 28.0681 15.1222 28.0681 15.8022V15.905V19.4567C28.0681 20.5085 27.212 21.3695 26.1553 21.3695H22.3981C22.4471 20.7335 22.7112 20.1122 23.1956 19.6279L23.2689 19.5545L23.0684 19.3539L22.995 19.4273C22.5058 19.9165 21.8649 20.2003 21.1751 20.2345V18.6739C21.1751 18.1113 21.6301 17.6564 22.1927 17.6564H25.0888V17.3922H22.1927C21.7768 17.3922 21.4099 17.5879 21.1751 17.8961V16.4774C21.1751 15.2788 20.1967 14.3003 18.9981 14.3003H14.9865C14.4337 14.178 14.0228 13.6839 14.0228 13.0969V12.9941H13.7831V13.0969C13.7831 13.7769 13.2303 14.3297 12.5503 14.3297H12.4475V14.5694H12.5503C13.2303 14.5694 13.7831 15.1222 13.7831 15.8022V15.905H14.0228V15.8022C14.0228 15.1222 14.5756 14.5694 15.2556 14.5694H15.3583L18.9981 14.5645C20.0499 14.5645 20.9109 15.4206 20.9109 16.4774V20.2394C20.2211 20.2052 19.5803 19.9263 19.0911 19.4322L19.0177 19.3588L18.8171 19.5594L18.8905 19.6328C19.3748 20.1171 19.639 20.7384 19.6879 21.3744H18.1567C17.5941 21.3744 17.1391 20.9194 17.1391 20.3568V17.4607H16.8749V20.3568C16.8749 20.7727 17.0706 21.1396 17.3788 21.3744H15.9601C14.7615 21.3744 13.7831 22.3528 13.7831 23.5514V27.3379C13.7439 27.9837 13.2058 28.5023 12.5503 28.5023H12.4475V28.742H12.5503C13.2303 28.742 13.7831 29.2948 13.7831 29.9748V30.0775H14.0228V29.9748C14.0228 29.2948 14.5756 28.742 15.2556 28.742H15.3583V28.5023H15.2556C14.6539 28.5023 14.15 28.0669 14.0424 27.4945V23.5563C14.0424 22.5045 14.8985 21.6435 15.9552 21.6435H19.6977C19.683 22.3333 19.4139 23.0182 18.8905 23.5416L18.8171 23.615L19.0177 23.8156L19.0911 23.7422C19.5803 23.253 20.2211 22.9692 20.9109 22.935V24.3782C20.9109 24.9408 20.456 25.3957 19.8934 25.3957H16.9972V25.6599H19.8934C20.3092 25.6599 20.6761 25.4642 20.9109 25.156V26.5699C20.9109 27.7684 21.8894 28.7469 23.0879 28.7469H26.9625C27.5789 28.8154 28.0633 29.3388 28.0633 29.9748V30.0775H28.303V29.9748C28.303 29.2948 28.8558 28.742 29.5358 28.742H29.6385L29.6434 28.7322ZM27.3148 14.4422C27.7208 14.2955 28.0437 13.9726 28.1904 13.5665C28.3372 13.9726 28.6601 14.2955 29.0661 14.4422C28.6601 14.589 28.3372 14.9119 28.1904 15.3179C28.0437 14.9119 27.7208 14.589 27.3148 14.4422ZM13.9054 15.3179C13.7586 14.9119 13.4357 14.589 13.0297 14.4422C13.4357 14.2955 13.7586 13.9726 13.9054 13.5665C14.0521 13.9726 14.375 14.2955 14.7811 14.4422C14.375 14.589 14.0521 14.9119 13.9054 15.3179ZM14.7811 28.6099C14.375 28.7566 14.0521 29.0795 13.9054 29.4856C13.7586 29.0795 13.4357 28.7566 13.0297 28.6099C13.4357 28.4631 13.7586 28.1402 13.9054 27.7342C14.0521 28.1402 14.375 28.4631 14.7811 28.6099ZM19.4188 19.9508C19.8983 20.2639 20.456 20.4351 21.043 20.4351C21.6301 20.4351 22.1878 20.2639 22.6672 19.9508C22.0215 20.9341 22.0215 22.2207 22.6672 23.2041C22.1878 22.891 21.6301 22.7197 21.043 22.7197C20.456 22.7197 19.8983 22.891 19.4188 23.2041C20.0646 22.2207 20.0646 20.9341 19.4188 19.9508ZM28.1856 29.4856C28.0388 29.0795 27.7159 28.7566 27.3099 28.6099C27.7159 28.4631 28.0388 28.1402 28.1856 27.7342C28.3323 28.1402 28.6552 28.4631 29.0613 28.6099C28.6552 28.7566 28.3323 29.0795 28.1856 29.4856Z" fill="#161317"/>
<path d="M124.399 19.5548L124.34 19.4961C123.22 20.6164 121.41 20.6164 120.29 19.4961L120.231 19.5548C121.351 20.6751 121.351 22.4852 120.231 23.6055L120.29 23.6642C121.41 22.5439 123.22 22.5439 124.34 23.6642L124.399 23.6055C123.279 22.4852 123.279 20.6751 124.399 19.5548Z" fill="#64EF29"/>
<path d="M115.197 18.1209H115.226C115.226 17.5925 115.652 17.1669 116.18 17.1669V17.1376C115.652 17.1376 115.226 16.7119 115.226 16.1836H115.197C115.197 16.7119 114.771 17.1376 114.243 17.1376V17.1669C114.771 17.1669 115.197 17.5925 115.197 18.1209Z" fill="#64EF29"/>
<path d="M118.896 28.5956V28.5663C118.367 28.5663 117.942 28.1407 117.942 27.6123H117.912C117.912 28.1407 117.487 28.5663 116.958 28.5663V28.5956C117.487 28.5956 117.912 29.0212 117.912 29.5496H117.942C117.942 29.0212 118.367 28.5956 118.896 28.5956Z" fill="#64EF29"/>
<path d="M129.472 24.833H129.443C129.443 25.3614 129.017 25.787 128.489 25.787V25.8163C129.017 25.8163 129.443 26.2419 129.443 26.7703H129.472C129.472 26.2419 129.898 25.8163 130.426 25.8163V25.787C129.898 25.787 129.472 25.3614 129.472 24.833Z" fill="#64EF29"/>
<path d="M125.779 14.413V14.4423C126.307 14.4423 126.733 14.8679 126.733 15.3963H126.762C126.762 14.8679 127.188 14.4423 127.716 14.4423V14.413C127.188 14.413 126.762 13.9873 126.762 13.459H126.733C126.733 13.9873 126.307 14.413 125.779 14.413Z" fill="#64EF29"/>
<path d="M116.533 14.4616V14.4225C115.794 14.4225 115.197 13.8256 115.197 13.0869H115.158C115.158 13.8256 114.561 14.4225 113.823 14.4225V14.4616C114.561 14.4616 115.158 15.0585 115.158 15.7972H115.197C115.197 15.0585 115.794 14.4616 116.533 14.4616Z" fill="#64EF29"/>
<path d="M130.817 14.4616V14.4225C130.079 14.4225 129.482 13.8256 129.482 13.0869H129.443C129.443 13.8256 128.846 14.4225 128.107 14.4225V14.4616C128.846 14.4616 129.443 15.0585 129.443 15.7972H129.482C129.482 15.0585 130.079 14.4616 130.817 14.4616Z" fill="#64EF29"/>
<path d="M116.533 28.6296V28.5904C115.794 28.5904 115.197 27.9936 115.197 27.2549H115.158C115.158 27.9936 114.561 28.5904 113.823 28.5904V28.6296C114.561 28.6296 115.158 29.2264 115.158 29.9651H115.197C115.197 29.2264 115.794 28.6296 116.533 28.6296Z" fill="#64EF29"/>
<path d="M130.817 28.6296V28.5904C130.079 28.5904 129.482 27.9936 129.482 27.2549H129.443C129.443 27.9936 128.846 28.5904 128.107 28.5904V28.6296C128.846 28.6296 129.443 29.2264 129.443 29.9651H129.482C129.482 29.2264 130.079 28.6296 130.817 28.6296Z" fill="#64EF29"/>
<path d="M115.094 16.0811V16.1838C115.094 16.6534 114.713 17.0399 114.238 17.0399H114.135V17.2698H114.238C114.708 17.2698 115.094 17.6514 115.094 18.126V18.2287H115.324V18.126C115.324 17.6563 115.706 17.2698 116.18 17.2698H116.283V17.0399H116.18C115.711 17.0399 115.324 16.6583 115.324 16.1838V16.0811H115.094ZM115.755 17.1524C115.51 17.2601 115.315 17.4557 115.207 17.7004C115.099 17.4557 114.904 17.2601 114.659 17.1524C114.904 17.0448 115.099 16.8491 115.207 16.6045C115.315 16.8491 115.51 17.0448 115.755 17.1524Z" fill="#161317"/>
<path d="M118.044 27.6115V27.5088H117.814V27.6115C117.814 28.0812 117.433 28.4677 116.958 28.4677H116.855V28.6976H116.958C117.428 28.6976 117.814 29.0792 117.814 29.5537V29.6564H118.044V29.5537C118.044 29.0841 118.426 28.6976 118.9 28.6976H119.003V28.4677H118.9C118.431 28.4677 118.044 28.0861 118.044 27.6115ZM117.927 29.1281C117.819 28.8835 117.623 28.6878 117.379 28.5802C117.623 28.4725 117.819 28.2769 117.927 28.0322C118.034 28.2769 118.23 28.4725 118.475 28.5802C118.23 28.6878 118.034 28.8835 117.927 29.1281Z" fill="#161317"/>
<path d="M129.575 26.8732V26.7705C129.575 26.3009 129.957 25.9144 130.431 25.9144H130.534V25.6844H130.431C129.961 25.6844 129.575 25.3029 129.575 24.8283V24.7256H129.345V24.8283C129.345 25.298 128.964 25.6844 128.489 25.6844H128.386V25.9144H128.489C128.959 25.9144 129.345 26.296 129.345 26.7705V26.8732H129.575ZM128.915 25.8019C129.159 25.6942 129.355 25.4985 129.463 25.2539C129.57 25.4985 129.766 25.6942 130.01 25.8019C129.766 25.9095 129.57 26.1052 129.463 26.3498C129.355 26.1052 129.159 25.9095 128.915 25.8019Z" fill="#161317"/>
<path d="M126.635 15.3965V15.4992H126.865V15.3965C126.865 14.9268 127.246 14.5404 127.721 14.5404H127.824V14.3104H127.721C127.251 14.3104 126.865 13.9288 126.865 13.4543V13.3516H126.635V13.4543C126.635 13.9239 126.253 14.3104 125.779 14.3104H125.676V14.5404H125.779C126.248 14.5404 126.635 14.9219 126.635 15.3965ZM126.747 13.8799C126.855 14.1245 127.051 14.3202 127.295 14.4278C127.051 14.5355 126.855 14.7311 126.747 14.9758C126.64 14.7311 126.444 14.5355 126.199 14.4278C126.444 14.3202 126.64 14.1245 126.747 13.8799Z" fill="#161317"/>
<path d="M113.84 29.7902L111.322 32.3086L111.508 32.4954L114.027 29.977L113.84 29.7902Z" fill="#161317"/>
<path d="M133.133 10.5002L130.615 13.0186L130.802 13.2054L133.32 10.687L133.133 10.5002Z" fill="#161317"/>
<path d="M130.802 29.7907L130.615 29.9775L133.134 32.4959L133.321 32.3091L130.802 29.7907Z" fill="#161317"/>
<path d="M111.508 10.4997L111.321 10.6865L113.839 13.2049L114.026 13.0181L111.508 10.4997Z" fill="#161317"/>
<path d="M130.916 28.7322V28.4925H130.813C130.133 28.4925 129.58 27.9397 129.58 27.2596V27.1569H129.34V27.2596C129.34 27.8712 128.89 28.3848 128.303 28.4778H124.365C123.313 28.4778 122.452 27.6217 122.452 26.565V22.9301C123.142 22.9643 123.783 23.2432 124.272 23.7373L124.345 23.8107L124.546 23.6101L124.473 23.5367C123.949 23.0133 123.68 22.3284 123.665 21.6386H125.172C125.735 21.6386 126.19 22.0935 126.19 22.6561V25.5523H126.454V22.6561C126.454 22.2403 126.258 21.8734 125.95 21.6386H127.428C128.626 21.6386 129.605 20.6601 129.605 19.4616V15.5527C129.722 14.9901 130.221 14.5694 130.813 14.5694H130.916V14.3297H130.813C130.133 14.3297 129.58 13.7769 129.58 13.0969V12.9941H129.34V13.0969C129.34 13.7769 128.788 14.3297 128.108 14.3297H128.005V14.5694H128.108C128.788 14.5694 129.34 15.1222 129.34 15.8022V15.905V19.4567C129.34 20.5085 128.484 21.3695 127.428 21.3695H123.67C123.719 20.7335 123.983 20.1122 124.468 19.6279L124.541 19.5545L124.341 19.3539L124.267 19.4273C123.778 19.9165 123.137 20.2003 122.447 20.2345V18.6739C122.447 18.1113 122.902 17.6564 123.465 17.6564H126.361V17.3922H123.465C123.049 17.3922 122.682 17.5879 122.447 17.8961V16.4774C122.447 15.2788 121.469 14.3003 120.27 14.3003H116.259C115.706 14.178 115.295 13.6839 115.295 13.0969V12.9941H115.055V13.0969C115.055 13.7769 114.502 14.3297 113.822 14.3297H113.72V14.5694H113.822C114.502 14.5694 115.055 15.1222 115.055 15.8022V15.905H115.295V15.8022C115.295 15.1222 115.848 14.5694 116.528 14.5694H116.631L120.27 14.5645C121.322 14.5645 122.183 15.4206 122.183 16.4774V20.2394C121.493 20.2052 120.852 19.9263 120.363 19.4322L120.29 19.3588L120.089 19.5594L120.163 19.6328C120.647 20.1171 120.911 20.7384 120.96 21.3744H119.429C118.866 21.3744 118.411 20.9194 118.411 20.3568V17.4607H118.147V20.3568C118.147 20.7727 118.343 21.1396 118.651 21.3744H117.232C116.034 21.3744 115.055 22.3528 115.055 23.5514V27.3379C115.016 27.9837 114.478 28.5023 113.822 28.5023H113.72V28.742H113.822C114.502 28.742 115.055 29.2948 115.055 29.9748V30.0775H115.295V29.9748C115.295 29.2948 115.848 28.742 116.528 28.742H116.631V28.5023H116.528C115.926 28.5023 115.422 28.0669 115.315 27.4945V23.5563C115.315 22.5045 116.171 21.6435 117.227 21.6435H120.97C120.955 22.3333 120.686 23.0182 120.163 23.5416L120.089 23.615L120.29 23.8156L120.363 23.7422C120.852 23.253 121.493 22.9692 122.183 22.935V24.3782C122.183 24.9408 121.728 25.3957 121.166 25.3957H118.269V25.6599H121.166C121.581 25.6599 121.948 25.4642 122.183 25.156V26.5699C122.183 27.7684 123.162 28.7469 124.36 28.7469H128.235C128.851 28.8154 129.335 29.3388 129.335 29.9748V30.0775H129.575V29.9748C129.575 29.2948 130.128 28.742 130.808 28.742H130.911L130.916 28.7322ZM128.587 14.4422C128.993 14.2955 129.316 13.9726 129.463 13.5665C129.609 13.9726 129.932 14.2955 130.338 14.4422C129.932 14.589 129.609 14.9119 129.463 15.3179C129.316 14.9119 128.993 14.589 128.587 14.4422ZM115.178 15.3179C115.031 14.9119 114.708 14.589 114.302 14.4422C114.708 14.2955 115.031 13.9726 115.178 13.5665C115.324 13.9726 115.647 14.2955 116.053 14.4422C115.647 14.589 115.324 14.9119 115.178 15.3179ZM116.053 28.6099C115.647 28.7566 115.324 29.0795 115.178 29.4856C115.031 29.0795 114.708 28.7566 114.302 28.6099C114.708 28.4631 115.031 28.1402 115.178 27.7342C115.324 28.1402 115.647 28.4631 116.053 28.6099ZM120.696 19.9508C121.175 20.2639 121.733 20.4351 122.32 20.4351C122.907 20.4351 123.465 20.2639 123.944 19.9508C123.299 20.9341 123.299 22.2207 123.944 23.2041C123.465 22.891 122.907 22.7197 122.32 22.7197C121.733 22.7197 121.175 22.891 120.696 23.2041C121.342 22.2207 121.342 20.9341 120.696 19.9508ZM129.458 29.4856C129.311 29.0795 128.988 28.7566 128.582 28.6099C128.988 28.4631 129.311 28.1402 129.458 27.7342C129.605 28.1402 129.927 28.4631 130.333 28.6099C129.927 28.7566 129.605 29.0795 129.458 29.4856Z" fill="#161317"/>
<path d="M225.676 19.5548L225.617 19.4961C224.497 20.6164 222.687 20.6164 221.567 19.4961L221.508 19.5548C222.628 20.6751 222.628 22.4852 221.508 23.6055L221.567 23.6642C222.687 22.5439 224.497 22.5439 225.617 23.6642L225.676 23.6055C224.556 22.4852 224.556 20.6751 225.676 19.5548Z" fill="#64EF29"/>
<path d="M216.469 18.1209H216.498C216.498 17.5925 216.924 17.1669 217.452 17.1669V17.1376C216.924 17.1376 216.498 16.7119 216.498 16.1836H216.469C216.469 16.7119 216.043 17.1376 215.515 17.1376V17.1669C216.043 17.1669 216.469 17.5925 216.469 18.1209Z" fill="#64EF29"/>
<path d="M220.173 28.5956V28.5663C219.645 28.5663 219.219 28.1407 219.219 27.6123H219.19C219.19 28.1407 218.764 28.5663 218.236 28.5663V28.5956C218.764 28.5956 219.19 29.0212 219.19 29.5496H219.219C219.219 29.0212 219.645 28.5956 220.173 28.5956Z" fill="#64EF29"/>
<path d="M230.745 24.833H230.715C230.715 25.3614 230.29 25.787 229.761 25.787V25.8163C230.29 25.8163 230.715 26.2419 230.715 26.7703H230.745C230.745 26.2419 231.17 25.8163 231.699 25.8163V25.787C231.17 25.787 230.745 25.3614 230.745 24.833Z" fill="#64EF29"/>
<path d="M227.051 14.413V14.4423C227.579 14.4423 228.005 14.8679 228.005 15.3963H228.034C228.034 14.8679 228.46 14.4423 228.988 14.4423V14.413C228.46 14.413 228.034 13.9873 228.034 13.459H228.005C228.005 13.9873 227.579 14.413 227.051 14.413Z" fill="#64EF29"/>
<path d="M217.81 14.4616V14.4225C217.071 14.4225 216.475 13.8256 216.475 13.0869H216.435C216.435 13.8256 215.839 14.4225 215.1 14.4225V14.4616C215.839 14.4616 216.435 15.0585 216.435 15.7972H216.475C216.475 15.0585 217.071 14.4616 217.81 14.4616Z" fill="#64EF29"/>
<path d="M232.09 14.4616V14.4225C231.351 14.4225 230.754 13.8256 230.754 13.0869H230.715C230.715 13.8256 230.118 14.4225 229.379 14.4225V14.4616C230.118 14.4616 230.715 15.0585 230.715 15.7972H230.754C230.754 15.0585 231.351 14.4616 232.09 14.4616Z" fill="#64EF29"/>
<path d="M217.81 28.6296V28.5904C217.071 28.5904 216.475 27.9936 216.475 27.2549H216.435C216.435 27.9936 215.839 28.5904 215.1 28.5904V28.6296C215.839 28.6296 216.435 29.2264 216.435 29.9651H216.475C216.475 29.2264 217.071 28.6296 217.81 28.6296Z" fill="#64EF29"/>
<path d="M232.09 28.6296V28.5904C231.351 28.5904 230.754 27.9936 230.754 27.2549H230.715C230.715 27.9936 230.118 28.5904 229.379 28.5904V28.6296C230.118 28.6296 230.715 29.2264 230.715 29.9651H230.754C230.754 29.2264 231.351 28.6296 232.09 28.6296Z" fill="#64EF29"/>
<path d="M216.367 16.0811V16.1838C216.367 16.6534 215.985 17.0399 215.51 17.0399H215.408V17.2698H215.51C215.98 17.2698 216.367 17.6514 216.367 18.126V18.2287H216.597V18.126C216.597 17.6563 216.978 17.2698 217.453 17.2698H217.555V17.0399H217.453C216.983 17.0399 216.597 16.6583 216.597 16.1838V16.0811H216.367ZM217.027 17.1524C216.782 17.2601 216.587 17.4557 216.479 17.7004C216.371 17.4557 216.176 17.2601 215.931 17.1524C216.176 17.0448 216.371 16.8491 216.479 16.6045C216.587 16.8491 216.782 17.0448 217.027 17.1524Z" fill="#161317"/>
<path d="M219.316 27.6115V27.5088H219.087V27.6115C219.087 28.0812 218.705 28.4677 218.23 28.4677H218.128V28.6976H218.23C218.7 28.6976 219.087 29.0792 219.087 29.5537V29.6564H219.316V29.5537C219.316 29.0841 219.698 28.6976 220.173 28.6976H220.275V28.4677H220.173C219.703 28.4677 219.316 28.0861 219.316 27.6115ZM219.199 29.1281C219.091 28.8835 218.896 28.6878 218.651 28.5802C218.896 28.4725 219.091 28.2769 219.199 28.0322C219.307 28.2769 219.502 28.4725 219.747 28.5802C219.502 28.6878 219.307 28.8835 219.199 29.1281Z" fill="#161317"/>
<path d="M230.847 26.8732V26.7705C230.847 26.3009 231.229 25.9144 231.703 25.9144H231.806V25.6844H231.703C231.234 25.6844 230.847 25.3029 230.847 24.8283V24.7256H230.617V24.8283C230.617 25.298 230.236 25.6844 229.761 25.6844H229.658V25.9144H229.761C230.231 25.9144 230.617 26.296 230.617 26.7705V26.8732H230.847ZM230.187 25.8019C230.431 25.6942 230.627 25.4985 230.735 25.2539C230.842 25.4985 231.038 25.6942 231.283 25.8019C231.038 25.9095 230.842 26.1052 230.735 26.3498C230.627 26.1052 230.431 25.9095 230.187 25.8019Z" fill="#161317"/>
<path d="M227.907 15.3965V15.4992H228.137V15.3965C228.137 14.9268 228.519 14.5404 228.993 14.5404H229.096V14.3104H228.993C228.524 14.3104 228.137 13.9288 228.137 13.4543V13.3516H227.907V13.4543C227.907 13.9239 227.525 14.3104 227.051 14.3104H226.948V14.5404H227.051C227.521 14.5404 227.907 14.9219 227.907 15.3965ZM228.02 13.8799C228.127 14.1245 228.323 14.3202 228.568 14.4278C228.323 14.5355 228.127 14.7311 228.02 14.9758C227.912 14.7311 227.716 14.5355 227.472 14.4278C227.716 14.3202 227.912 14.1245 228.02 13.8799Z" fill="#161317"/>
<path d="M215.111 29.7912L212.593 32.3096L212.78 32.4964L215.298 29.978L215.111 29.7912Z" fill="#161317"/>
<path d="M234.405 10.5012L231.886 13.0195L232.073 13.2063L234.591 10.688L234.405 10.5012Z" fill="#161317"/>
<path d="M232.074 29.7917L231.887 29.9785L234.405 32.4969L234.592 32.3101L232.074 29.7917Z" fill="#161317"/>
<path d="M212.779 10.5007L212.592 10.6875L215.111 13.2059L215.297 13.019L212.779 10.5007Z" fill="#161317"/>
<path d="M232.193 28.7322V28.4925H232.09C231.41 28.4925 230.857 27.9397 230.857 27.2596V27.1569H230.617V27.2596C230.617 27.8712 230.167 28.3848 229.58 28.4778H225.642C224.59 28.4778 223.729 27.6217 223.729 26.565V22.9301C224.419 22.9643 225.06 23.2432 225.549 23.7373L225.623 23.8107L225.823 23.6101L225.75 23.5367C225.226 23.0133 224.957 22.3284 224.943 21.6386H226.449C227.012 21.6386 227.467 22.0935 227.467 22.6561V25.5523H227.731V22.6561C227.731 22.2403 227.535 21.8734 227.227 21.6386H228.705C229.903 21.6386 230.882 20.6601 230.882 19.4616V15.5527C230.999 14.9901 231.498 14.5694 232.09 14.5694H232.193V14.3297H232.09C231.41 14.3297 230.857 13.7769 230.857 13.0969V12.9941H230.617V13.0969C230.617 13.7769 230.065 14.3297 229.385 14.3297H229.282V14.5694H229.385C230.065 14.5694 230.617 15.1222 230.617 15.8022V15.905V19.4567C230.617 20.5085 229.761 21.3695 228.705 21.3695H224.947C224.996 20.7335 225.261 20.1122 225.745 19.6279L225.818 19.5545L225.618 19.3539L225.544 19.4273C225.055 19.9165 224.414 20.2003 223.724 20.2345V18.6739C223.724 18.1113 224.179 17.6564 224.742 17.6564H227.638V17.3922H224.742C224.326 17.3922 223.959 17.5879 223.724 17.8961V16.4774C223.724 15.2788 222.746 14.3003 221.547 14.3003H217.536C216.983 14.178 216.572 13.6839 216.572 13.0969V12.9941H216.332V13.0969C216.332 13.7769 215.78 14.3297 215.1 14.3297H214.997V14.5694H215.1C215.78 14.5694 216.332 15.1222 216.332 15.8022V15.905H216.572V15.8022C216.572 15.1222 217.125 14.5694 217.805 14.5694H217.908L221.547 14.5645C222.599 14.5645 223.46 15.4206 223.46 16.4774V20.2394C222.77 20.2052 222.13 19.9263 221.64 19.4322L221.567 19.3588L221.366 19.5594L221.44 19.6328C221.924 20.1171 222.188 20.7384 222.237 21.3744H220.706C220.143 21.3744 219.688 20.9194 219.688 20.3568V17.4607H219.424V20.3568C219.424 20.7727 219.62 21.1396 219.928 21.3744H218.509C217.311 21.3744 216.332 22.3528 216.332 23.5514V27.3379C216.293 27.9837 215.755 28.5023 215.1 28.5023H214.997V28.742H215.1C215.78 28.742 216.332 29.2948 216.332 29.9748V30.0775H216.572V29.9748C216.572 29.2948 217.125 28.742 217.805 28.742H217.908V28.5023H217.805C217.203 28.5023 216.699 28.0669 216.592 27.4945V23.5563C216.592 22.5045 217.448 21.6435 218.504 21.6435H222.247C222.232 22.3333 221.963 23.0182 221.44 23.5416L221.366 23.615L221.567 23.8156L221.64 23.7422C222.13 23.253 222.77 22.9692 223.46 22.935V24.3782C223.46 24.9408 223.005 25.3957 222.443 25.3957H219.547V25.6599H222.443C222.858 25.6599 223.225 25.4642 223.46 25.156V26.5699C223.46 27.7684 224.439 28.7469 225.637 28.7469H229.512C230.128 28.8154 230.613 29.3388 230.613 29.9748V30.0775H230.852V29.9748C230.852 29.2948 231.405 28.742 232.085 28.742H232.188L232.193 28.7322ZM229.859 14.4422C230.265 14.2955 230.588 13.9726 230.735 13.5665C230.882 13.9726 231.205 14.2955 231.611 14.4422C231.205 14.589 230.882 14.9119 230.735 15.3179C230.588 14.9119 230.265 14.589 229.859 14.4422ZM216.455 15.3179C216.308 14.9119 215.985 14.589 215.579 14.4422C215.985 14.2955 216.308 13.9726 216.455 13.5665C216.601 13.9726 216.924 14.2955 217.33 14.4422C216.924 14.589 216.601 14.9119 216.455 15.3179ZM217.325 28.6099C216.919 28.7566 216.597 29.0795 216.45 29.4856C216.303 29.0795 215.98 28.7566 215.574 28.6099C215.98 28.4631 216.303 28.1402 216.45 27.7342C216.597 28.1402 216.919 28.4631 217.325 28.6099ZM221.968 19.9508C222.448 20.2639 223.005 20.4351 223.592 20.4351C224.179 20.4351 224.737 20.2639 225.217 19.9508C224.571 20.9341 224.571 22.2207 225.217 23.2041C224.737 22.891 224.179 22.7197 223.592 22.7197C223.005 22.7197 222.448 22.891 221.968 23.2041C222.614 22.2207 222.614 20.9341 221.968 19.9508ZM230.735 29.4856C230.588 29.0795 230.265 28.7566 229.859 28.6099C230.265 28.4631 230.588 28.1402 230.735 27.7342C230.882 28.1402 231.205 28.4631 231.611 28.6099C231.205 28.7566 230.882 29.0795 230.735 29.4856Z" fill="#161317"/>
<path d="M326.949 19.5548L326.89 19.4961C325.77 20.6164 323.96 20.6164 322.839 19.4961L322.781 19.5548C323.901 20.6751 323.901 22.4852 322.781 23.6055L322.839 23.6642C323.96 22.5439 325.77 22.5439 326.89 23.6642L326.949 23.6055C325.829 22.4852 325.829 20.6751 326.949 19.5548Z" fill="#64EF29"/>
<path d="M317.742 18.1209H317.771C317.771 17.5925 318.197 17.1669 318.725 17.1669V17.1376C318.197 17.1376 317.771 16.7119 317.771 16.1836H317.742C317.742 16.7119 317.316 17.1376 316.788 17.1376V17.1669C317.316 17.1669 317.742 17.5925 317.742 18.1209Z" fill="#64EF29"/>
<path d="M321.445 28.5956V28.5663C320.917 28.5663 320.491 28.1407 320.491 27.6123H320.462C320.462 28.1407 320.036 28.5663 319.508 28.5663V28.5956C320.036 28.5956 320.462 29.0212 320.462 29.5496H320.491C320.491 29.0212 320.917 28.5956 321.445 28.5956Z" fill="#64EF29"/>
<path d="M332.022 24.833H331.993C331.993 25.3614 331.567 25.787 331.039 25.787V25.8163C331.567 25.8163 331.993 26.2419 331.993 26.7703H332.022C332.022 26.2419 332.448 25.8163 332.976 25.8163V25.787C332.448 25.787 332.022 25.3614 332.022 24.833Z" fill="#64EF29"/>
<path d="M328.329 14.413V14.4423C328.857 14.4423 329.283 14.8679 329.283 15.3963H329.312C329.312 14.8679 329.738 14.4423 330.266 14.4423V14.413C329.738 14.413 329.312 13.9873 329.312 13.459H329.283C329.283 13.9873 328.857 14.413 328.329 14.413Z" fill="#64EF29"/>
<path d="M319.082 14.4616V14.4225C318.343 14.4225 317.746 13.8256 317.746 13.0869H317.707C317.707 13.8256 317.111 14.4225 316.372 14.4225V14.4616C317.111 14.4616 317.707 15.0585 317.707 15.7972H317.746C317.746 15.0585 318.343 14.4616 319.082 14.4616Z" fill="#64EF29"/>
<path d="M333.363 14.4616V14.4225C332.624 14.4225 332.027 13.8256 332.027 13.0869H331.988C331.988 13.8256 331.391 14.4225 330.652 14.4225V14.4616C331.391 14.4616 331.988 15.0585 331.988 15.7972H332.027C332.027 15.0585 332.624 14.4616 333.363 14.4616Z" fill="#64EF29"/>
<path d="M319.082 28.6296V28.5904C318.343 28.5904 317.746 27.9936 317.746 27.2549H317.707C317.707 27.9936 317.111 28.5904 316.372 28.5904V28.6296C317.111 28.6296 317.707 29.2264 317.707 29.9651H317.746C317.746 29.2264 318.343 28.6296 319.082 28.6296Z" fill="#64EF29"/>
<path d="M333.363 28.6296V28.5904C332.624 28.5904 332.027 27.9936 332.027 27.2549H331.988C331.988 27.9936 331.391 28.5904 330.652 28.5904V28.6296C331.391 28.6296 331.988 29.2264 331.988 29.9651H332.027C332.027 29.2264 332.624 28.6296 333.363 28.6296Z" fill="#64EF29"/>
<path d="M317.639 16.0811V16.1838C317.639 16.6534 317.258 17.0399 316.783 17.0399H316.68V17.2698H316.783C317.253 17.2698 317.639 17.6514 317.639 18.126V18.2287H317.869V18.126C317.869 17.6563 318.251 17.2698 318.725 17.2698H318.828V17.0399H318.725C318.256 17.0399 317.869 16.6583 317.869 16.1838V16.0811H317.639ZM318.3 17.1524C318.055 17.2601 317.859 17.4557 317.752 17.7004C317.644 17.4557 317.448 17.2601 317.204 17.1524C317.448 17.0448 317.644 16.8491 317.752 16.6045C317.859 16.8491 318.055 17.0448 318.3 17.1524Z" fill="#161317"/>
<path d="M320.589 27.6115V27.5088H320.359V27.6115C320.359 28.0812 319.978 28.4677 319.503 28.4677H319.4V28.6976H319.503C319.973 28.6976 320.359 29.0792 320.359 29.5537V29.6564H320.589V29.5537C320.589 29.0841 320.971 28.6976 321.445 28.6976H321.548V28.4677H321.445C320.976 28.4677 320.589 28.0861 320.589 27.6115ZM320.477 29.1281C320.369 28.8835 320.173 28.6878 319.929 28.5802C320.173 28.4725 320.369 28.2769 320.477 28.0322C320.584 28.2769 320.78 28.4725 321.025 28.5802C320.78 28.6878 320.584 28.8835 320.477 29.1281Z" fill="#161317"/>
<path d="M332.12 26.8732V26.7705C332.12 26.3009 332.501 25.9144 332.976 25.9144H333.079V25.6844H332.976C332.506 25.6844 332.12 25.3029 332.12 24.8283V24.7256H331.89V24.8283C331.89 25.298 331.508 25.6844 331.034 25.6844H330.931V25.9144H331.034C331.503 25.9144 331.89 26.296 331.89 26.7705V26.8732H332.12ZM331.459 25.8019C331.704 25.6942 331.9 25.4985 332.007 25.2539C332.115 25.4985 332.311 25.6942 332.555 25.8019C332.311 25.9095 332.115 26.1052 332.007 26.3498C331.9 26.1052 331.704 25.9095 331.459 25.8019Z" fill="#161317"/>
<path d="M329.18 15.3965V15.4992H329.41V15.3965C329.41 14.9268 329.791 14.5404 330.266 14.5404H330.369V14.3104H330.266C329.796 14.3104 329.41 13.9288 329.41 13.4543V13.3516H329.18V13.4543C329.18 13.9239 328.798 14.3104 328.324 14.3104H328.221V14.5404H328.324C328.793 14.5404 329.18 14.9219 329.18 15.3965ZM329.297 13.8799C329.405 14.1245 329.601 14.3202 329.845 14.4278C329.601 14.5355 329.405 14.7311 329.297 14.9758C329.19 14.7311 328.994 14.5355 328.749 14.4278C328.994 14.3202 329.19 14.1245 329.297 13.8799Z" fill="#161317"/>
<path d="M316.383 29.7913L313.865 32.3096L314.052 32.4964L316.57 29.9781L316.383 29.7913Z" fill="#161317"/>
<path d="M335.681 10.5021L333.163 13.0205L333.35 13.2073L335.868 10.6889L335.681 10.5021Z" fill="#161317"/>
<path d="M333.346 29.7927L333.159 29.9795L335.677 32.4978L335.864 32.311L333.346 29.7927Z" fill="#161317"/>
<path d="M314.056 10.5017L313.869 10.6885L316.387 13.2068L316.574 13.0201L314.056 10.5017Z" fill="#161317"/>
<path d="M333.465 28.7322V28.4925H333.362C332.682 28.4925 332.13 27.9397 332.13 27.2596V27.1569H331.89V27.2596C331.89 27.8712 331.44 28.3848 330.853 28.4778H326.915C325.863 28.4778 325.002 27.6217 325.002 26.565V22.9301C325.692 22.9643 326.332 23.2432 326.822 23.7373L326.895 23.8107L327.096 23.6101L327.022 23.5367C326.499 23.0133 326.23 22.3284 326.215 21.6386H327.722C328.284 21.6386 328.739 22.0935 328.739 22.6561V25.5523H329.004V22.6561C329.004 22.2403 328.808 21.8734 328.5 21.6386H329.977C331.176 21.6386 332.154 20.6601 332.154 19.4616V15.5527C332.271 14.9901 332.771 14.5694 333.362 14.5694H333.465V14.3297H333.362C332.682 14.3297 332.13 13.7769 332.13 13.0969V12.9941H331.89V13.0969C331.89 13.7769 331.337 14.3297 330.657 14.3297H330.554V14.5694H330.657C331.337 14.5694 331.89 15.1222 331.89 15.8022V15.905V19.4567C331.89 20.5085 331.034 21.3695 329.977 21.3695H326.22C326.269 20.7335 326.533 20.1122 327.017 19.6279L327.091 19.5545L326.89 19.3539L326.817 19.4273C326.328 19.9165 325.687 20.2003 324.997 20.2345V18.6739C324.997 18.1113 325.452 17.6564 326.014 17.6564H328.911V17.3922H326.014C325.599 17.3922 325.232 17.5879 324.997 17.8961V16.4774C324.997 15.2788 324.018 14.3003 322.82 14.3003H318.808C318.256 14.178 317.845 13.6839 317.845 13.0969V12.9941H317.605V13.0969C317.605 13.7769 317.052 14.3297 316.372 14.3297H316.269V14.5694H316.372C317.052 14.5694 317.605 15.1222 317.605 15.8022V15.905H317.845V15.8022C317.845 15.1222 318.397 14.5694 319.077 14.5694H319.18L322.82 14.5645C323.872 14.5645 324.733 15.4206 324.733 16.4774V20.2394C324.043 20.2052 323.402 19.9263 322.913 19.4322L322.839 19.3588L322.639 19.5594L322.712 19.6328C323.197 20.1171 323.461 20.7384 323.51 21.3744H321.978C321.416 21.3744 320.961 20.9194 320.961 20.3568V17.4607H320.697V20.3568C320.697 20.7727 320.892 21.1396 321.201 21.3744H319.782C318.583 21.3744 317.605 22.3528 317.605 23.5514V27.3379C317.566 27.9837 317.028 28.5023 316.372 28.5023H316.269V28.742H316.372C317.052 28.742 317.605 29.2948 317.605 29.9748V30.0775H317.845V29.9748C317.845 29.2948 318.397 28.742 319.077 28.742H319.18V28.5023H319.077C318.476 28.5023 317.972 28.0669 317.864 27.4945V23.5563C317.864 22.5045 318.72 21.6435 319.777 21.6435H323.519C323.505 22.3333 323.236 23.0182 322.712 23.5416L322.639 23.615L322.839 23.8156L322.913 23.7422C323.402 23.253 324.043 22.9692 324.733 22.935V24.3782C324.733 24.9408 324.278 25.3957 323.715 25.3957H320.819V25.6599H323.715C324.131 25.6599 324.498 25.4642 324.733 25.156V26.5699C324.733 27.7684 325.711 28.7469 326.91 28.7469H330.784C331.401 28.8154 331.885 29.3388 331.885 29.9748V30.0775H332.125V29.9748C332.125 29.2948 332.678 28.742 333.358 28.742H333.46L333.465 28.7322ZM331.132 14.4422C331.538 14.2955 331.861 13.9726 332.007 13.5665C332.154 13.9726 332.477 14.2955 332.883 14.4422C332.477 14.589 332.154 14.9119 332.007 15.3179C331.861 14.9119 331.538 14.589 331.132 14.4422ZM317.727 15.3179C317.58 14.9119 317.258 14.589 316.851 14.4422C317.258 14.2955 317.58 13.9726 317.727 13.5665C317.874 13.9726 318.197 14.2955 318.603 14.4422C318.197 14.589 317.874 14.9119 317.727 15.3179ZM318.598 28.6099C318.192 28.7566 317.869 29.0795 317.722 29.4856C317.575 29.0795 317.253 28.7566 316.847 28.6099C317.253 28.4631 317.575 28.1402 317.722 27.7342C317.869 28.1402 318.192 28.4631 318.598 28.6099ZM323.241 19.9508C323.72 20.2639 324.278 20.4351 324.865 20.4351C325.452 20.4351 326.01 20.2639 326.489 19.9508C325.843 20.9341 325.843 22.2207 326.489 23.2041C326.01 22.891 325.452 22.7197 324.865 22.7197C324.278 22.7197 323.72 22.891 323.241 23.2041C323.886 22.2207 323.886 20.9341 323.241 19.9508ZM332.007 29.4856C331.861 29.0795 331.538 28.7566 331.132 28.6099C331.538 28.4631 331.861 28.1402 332.007 27.7342C332.154 28.1402 332.477 28.4631 332.883 28.6099C332.477 28.7566 332.154 29.0795 332.007 29.4856Z" fill="#161317"/>
</g>
</g>
<path d="M197.452 158.99L196.85 158.388C185.059 170.179 165.939 170.179 154.148 158.388L153.546 158.99C165.337 170.781 165.337 189.901 153.546 201.692L154.148 202.294C165.939 190.503 185.059 190.503 196.85 202.294L197.452 201.692C185.661 189.901 185.661 170.781 197.452 158.99Z" fill="white"/>
<path d="M100.368 143.864H100.651C100.651 138.296 105.164 133.784 110.732 133.784V133.5C105.164 133.5 100.651 128.988 100.651 123.42H100.368C100.368 128.988 95.8554 133.5 90.2876 133.5V133.784C95.8554 133.784 100.368 138.296 100.368 143.864Z" fill="white"/>
<path d="M139.41 254.343V254.06C133.842 254.06 129.33 249.547 129.33 243.979H129.046C129.046 249.547 124.534 254.06 118.966 254.06V254.343C124.534 254.343 129.046 258.856 129.046 264.424H129.33C129.33 258.856 133.842 254.343 139.41 254.343Z" fill="white"/>
<path d="M250.944 214.674H250.66C250.66 220.242 246.148 224.754 240.58 224.754V225.038C246.148 225.038 250.66 229.55 250.66 235.118H250.944C250.944 229.55 255.456 225.038 261.024 225.038V224.754C255.456 224.754 250.944 220.242 250.944 214.674Z" fill="white"/>
<path d="M211.989 104.762V105.046C217.557 105.046 222.069 109.558 222.069 115.126H222.353C222.353 109.558 226.865 105.046 232.433 105.046V104.762C226.865 104.762 222.353 100.249 222.353 94.6816H222.069C222.069 100.249 217.557 104.762 211.989 104.762Z" fill="white"/>
<path d="M114.494 105.297V104.9C106.708 104.9 100.396 98.5881 100.396 90.8018H99.9982C99.9982 98.5881 93.6865 104.9 85.9001 104.9V105.297C93.6865 105.297 99.9982 111.609 99.9982 119.395H100.396C100.396 111.609 106.708 105.297 114.494 105.297Z" fill="white"/>
<path d="M265.1 105.297V104.9C257.314 104.9 251.002 98.5881 251.002 90.8018H250.605C250.605 98.5881 244.293 104.9 236.507 104.9V105.297C244.293 105.297 250.605 111.609 250.605 119.395H251.002C251.002 111.609 257.314 105.297 265.1 105.297Z" fill="white"/>
<path d="M114.494 254.7V254.302C106.708 254.302 100.396 247.99 100.396 240.204H99.9982C99.9982 247.99 93.6865 254.302 85.9001 254.302V254.7C93.6865 254.7 99.9982 261.011 99.9982 268.798H100.396C100.396 261.011 106.708 254.7 114.494 254.7Z" fill="white"/>
<path d="M265.1 254.7V254.302C257.314 254.302 251.002 247.99 251.002 240.204H250.605C250.605 247.99 244.293 254.302 236.507 254.302V254.7C244.293 254.7 250.605 261.011 250.605 268.798H251.002C251.002 261.011 257.314 254.7 265.1 254.7Z" fill="white"/>
<path d="M99.293 122.345V123.42C99.293 128.385 95.2537 132.425 90.2878 132.425H89.2129V134.858H90.2878C95.2537 134.858 99.293 138.898 99.293 143.864V144.938H101.727V143.864C101.727 138.898 105.766 134.858 110.732 134.858H111.807V132.425H110.732C105.766 132.425 101.727 128.385 101.727 123.42V122.345H99.293ZM106.267 133.642C103.7 134.768 101.636 136.832 100.51 139.399C99.3833 136.832 97.3195 134.768 94.7527 133.642C97.3195 132.515 99.3833 130.451 100.51 127.885C101.634 130.451 103.7 132.515 106.267 133.642Z" fill="#161317"/>
<path d="M130.404 243.979V242.904H127.971V243.979C127.971 248.945 123.931 252.984 118.965 252.984H117.891V255.418H118.965C123.931 255.418 127.971 259.457 127.971 264.423V265.498H130.404V264.423C130.404 259.457 134.444 255.418 139.41 255.418H140.484V252.984H139.41C134.444 252.984 130.404 248.945 130.404 243.979ZM129.187 259.958C128.063 257.391 125.997 255.328 123.431 254.201C125.997 253.075 128.061 251.011 129.187 248.444C130.314 251.011 132.378 253.075 134.945 254.201C132.378 255.325 130.314 257.391 129.187 259.958Z" fill="#161317"/>
<path d="M252.019 236.193V235.118C252.019 230.153 256.059 226.113 261.025 226.113H262.1V223.68H261.025C256.059 223.68 252.019 219.64 252.019 214.674V213.6H249.586V214.674C249.586 219.64 245.547 223.68 240.581 223.68H239.506V226.113H240.581C245.547 226.113 249.586 230.153 249.586 235.118V236.193H252.019ZM245.048 224.896C247.615 223.77 249.678 221.706 250.805 219.139C251.931 221.706 253.995 223.77 256.562 224.896C253.995 226.023 251.931 228.087 250.805 230.653C249.678 228.087 247.615 226.023 245.048 224.896Z" fill="#161317"/>
<path d="M220.994 115.126V116.201H223.428V115.126C223.428 110.16 227.467 106.121 232.433 106.121H233.508V103.688H232.433C227.467 103.688 223.428 99.6482 223.428 94.6823V93.6074H220.994V94.6823C220.994 99.6482 216.955 103.688 211.989 103.688H210.914V106.121H211.989C216.955 106.121 220.994 110.16 220.994 115.126ZM222.211 99.1473C223.338 101.714 225.401 103.778 227.968 104.904C225.401 106.031 223.338 108.095 222.211 110.661C221.085 108.095 219.021 106.031 216.454 104.904C219.021 103.778 221.085 101.714 222.211 99.1473Z" fill="#161317"/>
<path d="M86.0652 266.957L59.5 293.522L61.4761 295.499L88.0413 268.933L86.0652 266.957Z" fill="#161317"/>
<path d="M289.524 63.5002L262.959 90.0654L264.935 92.0416L291.5 65.4763L289.524 63.5002Z" fill="#161317"/>
<path d="M264.935 266.96L262.959 268.937L289.524 295.502L291.5 293.526L264.935 266.96Z" fill="#161317"/>
<path d="M61.4781 63.5014L59.502 65.4775L86.0671 92.0427L88.0433 90.0666L61.4781 63.5014Z" fill="#161317"/>
<path d="M266.175 255.775V253.227H265.1C257.918 253.227 252.077 247.384 252.077 240.204V239.129H249.53V240.204C249.53 246.67 244.792 252.049 238.605 253.057H197.05C185.936 253.057 176.897 244.016 176.897 232.904V194.559C184.15 194.898 190.922 197.884 196.089 203.054L196.851 203.815L198.972 201.694L198.211 200.933C192.676 195.397 189.84 188.17 189.703 180.899H205.574C211.492 180.899 216.306 185.715 216.306 191.631V222.148H219.1V191.631C219.1 187.262 217.017 183.374 213.795 180.899H229.4C242.053 180.899 252.348 170.604 252.348 157.951V116.742C253.578 110.831 258.828 106.374 265.098 106.374H266.173V103.827H265.098C257.916 103.827 252.075 97.9837 252.075 90.8036V89.7287H249.528V90.8036C249.528 97.9859 243.685 103.827 236.505 103.827H235.43V106.374H236.505C243.687 106.374 249.528 112.217 249.528 119.397V120.472H249.554V157.949C249.554 169.063 240.512 178.102 229.4 178.102H189.782C190.294 171.408 193.101 164.858 198.211 159.748L198.972 158.987L196.851 156.865L196.089 157.626C190.919 162.796 184.15 165.782 176.897 166.122V149.646C176.897 143.728 181.712 138.915 187.628 138.915H218.146V136.12H187.628C183.26 136.12 179.371 138.203 176.897 141.426V126.455C176.897 113.801 166.602 103.506 153.948 103.506H111.643C105.828 102.202 101.471 97.0013 101.471 90.8014V89.7266H98.9235V90.8014C98.9235 97.9837 93.0804 103.825 85.9003 103.825H84.8254V106.372H85.9003C93.0826 106.372 98.9235 112.215 98.9235 119.395V120.47H101.471V119.395C101.471 112.213 107.314 106.372 114.494 106.372H115.569V106.301H153.948C165.062 106.301 174.102 115.343 174.102 126.455V166.122C166.849 165.782 160.077 162.796 154.909 157.626L154.148 156.865L152.026 158.987L152.787 159.748C157.895 164.856 160.705 171.408 161.216 178.102H145.044C139.126 178.102 134.312 173.287 134.312 167.371V136.853H131.518V167.371C131.518 171.739 133.601 175.628 136.823 178.102H121.848C109.195 178.102 98.8998 188.397 98.8998 201.051V240.969C98.5021 247.795 92.8246 253.227 85.9003 253.227H84.8254V255.775H85.9003C93.0826 255.775 98.9235 261.618 98.9235 268.798V269.873H101.471V268.798C101.471 261.615 107.314 255.775 114.494 255.775H115.569V253.227H114.494C108.129 253.227 102.819 248.635 101.692 242.592V201.051C101.692 189.937 110.734 180.897 121.846 180.897H161.294C161.156 188.167 158.321 195.395 152.785 200.93L152.024 201.691L154.146 203.813L154.907 203.052C160.077 197.882 166.847 194.896 174.1 194.556V209.796C174.1 215.714 169.284 220.527 163.368 220.527H132.851V223.322H163.368C167.737 223.322 171.626 221.239 174.1 218.014V232.899C174.1 245.553 184.395 255.848 197.048 255.848H237.902C244.429 256.549 249.528 262.086 249.528 268.796V269.87H252.075V268.796C252.075 261.613 257.918 255.772 265.098 255.772H266.173L266.175 255.775ZM241.591 105.097C245.873 103.569 249.276 100.168 250.805 95.8834C252.333 100.166 255.734 103.569 260.019 105.097C255.736 106.626 252.333 110.027 250.805 114.309C249.276 110.027 245.875 106.624 241.591 105.097ZM100.196 114.311C98.6676 110.029 95.2668 106.626 90.9823 105.099C95.2646 103.571 98.6676 100.17 100.196 95.8856C101.725 100.168 105.125 103.571 109.41 105.099C105.128 106.628 101.725 110.029 100.196 114.311ZM109.408 254.502C105.125 256.03 101.722 259.431 100.194 263.714C98.6655 259.431 95.2646 256.028 90.9802 254.502C95.2625 252.973 98.6655 249.573 100.194 245.288C101.722 249.57 105.123 252.973 109.408 254.502ZM158.353 163.198C163.403 166.524 169.315 168.306 175.499 168.306C181.684 168.306 187.596 166.522 192.646 163.198C185.848 173.564 185.848 187.116 192.646 197.482C187.596 194.157 181.684 192.374 175.499 192.374C169.315 192.374 163.403 194.159 158.353 197.482C165.151 187.116 165.151 173.564 158.353 163.198ZM250.803 263.714C249.274 259.431 245.873 256.028 241.589 254.502C245.871 252.973 249.274 249.573 250.803 245.288C252.331 249.57 255.732 252.973 260.016 254.502C255.734 256.03 252.331 259.431 250.803 263.714Z" fill="#161317"/>
<path opacity="0.87" d="M115.073 354.028V356.228H99.0571V350.706H111.751V349.562H99.0571V347.34H114.677V352.862H101.961V354.028H115.073ZM117.141 340.674V343.424H114.677V346.592H111.751V337.22H114.677V340.674H117.141ZM101.015 341.928C101.015 342.603 101.228 343.145 101.653 343.556C102.093 343.967 102.65 344.172 103.325 344.172C103.985 344.172 104.542 343.967 104.997 343.556C105.452 343.145 105.679 342.603 105.679 341.928C105.679 341.268 105.452 340.733 104.997 340.322C104.542 339.897 103.985 339.684 103.325 339.684C102.65 339.684 102.093 339.897 101.653 340.322C101.228 340.733 101.015 341.268 101.015 341.928ZM98.1331 341.928C98.1331 341.253 98.2577 340.63 98.5071 340.058C98.7711 339.471 99.1377 338.973 99.6071 338.562C100.062 338.137 100.604 337.807 101.235 337.572C101.88 337.337 102.577 337.22 103.325 337.22C104.073 337.22 104.762 337.337 105.393 337.572C106.038 337.807 106.596 338.137 107.065 338.562C107.534 338.973 107.901 339.471 108.165 340.058C108.429 340.63 108.561 341.253 108.561 341.928C108.561 342.617 108.429 343.248 108.165 343.82C107.901 344.392 107.534 344.883 107.065 345.294C106.596 345.719 106.038 346.049 105.393 346.284C104.762 346.504 104.073 346.614 103.325 346.614C102.577 346.614 101.88 346.504 101.235 346.284C100.604 346.049 100.062 345.719 99.6071 345.294C99.1377 344.883 98.7711 344.392 98.5071 343.82C98.2577 343.248 98.1331 342.617 98.1331 341.928ZM134.75 353.94V356.118H118.206V350.838H131.626V349.892H118.206V347.736H134.552V352.994H121.132V353.94H134.75ZM131.626 342.962H118.206V340.828H131.626V339.728H118.206V337.528H134.552V343.93H131.626V342.962ZM125.906 344.59H135.476V346.834H117.282V344.59H123.002V343.314H125.906V344.59ZM140.676 337.22H143.602C143.602 337.836 143.566 338.445 143.492 339.046C143.419 339.647 143.316 340.234 143.184 340.806C143.815 341.701 144.614 342.537 145.582 343.314C146.565 344.091 147.577 344.737 148.618 345.25L146.99 347.472C146.125 347.047 145.26 346.504 144.394 345.844C143.544 345.184 142.788 344.48 142.128 343.732C141.703 344.568 141.197 345.345 140.61 346.064C140.024 346.783 139.349 347.413 138.586 347.956L136.32 346.174C137.787 345.162 138.88 343.893 139.598 342.368C140.317 340.828 140.676 339.112 140.676 337.22ZM142.656 348.594H149.168C150.679 348.594 151.882 348.961 152.776 349.694C153.671 350.427 154.118 351.366 154.118 352.51C154.118 353.786 153.671 354.754 152.776 355.414C151.882 356.089 150.679 356.426 149.168 356.426H142.656C141.116 356.426 139.899 356.089 139.004 355.414C138.124 354.754 137.684 353.786 137.684 352.51C137.684 351.366 138.124 350.427 139.004 349.694C139.899 348.961 141.116 348.594 142.656 348.594ZM149.168 351.058H142.656C142.04 351.058 141.556 351.197 141.204 351.476C140.852 351.74 140.676 352.085 140.676 352.51C140.676 352.95 140.852 353.302 141.204 353.566C141.556 353.83 142.04 353.962 142.656 353.962H149.168C149.74 353.962 150.21 353.83 150.576 353.566C150.943 353.302 151.126 352.95 151.126 352.51C151.126 352.085 150.943 351.74 150.576 351.476C150.21 351.197 149.74 351.058 149.168 351.058ZM150.906 340.058V337.22H153.81V347.978H150.906V342.654H146.55V340.058H150.906ZM178.225 353.94V356.118H161.681V350.926H175.101V350.068H161.681V347.912H178.027V353.104H164.607V353.94H178.225ZM160.757 344.832H178.951V347.032H160.757V344.832ZM178.027 337.528V343.952H161.681V337.528H164.607V338.65H175.101V337.528H178.027ZM164.607 341.796H175.101V340.762H164.607V341.796ZM197.285 337.22V349.166H194.491V344.282H192.775V349.166H190.047V337.308H192.775V341.752H194.491V337.22H197.285ZM197.285 350.002V356.426H194.381V352.576H181.269V350.002H197.285ZM189.013 346.218V348.594H180.851V341.818H185.691V339.904H180.851V337.528H188.441V344.172H183.601V346.218H189.013ZM200.022 349.826V343.116C200.022 341.239 200.491 339.801 201.43 338.804C202.383 337.807 203.644 337.308 205.214 337.308C206.798 337.308 208.066 337.807 209.02 338.804C209.973 339.801 210.45 341.239 210.45 343.116V349.826C210.45 351.703 209.973 353.133 209.02 354.116C208.066 355.099 206.798 355.59 205.214 355.59C203.644 355.59 202.383 355.099 201.43 354.116C200.491 353.133 200.022 351.703 200.022 349.826ZM202.816 343.116V349.826C202.816 350.897 203.021 351.689 203.432 352.202C203.842 352.701 204.436 352.95 205.214 352.95C205.991 352.95 206.585 352.701 206.996 352.202C207.421 351.689 207.634 350.897 207.634 349.826V343.116C207.634 342.06 207.421 341.275 206.996 340.762C206.585 340.249 205.991 339.992 205.214 339.992C204.436 339.992 203.842 340.249 203.432 340.762C203.021 341.275 202.816 342.06 202.816 343.116ZM216.258 347.164V356.228H213.332V337.22H216.258V344.37H218.722V347.164H216.258ZM231.49 344.48H224.45C222.837 344.48 221.62 344.172 220.798 343.556C219.992 342.94 219.588 342.038 219.588 340.85C219.588 339.765 219.992 338.892 220.798 338.232C221.62 337.557 222.837 337.22 224.45 337.22H231.49C233.074 337.22 234.277 337.557 235.098 338.232C235.92 338.892 236.33 339.765 236.33 340.85C236.33 342.038 235.92 342.94 235.098 343.556C234.277 344.172 233.074 344.48 231.49 344.48ZM224.472 342.104H231.468C232.128 342.104 232.605 341.994 232.898 341.774C233.192 341.539 233.338 341.231 233.338 340.85C233.338 340.469 233.192 340.168 232.898 339.948C232.605 339.713 232.128 339.596 231.468 339.596H224.472C223.842 339.596 223.365 339.713 223.042 339.948C222.72 340.168 222.558 340.469 222.558 340.85C222.558 341.231 222.705 341.539 222.998 341.774C223.306 341.994 223.798 342.104 224.472 342.104ZM229.246 351.652C230.258 352.312 231.432 352.818 232.766 353.17C234.101 353.522 235.45 353.727 236.814 353.786L236 356.118C234.519 356.045 233.03 355.788 231.534 355.348C230.053 354.923 228.762 354.307 227.662 353.5C226.65 354.38 225.484 355.025 224.164 355.436C222.844 355.861 221.495 356.089 220.116 356.118L219.104 353.808C219.94 353.793 220.754 353.713 221.546 353.566C222.353 353.419 223.094 353.192 223.768 352.884C224.458 352.591 225.066 352.217 225.594 351.762C226.137 351.307 226.577 350.757 226.914 350.112H226.364V347.978H218.862V345.58H237.056V347.978H229.29V350.112H227.178L229.686 350.86C229.613 350.992 229.54 351.124 229.466 351.256C229.393 351.388 229.32 351.52 229.246 351.652Z" fill="black"/>
<path d="M248.214 352.878L246.688 351.338L250.734 347.306L246.702 343.288L248.214 341.734L253.786 347.306L248.214 352.878Z" fill="black"/>
<defs>
<filter id="filter0_d_1313_27606" x="0" y="0" width="346" height="447" filterUnits="userSpaceOnUse" color-interpolation-filters="sRGB">
<feFlood flood-opacity="0" result="BackgroundImageFix"/>
<feColorMatrix in="SourceAlpha" type="matrix" values="0 0 0 0 0 0 0 0 0 0 0 0 0 0 0 0 0 0 127 0" result="hardAlpha"/>
<feOffset/>
<feGaussianBlur stdDeviation="2.25"/>
<feComposite in2="hardAlpha" operator="out"/>
<feColorMatrix type="matrix" values="0 0 0 0 0 0 0 0 0 0 0 0 0 0 0 0 0 0 0.1 0"/>
<feBlend mode="normal" in2="BackgroundImageFix" result="effect1_dropShadow_1313_27606"/>
<feBlend mode="normal" in="SourceGraphic" in2="effect1_dropShadow_1313_27606" result="shape"/>
</filter>
<clipPath id="clip0_1313_27606">
<rect width="832.184" height="22" fill="white" transform="translate(-192.5 10.5)"/>
</clipPath>
</defs>
</svg>
