<svg width="160" height="160" viewBox="0 0 160 160" fill="none" xmlns="http://www.w3.org/2000/svg">
<path d="M81.1033 0H78.8967C78.8967 43.5463 43.5913 78.8967 0 78.8967V81.1033C43.5463 81.1033 78.8967 116.409 78.8967 160H81.1033C81.1033 116.454 116.409 81.1033 160 81.1033V78.8967C116.454 78.8967 81.1033 43.5913 81.1033 0Z" fill="#161317"/>
<path d="M60.0719 82.046C60.7439 83.32 61.5559 83.754 62.2979 83.754C63.5999 83.754 64.2159 83.152 64.2159 82.27C64.2159 80.17 59.0639 81.094 59.0639 77.44C59.0639 75.662 60.4919 74.584 62.5079 74.598C63.7679 74.598 65.1959 75.34 65.8399 77.076L64.2439 77.65C63.8099 76.502 63.1099 76.152 62.4939 76.138C61.4579 76.138 60.8699 76.684 60.8699 77.44C60.8699 79.512 66.0079 78.798 66.0079 82.284C66.0079 84.076 64.5939 85.308 62.2839 85.294C60.7439 85.294 59.4839 84.384 58.6019 82.886L60.0719 82.046ZM74.3649 74.71V76.264H71.5229V85.182H69.7029V76.264H66.8329V74.71H74.3649ZM80.2848 74.71L84.1068 85.182H82.1888L81.1948 82.438H77.1488L76.1128 85.182H74.1948L78.1008 74.71H80.2848ZM77.7228 80.884H80.6208L79.1928 76.964L77.7228 80.884ZM89.2964 79.946C90.3604 79.946 91.0604 79.274 91.0604 78.098C91.0604 76.922 90.3604 76.264 89.2964 76.264H87.1684V79.946H89.2964ZM93.3704 85.182H91.2004L88.7504 81.5H87.1684V85.182H85.3624V74.71H89.6184C91.5364 74.71 92.8664 76.026 92.8664 78.042C92.8804 79.344 92.3484 80.45 90.7244 81.206L93.3704 85.182ZM101.616 74.71V76.264H98.7737V85.182H96.9537V76.264H94.0837V74.71H101.616Z" fill="#FDFDFD"/>
</svg>
